<?xml version="1.0" encoding="UTF-8" standalone="no"?>
<svg
   width="2560"
   height="1440"
   version="1.1"
   viewBox="0 0 2560 1440"
   xml:space="preserve"
   id="svg240"
   sodipodi:docname="Eavesdrum-banner-yt.svg"
   inkscape:export-filename="Eavesdrum-banner-yt.png"
   inkscape:export-xdpi="96"
   inkscape:export-ydpi="96"
   inkscape:version="1.4.2 (f4327f4, 2025-05-13)"
   xmlns:inkscape="http://www.inkscape.org/namespaces/inkscape"
   xmlns:sodipodi="http://sodipodi.sourceforge.net/DTD/sodipodi-0.dtd"
   xmlns:xlink="http://www.w3.org/1999/xlink"
   xmlns="http://www.w3.org/2000/svg"
   xmlns:svg="http://www.w3.org/2000/svg"><sodipodi:namedview
     id="namedview240"
     pagecolor="#ffffff"
     bordercolor="#000000"
     borderopacity="0.25"
     inkscape:showpageshadow="2"
     inkscape:pageopacity="0.0"
     inkscape:pagecheckerboard="0"
     inkscape:deskcolor="#d1d1d1"
     inkscape:zoom="0.49773688"
     inkscape:cx="922.17397"
     inkscape:cy="94.4274"
     inkscape:window-width="3840"
     inkscape:window-height="2054"
     inkscape:window-x="2869"
     inkscape:window-y="-11"
     inkscape:window-maximized="1"
     inkscape:current-layer="svg240"
     inkscape:export-bgcolor="#ffffffff" /><defs
     id="defs4"><linearGradient
       id="a"><stop
         stop-color="#fff"
         stop-opacity=".42605"
         offset="0"
         id="stop1" /><stop
         stop-color="#fff"
         stop-opacity="0"
         offset="1"
         id="stop2" /></linearGradient><radialGradient
       id="aw"
       cx="105.73"
       cy="72.436996"
       r="77.382004"
       gradientTransform="matrix(16.601035,0,0,9.3243613,-470.274,47.024312)"
       gradientUnits="userSpaceOnUse"><stop
         stop-color="#3574a2"
         offset="0"
         id="stop3" /><stop
         stop-color="#152e43"
         offset="1"
         id="stop4" /></radialGradient><radialGradient
       id="bv"
       cx="56.429001"
       cy="115.41"
       r="2"
       gradientTransform="matrix(3.4029323,0,0,3.4029323,974.91898,785.82597)"
       gradientUnits="userSpaceOnUse"
       xlink:href="#a" /><radialGradient
       id="am"
       cx="56.429001"
       cy="115.41"
       r="2"
       gradientTransform="matrix(2.230571,-2.458481,2.458481,2.230571,577.78584,859.70025)"
       gradientUnits="userSpaceOnUse"
       xlink:href="#a" /><radialGradient
       id="ah"
       cx="56.429001"
       cy="115.41"
       r="2"
       gradientTransform="matrix(2.2244803,1.3707805,-1.3707805,2.2244803,945.82116,480.23008)"
       gradientUnits="userSpaceOnUse"
       xlink:href="#a" /><radialGradient
       id="ab"
       cx="56.429001"
       cy="115.41"
       r="2"
       gradientTransform="matrix(3.4214008,-0.34982222,0.34982222,3.4214008,731.70363,335.54062)"
       gradientUnits="userSpaceOnUse"
       xlink:href="#a" /><radialGradient
       id="q"
       cx="56.429001"
       cy="115.41"
       r="2"
       gradientTransform="matrix(2.6871769,-0.09729596,0.09729596,2.6871769,833.57547,563.08322)"
       gradientUnits="userSpaceOnUse"
       xlink:href="#a" /><radialGradient
       id="cp"
       cx="56.429001"
       cy="115.41"
       r="2"
       gradientTransform="matrix(2.0203437,-2.0004998,2.0004998,2.0203437,947.05894,626.05319)"
       gradientUnits="userSpaceOnUse"
       xlink:href="#a" /><radialGradient
       id="cg"
       cx="56.429001"
       cy="115.41"
       r="2"
       gradientTransform="matrix(2.9897471,0.15958023,-0.15958023,2.9897471,1107.8337,306.60587)"
       gradientUnits="userSpaceOnUse"
       xlink:href="#a" /><radialGradient
       id="ce"
       cx="56.429001"
       cy="115.41"
       r="2"
       gradientTransform="matrix(2.3521885,1.4656775,-1.4656775,2.3521885,1354.9196,438.6365)"
       gradientUnits="userSpaceOnUse"
       xlink:href="#a" /><radialGradient
       id="cd"
       cx="56.429001"
       cy="115.41"
       r="2"
       gradientTransform="matrix(3.2921209,-0.59657411,0.59657411,3.2921209,1254.5213,280.82453)"
       gradientUnits="userSpaceOnUse"
       xlink:href="#a" /><radialGradient
       id="cc"
       cx="56.429001"
       cy="115.41"
       r="2"
       gradientTransform="matrix(2.2967828,-2.4343147,2.4343147,2.2967828,1356.1378,554.06506)"
       gradientUnits="userSpaceOnUse"
       xlink:href="#a" /><radialGradient
       id="cb"
       cx="56.429001"
       cy="115.41"
       r="2"
       gradientTransform="matrix(3.1056669,-1.7948699,1.7948699,3.1056669,1633.127,372.03569)"
       gradientUnits="userSpaceOnUse"
       xlink:href="#a" /><radialGradient
       id="ca"
       cx="56.429001"
       cy="115.41"
       r="2"
       gradientTransform="matrix(2.6559376,1.2115578,-1.2115578,2.6559376,2178.1267,237.30747)"
       gradientUnits="userSpaceOnUse"
       xlink:href="#a" /><radialGradient
       id="bz"
       cx="56.429001"
       cy="115.41"
       r="2"
       gradientTransform="matrix(3.3060705,1.8722415,-1.8722415,3.3060705,2087.1591,420.63947)"
       gradientUnits="userSpaceOnUse"
       xlink:href="#a" /><radialGradient
       id="by"
       cx="56.429001"
       cy="115.41"
       r="2"
       gradientTransform="matrix(2.9781552,-0.42065116,0.42065116,2.9781552,2041.9701,543.1018)"
       gradientUnits="userSpaceOnUse"
       xlink:href="#a" /><radialGradient
       id="bx"
       cx="56.429001"
       cy="115.41"
       r="2"
       gradientTransform="matrix(2.8677367,-2.95281,2.95281,2.8677367,1804.1774,639.84567)"
       gradientUnits="userSpaceOnUse"
       xlink:href="#a" /><radialGradient
       id="bw"
       cx="56.429001"
       cy="115.41"
       r="2"
       gradientTransform="matrix(3.3306298,-1.6768872,1.6768872,3.3306298,1919.8418,705.29121)"
       gradientUnits="userSpaceOnUse"
       xlink:href="#a" /><radialGradient
       id="bs"
       cx="56.429001"
       cy="115.41"
       r="2"
       gradientTransform="matrix(2.5967988,3.0893595,-3.0893595,2.5967988,2024.2874,855.65288)"
       gradientUnits="userSpaceOnUse"
       xlink:href="#a" /><radialGradient
       id="br"
       cx="56.429001"
       cy="115.41"
       r="2"
       gradientTransform="matrix(3.758747,1.2955113,-1.2955113,3.758747,1454.0605,856.55666)"
       gradientUnits="userSpaceOnUse"
       xlink:href="#a" /><radialGradient
       id="bq"
       cx="56.429001"
       cy="115.41"
       r="2"
       gradientTransform="matrix(2.5869751,1.8177199,-1.8177199,2.5869751,1317.2555,866.5179)"
       gradientUnits="userSpaceOnUse"
       xlink:href="#a" /><radialGradient
       id="bn"
       cx="56.429001"
       cy="115.41"
       r="2"
       gradientTransform="matrix(3.4361364,2.3439366,-2.3439366,3.4361364,1242.615,834.78733)"
       gradientUnits="userSpaceOnUse"
       xlink:href="#a" /><radialGradient
       id="bk"
       cx="56.429001"
       cy="115.41"
       r="2"
       gradientTransform="matrix(3.1223672,0.28084015,-0.28084015,3.1223672,816.52152,925.30297)"
       gradientUnits="userSpaceOnUse"
       xlink:href="#a" /><radialGradient
       id="bh"
       cx="56.429001"
       cy="115.41"
       r="2"
       gradientTransform="matrix(2.7869858,0.51462474,-0.51462474,2.7869858,742.35253,844.74857)"
       gradientUnits="userSpaceOnUse"
       xlink:href="#a" /><radialGradient
       id="be"
       cx="56.429001"
       cy="115.41"
       r="2"
       gradientTransform="matrix(2.3290046,1.5453085,-1.5453085,2.3290046,1038.2033,801.81896)"
       gradientUnits="userSpaceOnUse"
       xlink:href="#a" /><radialGradient
       id="bb"
       cx="56.429001"
       cy="115.41"
       r="2"
       gradientTransform="matrix(3.2329821,0.7581741,-0.7581741,3.2329821,799.21214,644.34493)"
       gradientUnits="userSpaceOnUse"
       xlink:href="#a" /><radialGradient
       id="ay"
       cx="56.429001"
       cy="115.41"
       r="2"
       gradientTransform="matrix(2.6732273,0.87352407,-0.87352407,2.6732273,902.10566,566.08928)"
       gradientUnits="userSpaceOnUse"
       xlink:href="#a" /><radialGradient
       id="ax"
       cx="56.429001"
       cy="115.41"
       r="2"
       gradientTransform="matrix(2.5510204,0.07989818,-0.07989818,2.5510204,1018.9095,373.82557)"
       gradientUnits="userSpaceOnUse"
       xlink:href="#a" /><radialGradient
       id="av"
       cx="56.429001"
       cy="115.41"
       r="2"
       gradientTransform="matrix(1.9674921,2.8441598,-2.8441598,1.9674921,1527.7579,551.23583)"
       gradientUnits="userSpaceOnUse"
       xlink:href="#a" /><radialGradient
       id="au"
       cx="56.429001"
       cy="115.41"
       r="2"
       gradientTransform="matrix(2.7366884,2.5710607,-2.5710607,2.7366884,1524.8501,487.83362)"
       gradientUnits="userSpaceOnUse"
       xlink:href="#a" /><radialGradient
       id="at"
       cx="56.429001"
       cy="115.41"
       r="2"
       gradientTransform="matrix(2.9349309,0.45002404,-0.45002404,2.9349309,1327.1775,640.00285)"
       gradientUnits="userSpaceOnUse"
       xlink:href="#a" /><radialGradient
       id="as"
       cx="56.429001"
       cy="115.41"
       r="2"
       gradientTransform="matrix(2.6203757,2.9693138,-2.9693138,2.6203757,1794.1572,388.53559)"
       gradientUnits="userSpaceOnUse"
       xlink:href="#a" /><radialGradient
       id="ar"
       cx="56.429001"
       cy="115.41"
       r="2"
       gradientTransform="matrix(2.6679225,1.6887739,-1.6887739,2.6679225,1847.3624,601.17956)"
       gradientUnits="userSpaceOnUse"
       xlink:href="#a" /><radialGradient
       id="aq"
       cx="56.429001"
       cy="115.41"
       r="2"
       gradientTransform="matrix(3.2162818,-2.5056348,2.5056348,3.2162818,1520.567,797.00535)"
       gradientUnits="userSpaceOnUse"
       xlink:href="#a" /><radialGradient
       id="ap"
       cx="56.429001"
       cy="115.41"
       r="2"
       gradientTransform="matrix(3.6235727,2.0629786,-2.0629786,3.6235727,2351.2204,432.86016)"
       gradientUnits="userSpaceOnUse"
       xlink:href="#a" /><radialGradient
       id="ao"
       cx="56.429001"
       cy="115.41"
       r="2"
       gradientTransform="matrix(2.8168499,-0.05569846,0.05569846,2.8168499,2025.0733,524.61359)"
       gradientUnits="userSpaceOnUse"
       xlink:href="#a" /><radialGradient
       id="an"
       cx="56.429001"
       cy="115.41"
       r="2"
       gradientTransform="matrix(2.2812614,-2.766749,2.766749,2.2812614,2038.4336,665.0926)"
       gradientUnits="userSpaceOnUse"
       xlink:href="#a" /><radialGradient
       id="al"
       cx="56.429001"
       cy="115.41"
       r="2"
       gradientTransform="matrix(2.6663507,1.7778946,-1.7778946,2.6663507,2571.8609,464.13884)"
       gradientUnits="userSpaceOnUse"
       xlink:href="#a" /><radialGradient
       id="ak"
       cx="56.429001"
       cy="115.41"
       r="2"
       gradientTransform="matrix(1.6968293,-1.9133242,1.9133242,1.6968293,2239.8196,768.94884)"
       gradientUnits="userSpaceOnUse"
       xlink:href="#a" /><radialGradient
       id="aj"
       cx="56.429001"
       cy="115.41"
       r="2"
       gradientTransform="matrix(2.3013017,1.6766711,-1.6766711,2.3013017,2622.1583,483.0593)"
       gradientUnits="userSpaceOnUse"
       xlink:href="#a" /><radialGradient
       id="ai"
       cx="56.429001"
       cy="115.41"
       r="2"
       gradientTransform="matrix(2.5339271,0.84312952,-0.84312952,2.5339271,2486.984,321.23926)"
       gradientUnits="userSpaceOnUse"
       xlink:href="#a" /><radialGradient
       id="ag"
       cx="56.429001"
       cy="115.41"
       r="2"
       gradientTransform="matrix(2.8706838,-0.01118763,0.01118763,2.8706838,1604.3436,997.58581)"
       gradientUnits="userSpaceOnUse"
       xlink:href="#a" /><radialGradient
       id="af"
       cx="56.429001"
       cy="115.41"
       r="2"
       gradientTransform="matrix(2.6692978,-1.8366796,1.8366796,2.6692978,1328.0616,1075.6646)"
       gradientUnits="userSpaceOnUse"
       xlink:href="#a" /><radialGradient
       id="ae"
       cx="56.429001"
       cy="115.41"
       r="2"
       gradientTransform="matrix(2.7775551,-3.2321962,3.2321962,2.7775551,1067.7137,1050.3391)"
       gradientUnits="userSpaceOnUse"
       xlink:href="#a" /><radialGradient
       id="ad"
       cx="56.429001"
       cy="115.41"
       r="2"
       gradientTransform="matrix(2.8958325,2.3810702,-2.3810702,2.8958325,1561.7283,380.91239)"
       gradientUnits="userSpaceOnUse"
       xlink:href="#a" /><radialGradient
       id="ac"
       cx="56.429001"
       cy="115.41"
       r="2"
       gradientTransform="matrix(2.6417914,-0.1205919,0.1205919,2.6417914,972.62023,625.09047)"
       gradientUnits="userSpaceOnUse"
       xlink:href="#a" /><radialGradient
       id="aa"
       cx="56.429001"
       cy="115.41"
       r="2"
       gradientTransform="matrix(3.4518543,0.90541183,-0.90541183,3.4518543,993.30896,515.006)"
       gradientUnits="userSpaceOnUse"
       xlink:href="#a" /><radialGradient
       id="z"
       cx="56.429001"
       cy="115.41"
       r="2"
       gradientTransform="matrix(1.8940305,2.7824669,-2.7824669,1.8940305,1392.4069,610.43349)"
       gradientUnits="userSpaceOnUse"
       xlink:href="#a" /><radialGradient
       id="y"
       cx="56.429001"
       cy="115.41"
       r="2"
       gradientTransform="matrix(3.8675936,1.8236338,-1.8236338,3.8675936,1180.4309,391.22729)"
       gradientUnits="userSpaceOnUse"
       xlink:href="#a" /><radialGradient
       id="x"
       cx="56.429001"
       cy="115.41"
       r="2"
       gradientTransform="matrix(2.6950359,-0.16984994,0.16984994,2.6950359,1324.7019,864.92646)"
       gradientUnits="userSpaceOnUse"
       xlink:href="#a" /><radialGradient
       id="w"
       cx="56.429001"
       cy="115.41"
       r="2"
       gradientTransform="matrix(2.329594,-1.67952,1.67952,2.329594,1133.6897,844.5128)"
       gradientUnits="userSpaceOnUse"
       xlink:href="#a" /><radialGradient
       id="v"
       cx="56.429001"
       cy="115.41"
       r="2"
       gradientTransform="matrix(2.8408197,3.2048863,-3.2048863,2.8408197,1850.9579,762.7992)"
       gradientUnits="userSpaceOnUse"
       xlink:href="#a" /><radialGradient
       id="u"
       cx="56.429001"
       cy="115.41"
       r="2"
       gradientTransform="matrix(2.7791269,3.1176518,-3.1176518,2.7791269,1710.8129,803.43005)"
       gradientUnits="userSpaceOnUse"
       xlink:href="#a" /><radialGradient
       id="t"
       cx="56.429001"
       cy="115.41"
       r="2"
       gradientTransform="matrix(2.6685119,2.827263,-2.827263,2.6685119,1897.3651,642.12477)"
       gradientUnits="userSpaceOnUse"
       xlink:href="#a" /><radialGradient
       id="s"
       cx="56.429001"
       cy="115.41"
       r="2"
       gradientTransform="matrix(3.3750329,2.0307568,-2.0307568,3.3750329,1821.5261,515.32036)"
       gradientUnits="userSpaceOnUse"
       xlink:href="#a" /><radialGradient
       id="r"
       cx="56.429001"
       cy="115.41"
       r="2"
       gradientTransform="matrix(2.9060492,0.39285006,-0.39285006,2.9060492,1840.1518,565.34268)"
       gradientUnits="userSpaceOnUse"
       xlink:href="#a" /><radialGradient
       id="p"
       cx="56.429001"
       cy="115.41"
       r="2"
       gradientTransform="matrix(2.7107538,0.46839437,-0.46839437,2.7107538,1966.6419,810.18876)"
       gradientUnits="userSpaceOnUse"
       xlink:href="#a" /><radialGradient
       id="o"
       cx="56.429001"
       cy="115.41"
       r="2"
       gradientTransform="matrix(2.6496504,-0.68209931,0.68209931,2.6496504,1548.7807,886.40109)"
       gradientUnits="userSpaceOnUse"
       xlink:href="#a" /><radialGradient
       id="n"
       cx="56.429001"
       cy="115.41"
       r="2"
       gradientTransform="matrix(3.4025393,-2.5622194,2.5622194,3.4025393,1090.3868,995.81754)"
       gradientUnits="userSpaceOnUse"
       xlink:href="#a" /><radialGradient
       id="m"
       cx="56.429001"
       cy="115.41"
       r="2"
       gradientTransform="matrix(2.8903312,2.4857909,-2.4857909,2.8903312,2013.0884,822.64522)"
       gradientUnits="userSpaceOnUse"
       xlink:href="#a" /><radialGradient
       id="l"
       cx="56.429001"
       cy="115.41"
       r="2"
       gradientTransform="matrix(2.7046631,-1.4734579,1.4734579,2.7046631,1526.5398,1032.126)"
       gradientUnits="userSpaceOnUse"
       xlink:href="#a" /><radialGradient
       id="k"
       cx="56.429001"
       cy="115.41"
       r="2"
       gradientTransform="matrix(3.3133401,0.17940251,-0.17940251,3.3133401,1552.3762,891.31294)"
       gradientUnits="userSpaceOnUse"
       xlink:href="#a" /><radialGradient
       id="j"
       cx="56.429001"
       cy="115.41"
       r="2"
       gradientTransform="matrix(2.0380264,2.7602653,-2.7602653,2.0380264,1950.3738,948.6048)"
       gradientUnits="userSpaceOnUse"
       xlink:href="#a" /><radialGradient
       id="i"
       cx="56.429001"
       cy="115.41"
       r="2"
       gradientTransform="matrix(2.5203704,3.2247302,-3.2247302,2.5203704,1955.2857,787.06376)"
       gradientUnits="userSpaceOnUse"
       xlink:href="#a" /><radialGradient
       id="h"
       cx="56.429001"
       cy="115.41"
       r="2"
       gradientTransform="matrix(2.6209652,1.4664634,-1.4664634,2.6209652,1593.9894,932.04203)"
       gradientUnits="userSpaceOnUse"
       xlink:href="#a" /><radialGradient
       id="g"
       cx="56.429001"
       cy="115.41"
       r="2"
       gradientTransform="matrix(2.5535745,1.5290011,-1.5290011,2.5535745,1690.6743,1005.936)"
       gradientUnits="userSpaceOnUse"
       xlink:href="#a" /><radialGradient
       id="f"
       cx="56.429001"
       cy="115.41"
       r="2"
       gradientTransform="matrix(3.8214222,-0.40843046,0.40843046,3.8214222,1213.0456,485.14193)"
       gradientUnits="userSpaceOnUse"
       xlink:href="#a" /><radialGradient
       id="e"
       cx="56.429001"
       cy="115.41"
       r="2"
       gradientTransform="matrix(2.3162338,-2.697983,2.697983,2.3162338,769.66243,831.5455)"
       gradientUnits="userSpaceOnUse"
       xlink:href="#a" /><radialGradient
       id="d"
       cx="56.429001"
       cy="115.41"
       r="2"
       gradientTransform="matrix(2.7274542,-1.7483645,1.7483645,2.7274542,885.87689,679.29768)"
       gradientUnits="userSpaceOnUse"
       xlink:href="#a" /><radialGradient
       id="co"
       cx="56.429001"
       cy="115.41"
       r="2"
       gradientTransform="matrix(2.7828599,0.03679961,-0.03679961,2.7828599,1096.7919,479.54242)"
       gradientUnits="userSpaceOnUse"
       xlink:href="#a" /><radialGradient
       id="cn"
       cx="56.429001"
       cy="115.41"
       r="2"
       gradientTransform="matrix(3.8064902,0.13551019,-0.13551019,3.8064902,961.00861,423.15433)"
       gradientUnits="userSpaceOnUse"
       xlink:href="#a" /><radialGradient
       id="cm"
       cx="56.429001"
       cy="115.41"
       r="2"
       gradientTransform="matrix(2.4916852,-0.67386704,0.67386704,2.4916852,1002.3664,547.77789)"
       gradientUnits="userSpaceOnUse"
       xlink:href="#a" /><radialGradient
       id="cl"
       cx="56.429001"
       cy="115.41"
       r="2"
       gradientTransform="matrix(3.3876073,-2.1694676,2.1694676,3.3876073,912.75456,537.08969)"
       gradientUnits="userSpaceOnUse"
       xlink:href="#a" /><radialGradient
       id="ck"
       cx="56.429001"
       cy="115.41"
       r="2"
       gradientTransform="matrix(2.6319677,0.77023761,-0.77023761,2.6319677,1235.8759,451.23049)"
       gradientUnits="userSpaceOnUse"
       xlink:href="#a" /><radialGradient
       id="cj"
       cx="56.429001"
       cy="115.41"
       r="2"
       gradientTransform="matrix(3.1555713,-0.43391316,0.43391316,3.1555713,700.7786,484.41497)"
       gradientUnits="userSpaceOnUse"
       xlink:href="#a" /><radialGradient
       id="ci"
       cx="56.429001"
       cy="115.41"
       r="2"
       gradientTransform="matrix(1.7489932,-2.2073871,2.2073871,1.7489932,939.82869,747.37598)"
       gradientUnits="userSpaceOnUse"
       xlink:href="#a" /><radialGradient
       id="ch"
       cx="56.429001"
       cy="115.41"
       r="2"
       gradientTransform="matrix(3.5463584,-1.9215565,1.9215565,3.5463584,981.77592,433.84253)"
       gradientUnits="userSpaceOnUse"
       xlink:href="#a" /><radialGradient
       id="cf"
       cx="56.429001"
       cy="115.41"
       r="2"
       gradientTransform="matrix(3.648525,2.1604298,-2.1604298,3.648525,1933.6539,398.32)"
       gradientUnits="userSpaceOnUse"
       xlink:href="#a" /><radialGradient
       id="bt"
       cx="56.429001"
       cy="115.41"
       r="2"
       gradientTransform="matrix(3.4029323,0,0,3.4029323,883.83356,-7.2144318)"
       gradientUnits="userSpaceOnUse"
       xlink:href="#a" /><radialGradient
       id="bp"
       cx="56.429001"
       cy="115.41"
       r="2"
       gradientTransform="matrix(2.5869751,1.8177199,-1.8177199,2.5869751,1226.1701,73.475537)"
       gradientUnits="userSpaceOnUse"
       xlink:href="#a" /><radialGradient
       id="bl"
       cx="56.429001"
       cy="115.41"
       r="2"
       gradientTransform="matrix(3.4361364,2.3439366,-2.3439366,3.4361364,1151.5296,41.754785)"
       gradientUnits="userSpaceOnUse"
       xlink:href="#a" /><radialGradient
       id="bj"
       cx="56.429001"
       cy="115.41"
       r="2"
       gradientTransform="matrix(3.1223672,0.28084015,-0.28084015,3.1223672,725.4361,132.26846)"
       gradientUnits="userSpaceOnUse"
       xlink:href="#a" /><radialGradient
       id="bg"
       cx="56.429001"
       cy="115.41"
       r="2"
       gradientTransform="matrix(2.7869858,0.51462474,-0.51462474,2.7869858,651.26711,51.717989)"
       gradientUnits="userSpaceOnUse"
       xlink:href="#a" /><radialGradient
       id="bd"
       cx="56.429001"
       cy="115.41"
       r="2"
       gradientTransform="matrix(2.3290046,1.5453085,-1.5453085,2.3290046,947.11788,8.7903524)"
       gradientUnits="userSpaceOnUse"
       xlink:href="#a" /><radialGradient
       id="ba"
       cx="56.429001"
       cy="115.41"
       r="2"
       gradientTransform="matrix(3.2329821,0.7581741,-0.7581741,3.2329821,708.12673,-148.68368)"
       gradientUnits="userSpaceOnUse"
       xlink:href="#a" /><radialGradient
       id="bu"
       cx="56.429001"
       cy="115.41"
       r="2"
       gradientTransform="matrix(3.4029323,0,0,3.4029323,1918.1521,-97.266394)"
       gradientUnits="userSpaceOnUse"
       xlink:href="#a" /><radialGradient
       id="bo"
       cx="56.429001"
       cy="115.41"
       r="2"
       gradientTransform="matrix(2.5869751,1.8177199,-1.8177199,2.5869751,2260.4493,-16.57446)"
       gradientUnits="userSpaceOnUse"
       xlink:href="#a" /><radialGradient
       id="bm"
       cx="56.429001"
       cy="115.41"
       r="2"
       gradientTransform="matrix(3.4361364,2.3439366,-2.3439366,3.4361364,2185.7892,-48.305036)"
       gradientUnits="userSpaceOnUse"
       xlink:href="#a" /><radialGradient
       id="bi"
       cx="56.429001"
       cy="115.41"
       r="2"
       gradientTransform="matrix(3.1223672,0.28084015,-0.28084015,3.1223672,1759.7546,42.218464)"
       gradientUnits="userSpaceOnUse"
       xlink:href="#a" /><radialGradient
       id="bf"
       cx="56.429001"
       cy="115.41"
       r="2"
       gradientTransform="matrix(2.7869858,0.51462474,-0.51462474,2.7869858,1685.5856,-38.324149)"
       gradientUnits="userSpaceOnUse"
       xlink:href="#a" /><radialGradient
       id="bc"
       cx="56.429001"
       cy="115.41"
       r="2"
       gradientTransform="matrix(2.3290046,1.5453085,-1.5453085,2.3290046,1981.4364,-81.253751)"
       gradientUnits="userSpaceOnUse"
       xlink:href="#a" /><radialGradient
       id="az"
       cx="56.429001"
       cy="115.41"
       r="2"
       gradientTransform="matrix(3.2329821,0.7581741,-0.7581741,3.2329821,1742.4452,-238.72778)"
       gradientUnits="userSpaceOnUse"
       xlink:href="#a" /></defs><text
     x="47.718201"
     y="101.79141"
     fill="#1a1a1a"
     font-family="Audiowide"
     font-size="11.289px"
     stroke-width="3.47"
     xml:space="preserve"
     id="text4"><tspan
       x="47.718201"
       y="101.79141"
       stroke-width="3.47"
       id="tspan4" /></text><path
     d="M 0.33455659,0.91967221 H 2569.49 V 1443.9931 H 0.33455659 Z"
     fill="url(#aw)"
     stroke-width="52.213"
     id="path4"
     style="fill:url(#aw)" /><g
     fill="#ffffff"
     fill-opacity="0.34814"
     id="g70"
     transform="matrix(1.9647415,0,0,1.9647415,49.918738,184.3793)"><path
       d="m 1106.7,149.42 -3.0932,-2.8665 -3.6306,2.1456 2.8666,-3.0932 -2.1457,-3.6306 3.0932,2.8666 3.6306,-2.1456 -2.8666,3.0932 z"
       stroke-width="2.1221"
       id="path5" /><path
       d="m 1067.2,186.79 -6.6322,1.2543 -0.6922,6.7142 -1.2543,-6.6322 -6.7143,-0.69215 6.6323,-1.2543 0.6921,-6.7142 1.2543,6.6322 z"
       stroke-width="3.3964"
       id="path6" /><path
       d="m 1144.9,239.27 -3.0378,2.9444 1.954,3.7523 -2.9443,-3.0379 -3.7524,1.9541 3.038,-2.9444 -1.9542,-3.7523 2.9445,3.0379 z"
       stroke-width="2.1288"
       id="path7" /><path
       d="m 1096.5,208.66 -5.3141,2.3443 0.7286,5.7624 -2.3444,-5.3142 -5.7624,0.72887 5.3142,-2.3443 -0.7285,-5.7624 2.3442,5.3142 z"
       stroke-width="2.9227"
       id="path8" /><path
       d="m 966.06,235.77 -1.9481,4.0692 3.3434,3.0291 -4.0692,-1.948 -3.0291,3.3433 1.9481,-4.0692 -3.3433,-3.0291 4.0691,1.948 z"
       stroke-width="2.2701"
       id="path9" /><path
       d="m 765.26,504.66 -3.9823,2.9479 1.6877,4.6584 -2.9479,-3.9823 -4.6583,1.6877 3.9823,-2.9479 -1.6877,-4.6584 2.9479,3.9823 z"
       stroke-width="2.4931"
       id="path10" /><path
       d="m 665.05,497.98 -4.2039,-0.0276 -1.2275,4.0208 0.0276,-4.2039 -4.0208,-1.2275 4.2039,0.0276 1.2275,-4.0208 -0.0276,4.2039 z"
       stroke-width="2.1154"
       id="path11" /><path
       d="m 559.32,338.35 -4.3459,-1.1348 -2.3287,3.8408 1.1348,-4.3459 -3.8407,-2.3287 4.3459,1.1348 2.3287,-3.8408 -1.1348,4.3459 z"
       stroke-width="2.2601"
       id="path12" /><path
       id="b"
       d="m 480.84,355.53 -5.0914,-0.61299 -2.0416,4.7042 0.61299,-5.0914 -4.7042,-2.0416 5.0914,0.61299 2.0416,-4.7042 -0.61299,5.0914 z"
       fill="#ffffff"
       fill-opacity="0.34814"
       stroke-width="2.5804" /><path
       d="m 521.98,482.16 -5.9953,1.0682 -0.6886,6.0506 -1.0682,-5.9953 -6.0507,-0.68861 5.9953,-1.0682 0.6886,-6.0507 1.0682,5.9953 z"
       stroke-width="3.0643"
       id="path13" /><path
       d="m 476.3,557.46 -4.4447,-3.7541 -4.8672,3.1874 3.7541,-4.4447 -3.1874,-4.8672 4.4447,3.7541 4.8672,-3.1874 -3.7541,4.4447 z"
       stroke-width="2.9275"
       id="path14" /><path
       d="m 774.84,565.76 -5.2766,-1.0092 -2.4742,4.7686 1.0092,-5.2766 -4.7686,-2.4742 5.2766,1.0092 2.4742,-4.7685 -1.0092,5.2766 z"
       stroke-width="2.7032"
       id="path15" /><path
       d="m 1273.6,338.29 -3.5601,3.5717 2.4061,4.4319 -3.5717,-3.5601 -4.4319,2.4061 3.5602,-3.5717 -2.4062,-4.4319 3.5717,3.5601 z"
       stroke-width="2.5376"
       id="path16" /><path
       d="m 1217.7,193.79 -5.0506,1.9472 0.4233,5.3964 -1.9471,-5.0507 -5.3965,0.42356 5.0508,-1.9472 -0.4234,-5.3965 1.9472,5.0507 z"
       stroke-width="2.7238"
       id="path17" /><path
       d="m 1102.5,160.51 -4.2835,3.3949 2.0301,5.0746 -3.3949,-4.2834 -5.0746,2.0301 4.2834,-3.3949 -2.0301,-5.0746 3.3949,4.2834 z"
       stroke-width="2.7502"
       id="path18" /><path
       d="m 647.94,204.3 -4.1843,0.67098 -0.55205,4.2016 -0.67098,-4.1843 -4.2016,-0.55205 4.1843,-0.67098 0.55205,-4.2016 0.67098,4.1843 z"
       stroke-width="2.1324"
       id="path19" /><path
       d="m 663.82,206.94 -4.1558,0.0551 -1.1337,3.9986 -0.0551,-4.1558 -3.9986,-1.1337 4.1558,-0.0551 1.1337,-3.9986 0.0551,4.1558 z"
       stroke-width="2.0914"
       id="path20" /><path
       d="m 690.35,356.83 -3.9848,2.7494 1.4968,4.6041 -2.7494,-3.9848 -4.6041,1.4968 3.9848,-2.7494 -1.4968,-4.6041 2.7494,3.9848 z"
       stroke-width="2.4361"
       id="path21" /><path
       d="m 956.43,292.32 -4.4723,-4.041 -5.15,3.1319 4.041,-4.4723 -3.1319,-5.15 4.4724,4.041 5.15,-3.1319 -4.041,4.4723 z"
       stroke-width="3.033"
       id="path22" /><path
       d="m 923.34,322.91 -3.6654,2.1608 1.0238,4.1298 -2.1607,-3.6654 -4.1299,1.0239 3.6654,-2.1608 -1.0238,-4.1298 2.1607,3.6654 z"
       stroke-width="2.141"
       id="path23" /><path
       d="m 938.55,362.57 -4.9197,1.2303 -0.22547,5.0661 -1.2303,-4.9196 -5.0661,-0.22606 4.9196,-1.2303 0.22646,-5.0661 1.2303,4.9196 z"
       stroke-width="2.5517"
       id="path24" /><path
       d="m 1086.9,305.93 -2.8015,3.7439 2.7879,3.7541 -3.7439,-2.8015 -3.7541,2.7878 2.8015,-3.7439 -2.7878,-3.7541 3.7439,2.8015 z"
       stroke-width="2.3529"
       id="path25" /><path
       d="m 921.13,363.59 -3.7681,-1.5773 -2.5878,3.1607 1.5773,-3.7682 -3.1608,-2.5878 3.7682,1.5773 2.5877,-3.1607 -1.5773,3.7682 z"
       stroke-width="2.0555"
       id="path26" /><path
       d="m 831.16,455.61 -2.2257,4.7046 3.8729,3.4767 -4.7046,-2.2258 -3.4767,3.8729 2.2258,-4.7046 -3.8729,-3.4767 4.7045,2.2257 z"
       stroke-width="2.6188"
       id="path27" /><path
       d="m 811.8,468.43 -3.9536,2.6124 1.3744,4.5351 -2.6124,-3.9536 -4.5351,1.3744 3.9536,-2.6124 -1.3744,-4.5351 2.6124,3.9536 z"
       stroke-width="2.3845"
       id="path28" /><path
       d="m 798.8,381.63 -4.4597,1.0814 -0.23728,4.5827 -1.0814,-4.4596 -4.5828,-0.23738 4.4597,-1.0814 0.23728,-4.5827 1.0814,4.4596 z"
       stroke-width="2.3091"
       id="path29" /><path
       d="m 946.85,268.49 -6.453,-1.2917 -3.0809,5.8154 1.2916,-6.4531 -5.8153,-3.0809 6.453,1.2917 3.0809,-5.8154 -1.2916,6.4531 z"
       stroke-width="3.3115"
       id="path30" /><path
       d="m 747.89,204.3 -5.2346,-2.3995 -3.7946,4.3312 2.3995,-5.2346 -4.3312,-3.7946 5.2346,2.3995 3.7946,-4.3312 -2.3995,5.2346 z"
       stroke-width="2.8975"
       id="path31" /><path
       d="m 667.12,189.38 -5.2184,-2.9203 -4.2891,4.167 2.9203,-5.2184 -4.167,-4.2891 5.2184,2.9203 4.2891,-4.167 -2.9203,5.2184 z"
       stroke-width="3.0091"
       id="path32" /><path
       d="m 685.01,462.62 -4.6822,-2.5392 -3.7708,3.7619 2.5393,-4.6822 -3.7619,-3.7708 4.6822,2.5392 3.7708,-3.7619 -2.5393,4.6822 z"
       stroke-width="2.6802"
       id="path33" /><path
       d="m 691.72,571.73 -4.8908,0.0994 -1.3017,4.7155 -0.0993,-4.8908 -4.7155,-1.3017 4.8908,-0.0994 1.3017,-4.7154 0.0993,4.8908 z"
       stroke-width="2.4615"
       id="path34" /><path
       d="m 841.41,307.86 -4.2948,2.176 0.85854,4.7374 -2.176,-4.2948 -4.7373,0.85874 4.2948,-2.176 -0.85855,-4.7374 2.176,4.2948 z"
       stroke-width="2.4227"
       id="path35" /><path
       d="m 1101.2,379.39 -5.3317,1.0613 -0.5061,5.4128 -1.0613,-5.3317 -5.4128,-0.50568 5.3317,-1.0613 0.5061,-5.4128 1.0614,5.3317 z"
       stroke-width="2.7355"
       id="path36" /><path
       d="m 942.7,185.2 -3.2722,5.759 4.5845,4.7807 -5.759,-3.2722 -4.7807,4.5845 3.2722,-5.759 -4.5845,-4.7807 5.7589,3.2722 z"
       stroke-width="3.333"
       id="path37" /><path
       d="m 1026.1,137.71 -4.0729,-2.1591 -3.2324,3.2865 2.1591,-4.0728 -3.2866,-3.2324 4.0729,2.1591 3.2324,-3.2865 -2.1591,4.0728 z"
       stroke-width="2.3196"
       id="path38" /><path
       d="m 1038.5,209.29 -5.5874,-1.1321 -2.6808,5.0314 1.132,-5.5875 -5.0313,-2.6808 5.5874,1.1321 2.6808,-5.0314 -1.132,5.5875 z"
       stroke-width="2.8687"
       id="path39" /><path
       d="m 856.81,192.34 -2.2773,4.4759 3.6392,3.4607 -4.4759,-2.2772 -3.4608,3.6391 2.2772,-4.4759 -3.6391,-3.4607 4.476,2.2772 z"
       stroke-width="2.527"
       id="path40" /><path
       d="m 838.83,181.17 -2.6945,3.8713 2.9405,3.6879 -3.8713,-2.6944 -3.6879,2.9405 2.6945,-3.8713 -2.9405,-3.6879 3.8713,2.6944 z"
       stroke-width="2.3734"
       id="path41" /><path
       d="m 814.73,133.08 -2.3274,4.466 3.6152,3.506 -4.466,-2.3274 -3.5059,3.6153 2.3274,-4.466 -3.6153,-3.506 4.466,2.3274 z"
       stroke-width="2.5341"
       id="path42" /><path
       d="m 1024.9,312.82 -5.9448,-1.2138 -2.8612,5.3506 1.2138,-5.9449 -5.3506,-2.8611 5.9449,1.2138 2.8611,-5.3506 -1.2138,5.9449 z"
       stroke-width="3.0531"
       id="path43" /><path
       d="m 885.07,422.66 -4.7232,-1.9579 -3.2252,3.9672 1.9579,-4.7232 -3.9672,-3.2253 4.7231,1.9579 3.2253,-3.9672 -1.9579,4.7232 z"
       stroke-width="2.5727"
       id="path44" /><path
       d="m 1051.5,400.87 -5.5896,-1.5509 -3.0828,4.9138 1.5509,-5.5896 -4.9138,-3.0828 5.5896,1.5509 3.0828,-4.9138 -1.551,5.5896 z"
       stroke-width="2.9189"
       id="path45" /><path
       d="m 887.63,573.33 -3.8466,2.6953 1.4844,4.4562 -2.6954,-3.8466 -4.4562,1.4844 3.8466,-2.6954 -1.4845,-4.4562 2.6954,3.8466 z"
       stroke-width="2.3634"
       id="path46" /><path
       d="m 824.86,382 -2.8522,3.2464 2.2965,3.6606 -3.2464,-2.8522 -3.6605,2.2965 2.8522,-3.2464 -2.2966,-3.6606 3.2464,2.8522 z"
       stroke-width="2.1745"
       id="path47" /><path
       d="m 748.3,476.22 -4.4749,5.1539 3.6611,5.7605 -5.1539,-4.4749 -5.7605,3.6611 4.4749,-5.1539 -3.6611,-5.7605 5.1539,4.4749 z"
       stroke-width="3.4345"
       id="path48" /><path
       d="m 805.99,223.27 -4.6065,1.6431 0.25895,4.8839 -1.6432,-4.6065 -4.8838,0.25904 4.6065,-1.6431 -0.25894,-4.8839 1.643,4.6065 z"
       stroke-width="2.461"
       id="path49" /><path
       d="m 696.11,398.14 -4.1854,-0.44728 -1.624,3.8833 0.44729,-4.1854 -3.8833,-1.624 4.1854,0.44729 1.624,-3.8833 -0.44729,4.1854 z"
       stroke-width="2.118"
       id="path50" /><path
       d="m 688.65,420.77 -4.558,-1.0868 -2.3433,4.0577 1.0868,-4.558 -4.0577,-2.3433 4.558,1.0868 2.3433,-4.0577 -1.0868,4.558 z"
       stroke-width="2.3578"
       id="path51" /><path
       d="m 770.36,338.28 -4.0001,3.3085 2.0282,4.7784 -3.3085,-4.0001 -4.7784,2.0282 4.0001,-3.3085 -2.0282,-4.7784 3.3085,4.0001 z"
       stroke-width="2.6121"
       id="path52" /><path
       d="m 871.88,357.33 -6.2847,-2.4438 -4.137,5.3249 2.4438,-6.2847 -5.3249,-4.137 6.2847,2.4438 4.137,-5.325 -2.4438,6.2847 z"
       stroke-width="3.3931"
       id="path53" /><path
       d="m 696.09,211.91 -3.7356,2.5744 1.4002,4.3153 -2.5744,-3.7356 -4.3153,1.4002 3.7356,-2.5744 -1.4002,-4.3153 2.5744,3.7356 z"
       stroke-width="2.2829"
       id="path54" /><path
       d="m 863.27,221.97 -5.551,-1.4321 -2.9578,4.9107 1.4322,-5.551 -4.9107,-2.9578 5.551,1.4321 2.9578,-4.9107 -1.4322,5.551 z"
       stroke-width="2.8846"
       id="path55" /><path
       id="c"
       d="m 868.51,235.85 -3.5451,5.6833 4.4341,5.0206 -5.6833,-3.5451 -5.0207,4.434 3.5451,-5.6833 -4.434,-5.0206 5.6833,3.5451 z"
       fill="#ffffff"
       fill-opacity="0.34814"
       stroke-width="3.3705" /><path
       d="m 1124.8,248.83 -5.5491,2.6888 0.992,6.0858 -2.6888,-5.549 -6.0859,0.99193 5.5491,-2.6888 -0.992,-6.0858 2.6889,5.549 z"
       stroke-width="3.1027"
       id="path56" /><path
       d="m 1159.7,350.04 -4.3656,-2.2161 -3.3707,3.5509 2.2161,-4.3657 -3.551,-3.3707 4.3658,2.2161 3.3706,-3.5509 -2.2161,4.3657 z"
       stroke-width="2.4636"
       id="path57" /><path
       d="m 1105.3,291.49 -4.7879,-0.72326 -2.0606,4.3819 0.7237,-4.7879 -4.382,-2.0606 4.7879,0.72317 2.0606,-4.3819 -0.7237,4.7879 z"
       stroke-width="2.4365"
       id="path58" /><path
       d="m 1078.7,342.27 -5.1624,2.2913 0.7217,5.6018 -2.2913,-5.1624 -5.6017,0.7214 5.1623,-2.2913 -0.7217,-5.6018 2.2913,5.1624 z"
       stroke-width="2.842"
       id="path59" /><path
       d="m 1012.7,483.53 -4.1047,0.84791 -0.3603,4.1758 -0.8477,-4.1047 -4.1759,-0.35976 4.1047,-0.84781 0.3593,-4.1759 0.8478,4.1047 z"
       stroke-width="2.109"
       id="path60" /><path
       d="m 1112.4,349.03 -5.024,-0.22635 -1.6519,4.7501 0.2264,-5.024 -4.7501,-1.6519 5.024,0.22645 1.6519,-4.7501 -0.2264,5.0241 z"
       stroke-width="2.5306"
       id="path61" /><path
       d="m 1236,248.07 -6.0249,-1.7411 -3.3893,5.2766 1.7412,-6.0249 -5.2767,-3.3893 6.0248,1.7411 3.3893,-5.2766 -1.741,6.0249 z"
       stroke-width="3.1557"
       id="path62" /><path
       d="m 1253.7,147.83 -6.19,-2.7524 -4.4055,5.146 2.7522,-6.1899 -5.1459,-4.4056 6.1899,2.7524 4.4056,-5.146 -2.7523,6.1899 z"
       stroke-width="3.4088"
       id="path63" /><path
       d="m 634.52,280.97 -2.0129,4.0417 3.2984,3.0834 -4.0417,-2.0129 -3.0834,3.2984 2.013,-4.0417 -3.2984,-3.0834 4.0417,2.0129 z"
       stroke-width="2.272"
       id="path64" /><path
       d="m 607.08,423.22 -6.1818,0.58661 -1.2034,6.0919 -0.58661,-6.1818 -6.0918,-1.2034 6.1818,-0.58661 1.2034,-6.0919 0.58661,6.1818 z"
       stroke-width="3.1246"
       id="path65" /><path
       d="m 435.04,297.17 -5.3344,3.3802 1.7158,6.0776 -3.3802,-5.3344 -6.0776,1.7158 5.3344,-3.3802 -1.7159,-6.0776 3.3802,5.3344 z"
       stroke-width="3.1777"
       id="path66" /><path
       d="m 435.36,399.51 -5.4339,1.157 -0.44316,5.538 -1.157,-5.4339 -5.538,-0.44325 5.4339,-1.157 0.44325,-5.538 1.157,5.4339 z"
       stroke-width="2.7956"
       id="path67" /><path
       d="m 607.49,587.27 -4.5368,0.38132 -0.93032,4.4567 -0.38132,-4.5368 -4.4567,-0.93032 4.5368,-0.38132 0.93032,-4.4567 0.38132,4.5368 z"
       stroke-width="2.2909"
       id="path68" /><path
       d="m 497.03,636.16 -3.7933,-3.4227 -4.3635,2.6577 3.4227,-3.7933 -2.6577,-4.3636 3.7933,3.4227 4.3635,-2.6577 -3.4227,3.7933 z"
       stroke-width="2.5709"
       id="path69" /><path
       d="m 740.95,281.98 -5.8502,-2.9443 -4.4926,4.7656 2.9443,-5.8502 -4.7656,-4.4926 5.8502,2.9443 4.4926,-4.7656 -2.9443,5.8502 z"
       stroke-width="3.2956"
       id="path70" /></g><path
     d="m 1173.7508,1178.5581 a 6.8058646,6.8058646 0 0 1 -6.8058,6.8059 6.8058646,6.8058646 0 0 1 -6.8059,-6.8059 6.8058646,6.8058646 0 0 1 6.8059,-6.8058 6.8058646,6.8058646 0 0 1 6.8058,6.8058 z"
     fill="url(#bv)"
     stroke-width="11.8083"
     id="path71"
     style="fill:url(#bv)" /><path
     d="m 991.85505,973.49808 a 6.639058,6.639058 0 0 1 0.45602,9.3781 6.639058,6.639058 0 0 1 -9.37811,0.45596 6.639058,6.639058 0 0 1 -0.45602,-9.37811 6.639058,6.639058 0 0 1 9.37811,-0.45597 z"
     fill="url(#am)"
     stroke-width="11.5191"
     id="path72"
     style="fill:url(#am)" /><path
     d="m 917.58782,817.04571 a 5.2258194,5.2258194 0 0 1 -7.19036,1.70732 5.2258194,5.2258194 0 0 1 -1.70736,-7.19036 5.2258194,5.2258194 0 0 1 7.19036,-1.70732 5.2258194,5.2258194 0 0 1 1.70736,7.19036 z"
     fill="url(#ah)"
     stroke-width="9.06669"
     id="path73"
     style="fill:url(#ah)" /><path
     d="m 971.99151,709.98695 a 6.87856,6.87856 0 0 1 -6.14315,7.54244 6.87856,6.87856 0 0 1 -7.54245,-6.14315 6.87856,6.87856 0 0 1 6.14316,-7.54245 6.87856,6.87856 0 0 1 7.54244,6.14316 z"
     fill="url(#ab)"
     stroke-width="11.9344"
     id="path74"
     style="fill:url(#ab)" /><path
     d="m 1001.8163,867.55921 a 5.3780869,5.3780869 0 0 1 -5.17986,5.56906 5.3780869,5.3780869 0 0 1 -5.56906,-5.17984 5.3780869,5.3780869 0 0 1 5.17985,-5.56906 5.3780869,5.3780869 0 0 1 5.56907,5.17984 z"
     fill="url(#q)"
     stroke-width="9.33095"
     id="path75"
     style="fill:url(#q)" /><path
     d="m 1295.997,742.34624 a 5.6863548,5.6863548 0 0 1 -0.041,8.04169 5.6863548,5.6863548 0 0 1 -8.0417,-0.0407 5.6863548,5.6863548 0 0 1 0.041,-8.04169 5.6863548,5.6863548 0 0 1 8.0417,0.0407 z"
     fill="url(#cp)"
     stroke-width="9.86615"
     id="path76"
     style="fill:url(#cp)" /><path
     d="m 1264.1093,660.98629 a 5.9881391,5.9881391 0 0 1 -6.2988,5.66062 5.9881391,5.9881391 0 0 1 -5.6604,-6.29896 5.9881391,5.9881391 0 0 1 6.2988,-5.66042 5.9881391,5.9881391 0 0 1 5.6604,6.29876 z"
     fill="url(#cg)"
     stroke-width="10.3896"
     id="path77"
     style="fill:url(#cg)" /><path
     d="m 1323.1891,795.74791 a 5.5427322,5.5427322 0 0 1 -7.6356,1.77289 5.5427322,5.5427322 0 0 1 -1.7728,-7.63558 5.5427322,5.5427322 0 0 1 7.6356,-1.77288 5.5427322,5.5427322 0 0 1 1.7728,7.63557 z"
     fill="url(#ce)"
     stroke-width="9.61682"
     id="path78"
     style="fill:url(#ce)" /><path
     d="m 1515.7337,625.91566 a 6.6913201,6.6913201 0 0 1 -5.3908,7.77723 6.6913201,6.6913201 0 0 1 -7.7773,-5.39086 6.6913201,6.6913201 0 0 1 5.3909,-7.77723 6.6913201,6.6913201 0 0 1 7.7772,5.39086 z"
     fill="url(#cd)"
     stroke-width="11.6095"
     id="path79"
     style="fill:url(#cd)" /><path
     d="m 1771.268,676.9007 a 6.6932849,6.6932849 0 0 1 0.2747,9.4618 6.6932849,6.6932849 0 0 1 -9.4618,0.27509 6.6932849,6.6932849 0 0 1 -0.2747,-9.46181 6.6932849,6.6932849 0 0 1 9.4618,-0.27508 z"
     fill="url(#cc)"
     stroke-width="11.6132"
     id="path80"
     style="fill:url(#cc)" /><path
     d="m 2021.7332,625.6013 a 7.1740571,7.1740571 0 0 1 -2.6217,9.80111 7.1740571,7.1740571 0 0 1 -9.8011,-2.62175 7.1740571,7.1740571 0 0 1 2.6217,-9.80111 7.1740571,7.1740571 0 0 1 9.8011,2.62175 z"
     fill="url(#cb)"
     stroke-width="12.4472"
     id="path81"
     style="fill:url(#cb)" /><path
     d="m 2193.4517,614.61839 a 5.8382294,5.8382294 0 0 1 -7.7348,2.88857 5.8382294,5.8382294 0 0 1 -2.8888,-7.7348 5.8382294,5.8382294 0 0 1 7.7348,-2.88856 5.8382294,5.8382294 0 0 1 2.8888,7.73479 z"
     fill="url(#ca)"
     stroke-width="10.1294"
     id="path82"
     style="fill:url(#ca)" /><path
     d="m 2064.1717,911.60872 a 7.5990307,7.5990307 0 0 1 -10.357,2.86793 7.5990307,7.5990307 0 0 1 -2.8677,-10.35674 7.5990307,7.5990307 0 0 1 10.3567,-2.86774 7.5990307,7.5990307 0 0 1 2.868,10.35675 z"
     fill="url(#bz)"
     stroke-width="13.1842"
     id="path83"
     style="fill:url(#bz)" /><path
     d="m 2264.3788,862.23477 a 6.0154491,6.0154491 0 0 1 -5.115,6.79761 6.0154491,6.0154491 0 0 1 -6.7976,-5.11501 6.0154491,6.0154491 0 0 1 5.115,-6.79761 6.0154491,6.0154491 0 0 1 6.7976,5.11501 z"
     fill="url(#by)"
     stroke-width="10.4367"
     id="path84"
     style="fill:url(#by)" /><path
     d="m 2312.515,798.30208 a 8.2322669,8.2322669 0 0 1 0.1749,11.64109 8.2322669,8.2322669 0 0 1 -11.6411,0.17015 8.2322669,8.2322669 0 0 1 -0.1749,-11.6411 8.2322669,8.2322669 0 0 1 11.6413,-0.17014 z"
     fill="url(#bx)"
     stroke-width="14.2833"
     id="path85"
     style="fill:url(#bx)" /><path
     d="m 2307.9961,991.71123 a 7.4577658,7.4577658 0 0 1 -3.3073,10.01507 7.4577658,7.4577658 0 0 1 -10.0148,-3.30744 7.4577658,7.4577658 0 0 1 3.3072,-10.01488 7.4577658,7.4577658 0 0 1 10.0149,3.30745 z"
     fill="url(#bw)"
     stroke-width="12.9394"
     id="path86"
     style="fill:url(#bw)" /><path
     d="m 1819.4828,1335.8553 a 8.071551,8.071551 0 0 1 -11.3726,-0.9848 8.071551,8.071551 0 0 1 0.9848,-11.3723 8.071551,8.071551 0 0 1 11.3723,0.9848 8.071551,8.071551 0 0 1 -0.9847,11.3723 z"
     fill="url(#bs)"
     stroke-width="14.0043"
     id="path87"
     style="fill:url(#bs)" /><path
     d="m 1524.1821,1366.073 a 7.9515053,7.9515053 0 0 1 -10.1086,4.9266 7.9515053,7.9515053 0 0 1 -4.9266,-10.1086 7.9515053,7.9515053 0 0 1 10.1086,-4.9266 7.9515053,7.9515053 0 0 1 4.9266,10.1086 z"
     fill="url(#br)"
     stroke-width="13.796"
     id="path88"
     style="fill:url(#br)" /><path
     d="m 1258.6276,1271.2939 a 6.323324,6.323324 0 0 1 -8.8093,1.5386 6.323324,6.323324 0 0 1 -1.5384,-8.8094 6.323324,6.323324 0 0 1 8.8094,-1.5385 6.323324,6.323324 0 0 1 1.5383,8.8093 z"
     fill="url(#bq)"
     stroke-width="10.9711"
     id="path89"
     style="fill:url(#bq)" /><path
     d="m 1172.8667,1368.3324 a 8.318912,8.318912 0 0 1 -11.5602,2.1844 8.318912,8.318912 0 0 1 -2.1844,-11.5601 8.318912,8.318912 0 0 1 11.5602,-2.1844 8.318912,8.318912 0 0 1 2.1844,11.5601 z"
     fill="url(#bn)"
     stroke-width="14.4336"
     id="path90"
     style="fill:url(#bn)" /><path
     d="m 966.54918,1302.0814 a 6.2700795,6.2700795 0 0 1 -6.80646,5.6832 6.2700795,6.2700795 0 0 1 -5.68321,-6.8065 6.2700795,6.2700795 0 0 1 6.80646,-5.6832 6.2700795,6.2700795 0 0 1 5.68321,6.8065 z"
     fill="url(#bk)"
     stroke-width="10.8786"
     id="path91"
     style="fill:url(#bk)" /><path
     d="m 845.81581,1196.4765 a 5.6682792,5.6682792 0 0 1 -6.6033,4.5449 5.6682792,5.6682792 0 0 1 -4.54484,-6.6033 5.6682792,5.6682792 0 0 1 6.6033,-4.5449 5.6682792,5.6682792 0 0 1 4.54484,6.6033 z"
     fill="url(#bh)"
     stroke-width="9.83471"
     id="path92"
     style="fill:url(#bh)" /><path
     d="m 995.94171,1160.9344 a 5.590279,5.590279 0 0 1 -7.74874,1.5677 5.590279,5.590279 0 0 1 -1.56767,-7.7488 5.590279,5.590279 0 0 1 7.74874,-1.5676 5.590279,5.590279 0 0 1 1.56767,7.7487 z"
     fill="url(#be)"
     stroke-width="9.69914"
     id="path93"
     style="fill:url(#be)" /><path
     d="m 900.61245,1061.7739 a 6.6414157,6.6414157 0 0 1 -7.98235,4.9496 6.6414157,6.6414157 0 0 1 -4.94957,-7.9824 6.6414157,6.6414157 0 0 1 7.98235,-4.9495 6.6414157,6.6414157 0 0 1 4.94957,7.9823 z"
     fill="url(#bb)"
     stroke-width="11.5228"
     id="path94"
     style="fill:url(#bb)" /><path
     d="m 957.49172,925.65662 a 5.624662,5.624662 0 0 1 -7.0935,3.59941 5.624662,5.624662 0 0 1 -3.59941,-7.09351 5.624662,5.624662 0 0 1 7.0935,-3.5994 5.624662,5.624662 0 0 1 3.59941,7.0935 z"
     fill="url(#ay)"
     stroke-width="9.75887"
     id="path95"
     style="fill:url(#ay)" /><path
     d="m 1158.7402,672.91227 a 5.1045949,5.1045949 0 0 1 -5.2618,4.94231 5.1045949,5.1045949 0 0 1 -4.9423,-5.26177 5.1045949,5.1045949 0 0 1 5.2618,-4.94231 5.1045949,5.1045949 0 0 1 4.9423,5.26177 z"
     fill="url(#ax)"
     stroke-width="8.85647"
     id="path96"
     style="fill:url(#ax)" /><path
     d="m 1314.4656,944.47884 a 6.916676,6.916676 0 0 1 -9.6233,-1.75335 6.916676,6.916676 0 0 1 1.7535,-9.6233 6.916676,6.916676 0 0 1 9.6233,1.75355 6.916676,6.916676 0 0 1 -1.7535,9.6233 z"
     fill="url(#av)"
     stroke-width="12.0006"
     id="path97"
     style="fill:url(#av)" /><path
     d="m 1388.0059,953.88996 a 7.5098314,7.5098314 0 0 1 -10.6155,0.33117 7.5098314,7.5098314 0 0 1 -0.3311,-10.6155 7.5098314,7.5098314 0 0 1 10.6155,-0.33117 7.5098314,7.5098314 0 0 1 0.3311,10.6155 z"
     fill="url(#au)"
     stroke-width="13.0298"
     id="path98"
     style="fill:url(#au)" /><path
     d="m 1446.7124,1005.0322 a 5.9386277,5.9386277 0 0 1 -6.7702,4.97 5.9386277,5.9386277 0 0 1 -4.97,-6.7701 5.9386277,5.9386277 0 0 1 6.7701,-4.97003 5.9386277,5.9386277 0 0 1 4.9701,6.77013 z"
     fill="url(#at)"
     stroke-width="10.3035"
     id="path99"
     style="fill:url(#at)" /><path
     d="m 1604.5597,864.45492 a 7.9204624,7.9204624 0 0 1 -11.1796,-0.69774 7.9204624,7.9204624 0 0 1 0.6981,-11.17957 7.9204624,7.9204624 0 0 1 11.1794,0.69774 7.9204624,7.9204624 0 0 1 -0.6979,11.17938 z"
     fill="url(#as)"
     stroke-width="13.7422"
     id="path100"
     style="fill:url(#as)" /><path
     d="m 1808.3427,1007.7632 a 6.3150721,6.3150721 0 0 1 -8.7137,1.9583 6.3150721,6.3150721 0 0 1 -1.9584,-8.7134 6.3150721,6.3150721 0 0 1 8.7136,-1.95836 6.3150721,6.3150721 0 0 1 1.9585,8.71346 z"
     fill="url(#ar)"
     stroke-width="10.9568"
     id="path101"
     style="fill:url(#ar)" /><path
     d="m 1997.6848,1021.8111 a 8.1544631,8.1544631 0 0 1 -1.4217,11.444 8.1544631,8.1544631 0 0 1 -11.444,-1.4212 8.1544631,8.1544631 0 0 1 1.4217,-11.444 8.1544631,8.1544631 0 0 1 11.444,1.4212 z"
     fill="url(#aq)"
     stroke-width="14.1479"
     id="path102"
     style="fill:url(#aq)" /><path
     d="m 2324.6964,971.61192 a 8.3393453,8.3393453 0 0 1 -11.3731,3.12159 8.3393453,8.3393453 0 0 1 -3.1216,-11.37311 8.3393453,8.3393453 0 0 1 11.3731,-3.12138 8.3393453,8.3393453 0 0 1 3.1216,11.3731 z"
     fill="url(#ap)"
     stroke-width="14.4689"
     id="path103"
     style="fill:url(#ap)" /><path
     d="m 2196.0058,846.47754 a 5.6348786,5.6348786 0 0 1 -5.5223,5.7453 5.6348786,5.6348786 0 0 1 -5.7453,-5.5225 5.6348786,5.6348786 0 0 1 5.5225,-5.7451 5.6348786,5.6348786 0 0 1 5.7451,5.5223 z"
     fill="url(#ao)"
     stroke-width="9.77655"
     id="path104"
     style="fill:url(#ao)" /><path
     d="m 2490.9135,766.72868 a 7.1720924,7.1720924 0 0 1 0.9712,10.09622 7.1720924,7.1720924 0 0 1 -10.0964,0.97107 7.1720924,7.1720924 0 0 1 -0.971,-10.09622 7.1720924,7.1720924 0 0 1 10.0962,-0.97109 z"
     fill="url(#an)"
     stroke-width="12.4435"
     id="path105"
     style="fill:url(#an)" /><path
     d="m 2522.5459,875.75219 a 6.4095762,6.4095762 0 0 1 -8.8887,1.77695 6.4095762,6.4095762 0 0 1 -1.7758,-8.88849 6.4095762,6.4095762 0 0 1 8.8883,-1.77697 6.4095762,6.4095762 0 0 1 1.7779,8.88849 z"
     fill="url(#al)"
     stroke-width="11.1206"
     id="path106"
     style="fill:url(#al)" /><path
     d="m 2559.8759,852.98083 a 5.1146151,5.1146151 0 0 1 0.4333,7.22043 5.1146151,5.1146151 0 0 1 -7.2203,0.43293 5.1146151,5.1146151 0 0 1 -0.4332,-7.22043 5.1146151,5.1146151 0 0 1 7.2204,-0.43293 z"
     fill="url(#ak)"
     stroke-width="8.87415"
     id="path107"
     style="fill:url(#ak)" /><path
     d="m 2563.0195,846.63472 a 5.6948032,5.6948032 0 0 1 -7.9562,1.24944 5.6948032,5.6948032 0 0 1 -1.2496,-7.95603 5.6948032,5.6948032 0 0 1 7.9559,-1.24944 5.6948032,5.6948032 0 0 1 1.2497,7.95603 z"
     fill="url(#aj)"
     stroke-width="9.88049"
     id="path108"
     style="fill:url(#aj)" /><path
     d="m 2537.8708,662.95103 a 5.3411498,5.3411498 0 0 1 -6.7542,3.38172 5.3411498,5.3411498 0 0 1 -3.3817,-6.75419 5.3411498,5.3411498 0 0 1 6.7542,-3.38172 5.3411498,5.3411498 0 0 1 3.3817,6.75419 z"
     fill="url(#ai)"
     stroke-width="9.2669"
     id="path109"
     style="fill:url(#ai)" /><path
     d="m 1773.3703,1328.2517 a 5.7415641,5.7415641 0 0 1 -5.7192,5.764 5.7415641,5.7415641 0 0 1 -5.764,-5.7192 5.7415641,5.7415641 0 0 1 5.7192,-5.7639 5.7415641,5.7415641 0 0 1 5.764,5.7191 z"
     fill="url(#ag)"
     stroke-width="9.96163"
     id="path110"
     style="fill:url(#ag)" /><path
     d="m 1695.9988,1276.4218 a 6.4803069,6.4803069 0 0 1 -1.6656,9.0121 6.4803069,6.4803069 0 0 1 -9.012,-1.6653 6.4803069,6.4803069 0 0 1 1.6655,-9.0119 6.4803069,6.4803069 0 0 1 9.0121,1.6653 z"
     fill="url(#af)"
     stroke-width="11.2434"
     id="path111"
     style="fill:url(#af)" /><path
     d="m 1603.0272,1182.0554 a 8.5232451,8.5232451 0 0 1 0.9093,12.0192 8.5232451,8.5232451 0 0 1 -12.0193,0.9093 8.5232451,8.5232451 0 0 1 -0.9093,-12.0193 8.5232451,8.5232451 0 0 1 12.0193,-0.9092 z"
     fill="url(#ae)"
     stroke-width="14.7878"
     id="path112"
     style="fill:url(#ae)" /><path
     d="m 1456.1038,854.25791 a 7.498043,7.498043 0 0 1 -10.5538,1.02931 7.498043,7.498043 0 0 1 -1.0293,-10.5538 7.498043,7.498043 0 0 1 10.5538,-1.02929 7.498043,7.498043 0 0 1 1.0293,10.5538 z"
     fill="url(#ad)"
     stroke-width="13.0093"
     id="path113"
     style="fill:url(#ad)" /><path
     d="m 1140.9003,922.92563 a 5.2890841,5.2890841 0 0 1 -5.0423,5.52466 5.2890841,5.2890841 0 0 1 -5.5246,-5.04232 5.2890841,5.2890841 0 0 1 5.0423,-5.52465 5.2890841,5.2890841 0 0 1 5.5246,5.04231 z"
     fill="url(#ac)"
     stroke-width="9.17652"
     id="path114"
     style="fill:url(#ac)" /><path
     d="m 1090.5047,966.30712 a 7.1373164,7.1373164 0 0 1 -8.7146,5.09301 7.1373164,7.1373164 0 0 1 -5.093,-8.71462 7.1373164,7.1373164 0 0 1 8.7146,-5.093 7.1373164,7.1373164 0 0 1 5.093,8.71461 z"
     fill="url(#aa)"
     stroke-width="12.3834"
     id="path115"
     style="fill:url(#aa)" /><path
     d="m 1181.9438,991.59335 a 6.7319903,6.7319903 0 0 1 -9.3532,-1.77696 6.7319903,6.7319903 0 0 1 1.7769,-9.35295 6.7319903,6.7319903 0 0 1 9.353,1.77695 6.7319903,6.7319903 0 0 1 -1.7769,9.35296 z"
     fill="url(#z)"
     stroke-width="11.68"
     id="path116"
     style="fill:url(#z)" /><path
     d="m 1195.9327,944.14484 a 8.5517339,8.5517339 0 0 1 -11.3823,4.08784 8.5517339,8.5517339 0 0 1 -4.0878,-11.38234 8.5517339,8.5517339 0 0 1 11.3823,-4.08784 8.5517339,8.5517339 0 0 1 4.0878,11.38234 z"
     fill="url(#y)"
     stroke-width="14.8375"
     id="path117"
     style="fill:url(#y)" /><path
     d="m 1501.7841,1166.0427 a 5.4008779,5.4008779 0 0 1 -5.0504,5.7298 5.4008779,5.4008779 0 0 1 -5.7298,-5.0505 5.4008779,5.4008779 0 0 1 5.0504,-5.7298 5.4008779,5.4008779 0 0 1 5.7298,5.0503 z"
     fill="url(#x)"
     stroke-width="9.37044"
     id="path118"
     style="fill:url(#x)" /><path
     d="m 1463.6484,1015.2488 a 5.7439218,5.7439218 0 0 1 -1.3002,8.0185 5.7439218,5.7439218 0 0 1 -8.0185,-1.3003 5.7439218,5.7439218 0 0 1 1.3002,-8.0183 5.7439218,5.7439218 0 0 1 8.0183,1.3003 z"
     fill="url(#w)"
     stroke-width="9.96576"
     id="path119"
     style="fill:url(#w)" /><path
     d="m 1647.0767,1277.915 a 8.5652906,8.5652906 0 0 1 -12.0912,-0.7279 8.5652906,8.5652906 0 0 1 0.7273,-12.0912 8.5652906,8.5652906 0 0 1 12.0912,0.7279 8.5652906,8.5652906 0 0 1 -0.7273,12.0912 z"
     fill="url(#v)"
     stroke-width="14.8609"
     id="path120"
     style="fill:url(#v)" /><path
     d="m 1513.3957,1306.3449 a 8.3530985,8.3530985 0 0 1 -11.7936,-0.6767 8.3530985,8.3530985 0 0 1 0.6767,-11.7936 8.3530985,8.3530985 0 0 1 11.7935,0.6767 8.3530985,8.3530985 0 0 1 -0.6766,11.7936 z"
     fill="url(#u)"
     stroke-width="14.4925"
     id="path121"
     style="fill:url(#u)" /><path
     d="m 1726.9827,1115.3131 a 7.7754645,7.7754645 0 0 1 -10.9917,-0.3172 7.7754645,7.7754645 0 0 1 0.3173,-10.9918 7.7754645,7.7754645 0 0 1 10.9915,0.3173 7.7754645,7.7754645 0 0 1 -0.3173,10.9917 z"
     fill="url(#t)"
     stroke-width="13.4907"
     id="path122"
     style="fill:url(#t)" /><path
     d="m 1784.3532,1023.5007 a 7.8778275,7.8778275 0 0 1 -10.8116,2.6886 7.8778275,7.8778275 0 0 1 -2.6886,-10.8118 7.8778275,7.8778275 0 0 1 10.8116,-2.6885 7.8778275,7.8778275 0 0 1 2.6886,10.8116 z"
     fill="url(#s)"
     stroke-width="13.6681"
     id="path123"
     style="fill:url(#s)" /><path
     d="m 1964.6182,923.67223 a 5.8647534,5.8647534 0 0 1 -6.5976,5.0262 5.8647534,5.8647534 0 0 1 -5.0262,-6.5976 5.8647534,5.8647534 0 0 1 6.5976,-5.0262 5.8647534,5.8647534 0 0 1 5.0262,6.5976 z"
     fill="url(#r)"
     stroke-width="10.1754"
     id="path124"
     style="fill:url(#r)" /><path
     d="m 2071.0483,1150.423 a 5.5018656,5.5018656 0 0 1 -6.3585,4.485 5.5018656,5.5018656 0 0 1 -4.4848,-6.3585 5.5018656,5.5018656 0 0 1 6.3583,-4.4847 5.5018656,5.5018656 0 0 1 4.485,6.3582 z"
     fill="url(#p)"
     stroke-width="9.54589"
     id="path125"
     style="fill:url(#p)" /><path
     d="m 1782.3295,1152.3485 a 5.4720016,5.4720016 0 0 1 -3.935,6.6634 5.4720016,5.4720016 0 0 1 -6.6632,-3.935 5.4720016,5.4720016 0 0 1 3.935,-6.6634 5.4720016,5.4720016 0 0 1 6.6632,3.935 z"
     fill="url(#o)"
     stroke-width="9.49383"
     id="path126"
     style="fill:url(#o)" /><path
     d="m 1584.9123,1238.8167 a 8.5187262,8.5187262 0 0 1 -1.6811,11.9295 8.5187262,8.5187262 0 0 1 -11.9295,-1.6808 8.5187262,8.5187262 0 0 1 1.6811,-11.9295 8.5187262,8.5187262 0 0 1 11.9295,1.6808 z"
     fill="url(#n)"
     stroke-width="14.7802"
     id="path127"
     style="fill:url(#n)" /><path
     d="m 1895.086,1301.4526 a 7.6243759,7.6243759 0 0 1 -10.752,0.8093 7.6243759,7.6243759 0 0 1 -0.8085,-10.7522 7.6243759,7.6243759 0 0 1 10.7522,-0.8093 7.6243759,7.6243759 0 0 1 0.8085,10.7522 z"
     fill="url(#m)"
     stroke-width="13.2286"
     id="path128"
     style="fill:url(#m)" /><path
     d="m 1854.632,1258.189 a 6.160054,6.160054 0 0 1 -2.4626,8.3563 6.160054,6.160054 0 0 1 -8.3563,-2.4624 6.160054,6.160054 0 0 1 2.4626,-8.3563 6.160054,6.160054 0 0 1 8.3563,2.4624 z"
     fill="url(#l)"
     stroke-width="10.6876"
     id="path129"
     style="fill:url(#l)" /><path
     d="m 1725.2538,1284.1826 a 6.6361109,6.6361109 0 0 1 -6.9855,6.2677 6.6361109,6.6361109 0 0 1 -6.2675,-6.9853 6.6361109,6.6361109 0 0 1 6.9852,-6.2677 6.6361109,6.6361109 0 0 1 6.2678,6.9853 z"
     fill="url(#k)"
     stroke-width="11.5138"
     id="path130"
     style="fill:url(#k)" /><path
     d="m 1750.8936,1345.0896 a 6.8622526,6.8622526 0 0 1 -9.5966,-1.4441 6.8622526,6.8622526 0 0 1 1.4451,-9.5966 6.8622526,6.8622526 0 0 1 9.5966,1.4443 6.8622526,6.8622526 0 0 1 -1.4451,9.5966 z"
     fill="url(#j)"
     stroke-width="11.9059"
     id="path131"
     style="fill:url(#j)" /><path
     d="m 1730.3817,1266.3624 a 8.185506,8.185506 0 0 1 -11.4898,-1.4086 8.185506,8.185506 0 0 1 1.4083,-11.4898 8.185506,8.185506 0 0 1 11.4899,1.4086 8.185506,8.185506 0 0 1 -1.4084,11.4898 z"
     fill="url(#i)"
     stroke-width="14.2019"
     id="path132"
     style="fill:url(#i)" /><path
     d="m 1577.8785,1320.2356 a 6.0068042,6.0068042 0 0 1 -8.1751,2.3091 6.0068042,6.0068042 0 0 1 -2.3092,-8.1751 6.0068042,6.0068042 0 0 1 8.1749,-2.3091 6.0068042,6.0068042 0 0 1 2.3092,8.1751 z"
     fill="url(#h)"
     stroke-width="10.4218"
     id="path133"
     style="fill:url(#h)" /><path
     d="m 1663.4037,1389.9839 a 5.9527738,5.9527738 0 0 1 -8.1651,2.0492 5.9527738,5.9527738 0 0 1 -2.0492,-8.1652 5.9527738,5.9527738 0 0 1 8.1655,-2.0493 5.9527738,5.9527738 0 0 1 2.0492,8.1653 z"
     fill="url(#g)"
     stroke-width="10.3281"
     id="path134"
     style="fill:url(#g)" /><path
     d="m 1483.4727,902.31549 a 7.6862652,7.6862652 0 0 1 -6.8259,8.45959 7.6862652,7.6862652 0 0 1 -8.4596,-6.82591 7.6862652,7.6862652 0 0 1 6.8259,-8.45958 7.6862652,7.6862652 0 0 1 8.4596,6.8259 z"
     fill="url(#f)"
     stroke-width="13.3357"
     id="path135"
     style="fill:url(#f)" /><path
     d="m 1216.3661,941.23702 a 7.1115783,7.1115783 0 0 1 0.7631,10.02843 7.1115783,7.1115783 0 0 1 -10.0285,0.76313 7.1115783,7.1115783 0 0 1 -0.7631,-10.02843 7.1115783,7.1115783 0 0 1 10.0285,-0.76313 z"
     fill="url(#e)"
     stroke-width="12.3388"
     id="path136"
     style="fill:url(#e)" /><path
     d="m 1247.016,891.94166 a 6.479521,6.479521 0 0 1 -1.958,8.95156 6.479521,6.479521 0 0 1 -8.9516,-1.95822 6.479521,6.479521 0 0 1 1.9581,-8.95156 6.479521,6.479521 0 0 1 8.9515,1.95822 z"
     fill="url(#d)"
     stroke-width="11.2419"
     id="path137"
     style="fill:url(#d)" /><path
     d="m 1255.1501,802.87992 a 5.5663091,5.5663091 0 0 1 -5.6394,5.49224 5.5663091,5.5663091 0 0 1 -5.4923,-5.63939 5.5663091,5.5663091 0 0 1 5.6394,-5.49224 5.5663091,5.5663091 0 0 1 5.4923,5.63939 z"
     fill="url(#co)"
     stroke-width="9.65769"
     id="path138"
     style="fill:url(#co)" /><path
     d="m 1167.778,870.38844 a 7.6176957,7.6176957 0 0 1 -7.8839,7.34185 7.6176957,7.6176957 0 0 1 -7.3419,-7.88392 7.6176957,7.6176957 0 0 1 7.884,-7.34185 7.6176957,7.6176957 0 0 1 7.3418,7.88392 z"
     fill="url(#cn)"
     stroke-width="13.217"
     id="path139"
     style="fill:url(#cn)" /><path
     d="m 1225.7379,795.96403 a 5.1623583,5.1623583 0 0 1 -3.6356,6.33119 5.1623583,5.1623583 0 0 1 -6.3312,-3.63556 5.1623583,5.1623583 0 0 1 3.6356,-6.33118 5.1623583,5.1623583 0 0 1 6.3312,3.63555 z"
     fill="url(#cm)"
     stroke-width="8.95686"
     id="path140"
     style="fill:url(#cm)" /><path
     d="m 1361.0693,801.30813 a 8.04542,8.04542 0 0 1 -2.4367,11.11415 8.04542,8.04542 0 0 1 -11.1142,-2.43667 8.04542,8.04542 0 0 1 2.4367,-11.11415 8.04542,8.04542 0 0 1 11.1142,2.43667 z"
     fill="url(#cl)"
     stroke-width="13.9591"
     id="path141"
     style="fill:url(#cl)" /><path
     d="m 1300.7714,800.0114 a 5.4847724,5.4847724 0 0 1 -6.8045,3.72358 5.4847724,5.4847724 0 0 1 -3.7236,-6.80449 5.4847724,5.4847724 0 0 1 6.8045,-3.72358 5.4847724,5.4847724 0 0 1 3.7236,6.80449 z"
     fill="url(#ck)"
     stroke-width="9.51623"
     id="path142"
     style="fill:url(#ck)" /><path
     d="m 935.2312,823.27394 a 6.3706743,6.3706743 0 0 1 -5.44332,7.17917 6.3706743,6.3706743 0 0 1 -7.17916,-5.44332 6.3706743,6.3706743 0 0 1 5.44331,-7.17917 6.3706743,6.3706743 0 0 1 7.17917,5.44332 z"
     fill="url(#cj)"
     stroke-width="11.053"
     id="path143"
     style="fill:url(#cj)" /><path
     d="m 1296.7829,820.24824 a 5.6325209,5.6325209 0 0 1 0.9168,7.9128 5.6325209,5.6325209 0 0 1 -7.9128,0.91673 5.6325209,5.6325209 0 0 1 -0.9168,-7.9128 5.6325209,5.6325209 0 0 1 7.9128,-0.91673 z"
     fill="url(#ci)"
     stroke-width="9.77262"
     id="path144"
     style="fill:url(#ci)" /><path
     d="m 1410.7576,730.87215 a 8.0670321,8.0670321 0 0 1 -3.2497,10.93595 8.0670321,8.0670321 0 0 1 -10.9359,-3.24969 8.0670321,8.0670321 0 0 1 3.2496,-10.93594 8.0670321,8.0670321 0 0 1 10.936,3.24968 z"
     fill="url(#ch)"
     stroke-width="13.9966"
     id="path145"
     style="fill:url(#ch)" /><path
     d="m 1897.5026,945.61839 a 8.4802173,8.4802173 0 0 1 -11.6175,2.97619 8.4802173,8.4802173 0 0 1 -2.9762,-11.61771 8.4802173,8.4802173 0 0 1 11.6176,-2.97619 8.4802173,8.4802173 0 0 1 2.9761,11.61771 z"
     fill="url(#cf)"
     stroke-width="14.7132"
     id="path146"
     style="fill:url(#cf)" /><use
     transform="matrix(2.0193613,-0.27983813,0.27983813,2.0193613,-798.22087,516.30273)"
     xlink:href="#b"
     id="use146" /><use
     transform="matrix(1.0148676,-1.3845337,1.3845337,1.0148676,-590.86205,919.21227)"
     xlink:href="#b"
     id="use147" /><use
     transform="matrix(2.2018858,-0.66981967,0.66981967,2.2018858,-867.32083,166.41822)"
     xlink:href="#b"
     id="use148" /><use
     transform="matrix(1.1870182,1.0190721,-1.0190721,1.1870182,-132.88081,47.132283)"
     xlink:href="#b"
     id="use149" /><use
     transform="matrix(2.097558,0.21702535,-0.21702535,2.097558,-779.26112,-115.8725)"
     xlink:href="#b"
     id="use150" /><use
     transform="matrix(1.9781017,1.3146675,-1.3146675,1.9781017,-56.495591,-390.03252)"
     xlink:href="#b"
     id="use151" /><use
     transform="matrix(1.4332789,-0.70247368,0.70247368,1.4332789,-677.07491,421.75937)"
     xlink:href="#b"
     id="use152" /><use
     transform="matrix(2.040777,-0.22706518,0.22706518,2.040777,-685.26788,151.91588)"
     xlink:href="#b"
     id="use153" /><use
     transform="matrix(1.6219727,0.2037044,-0.2037044,1.6219727,-31.329217,84.301262)"
     xlink:href="#b"
     id="use154" /><use
     transform="matrix(1.4555198,-0.27773586,0.27773586,1.4555198,-202.51125,476.43812)"
     xlink:href="#b"
     id="use155" /><use
     transform="matrix(0.94765377,1.1745618,-1.1745618,0.94765377,552.08702,-304.93957)"
     xlink:href="#b"
     id="use156" /><use
     transform="matrix(1.7472643,0.35062777,-0.35062777,1.7472643,-249.13457,-65.594761)"
     xlink:href="#b"
     id="use157" /><use
     transform="matrix(1.1389999,-1.0765998,1.0765998,1.1389999,-369.02309,1349.7853)"
     xlink:href="#b"
     id="use158" /><use
     transform="matrix(2.1757547,0.7433403,-0.7433403,2.1757547,-551.99947,-101.17623)"
     xlink:href="#b"
     id="use159" /><use
     transform="matrix(1.3993085,-1.8976652,1.8976652,1.3993085,-561.84282,1371.0831)"
     xlink:href="#b"
     id="use160" /><use
     transform="matrix(1.2807757,-1.5002373,1.5002373,1.2807757,-426.57037,1633.0028)"
     xlink:href="#b"
     id="use161" /><use
     transform="matrix(1.8582722,1.6020306,-1.6020306,1.8582722,295.92402,-314.2328)"
     xlink:href="#b"
     id="use162" /><use
     transform="matrix(1.3790717,1.0921605,-1.0921605,1.3790717,236.84817,248.37093)"
     xlink:href="#b"
     id="use163" /><use
     transform="matrix(1.5179986,-0.04569203,0.04569203,1.5179986,-464.31305,318.02102)"
     xlink:href="#b"
     id="use164" /><use
     transform="matrix(1.5127331,-1.2693998,1.2693998,1.5127331,-758.39556,1386.5456)"
     xlink:href="#b"
     id="use165" /><use
     transform="matrix(1.9704393,0.4032239,-0.4032239,1.9704393,-159.85671,281.98962)"
     xlink:href="#b"
     id="use166" /><use
     transform="matrix(1.1415345,-1.116818,1.116818,1.1415345,-755.01621,1120.2053)"
     xlink:href="#b"
     id="use167" /><use
     transform="matrix(1.6592438,-1.2899117,1.2899117,1.6592438,-955.24301,1155.0795)"
     xlink:href="#b"
     id="use168" /><use
     transform="matrix(1.1237535,-1.0675619,1.0675619,1.1237535,159.82441,1281.4516)"
     xlink:href="#b"
     id="use169" /><use
     transform="matrix(1.6507365,-1.2718951,1.2718951,1.6507365,-471.73978,1065.8409)"
     xlink:href="#b"
     id="use170" /><use
     transform="matrix(2.2099412,0.14392124,-0.14392124,2.2099412,-59.35429,151.91391)"
     xlink:href="#b"
     id="use171" /><use
     transform="matrix(1.6969472,-1.3658883,1.3658883,1.6969472,-656.83807,838.50069)"
     xlink:href="#b"
     id="use172" /><use
     transform="matrix(1.8273864,-0.7900815,0.7900815,1.8273864,-384.9375,662.42055)"
     xlink:href="#b"
     id="use173" /><use
     transform="matrix(1.5360546,0.17156516,-0.17156516,1.5360546,425.6559,238.55312)"
     xlink:href="#b"
     id="use174" /><use
     transform="matrix(1.8911226,-0.10782501,0.10782501,1.8911226,-137.01463,192.22373)"
     xlink:href="#b"
     id="use175" /><use
     transform="matrix(1.7038042,-0.71253315,0.71253315,1.7038042,-890.66196,491.17369)"
     xlink:href="#b"
     id="use176" /><use
     transform="matrix(1.5586294,1.2587902,-1.2587902,1.5586294,-92.375701,-190.08078)"
     xlink:href="#b"
     id="use177" /><use
     transform="matrix(1.1558771,1.2388285,-1.2388285,1.1558771,151.88686,-322.34718)"
     xlink:href="#b"
     id="use178" /><use
     transform="matrix(1.5153265,-0.05395573,0.05395573,1.5153265,-636.8763,360.50659)"
     xlink:href="#b"
     id="use179" /><use
     transform="matrix(1.458742,0.18980975,-0.18980975,1.458742,-741.65597,317.16243)"
     xlink:href="#c"
     id="use180" /><use
     transform="matrix(2.280279,-0.78206535,0.78206535,2.280279,-1256.8898,933.437)"
     xlink:href="#c"
     id="use181" /><use
     transform="matrix(1.5960185,-0.14058118,0.14058118,1.5960185,-349.12026,478.22604)"
     xlink:href="#c"
     id="use182" /><use
     transform="matrix(2.2504149,0.05314233,-0.05314233,2.2504149,-714.58183,243.66538)"
     xlink:href="#c"
     id="use183" /><use
     transform="matrix(1.7136868,0.02705056,-0.02705056,1.7136868,-401.75569,221.38324)"
     xlink:href="#c"
     id="use184" /><use
     transform="matrix(1.8458746,-0.32323927,0.32323927,1.8458746,-852.19232,524.81006)"
     xlink:href="#c"
     id="use185" /><use
     transform="matrix(2.288138,0.60875551,-0.60875551,2.288138,-886.81107,-522.43645)"
     xlink:href="#c"
     id="use186" /><use
     transform="matrix(1.9879254,-0.73027477,0.73027477,1.9879254,-1167.4351,820.42507)"
     xlink:href="#c"
     id="use187" /><use
     transform="matrix(2.1875432,-1.0794683,1.0794683,2.1875432,-1118.8667,932.98511)"
     xlink:href="#c"
     id="use188" /><use
     transform="matrix(1.8857589,-0.41436398,0.41436398,1.8857589,-606.4621,380.19526)"
     xlink:href="#c"
     id="use189" /><use
     transform="matrix(1.869648,-0.77489405,0.77489405,1.869648,-1010.413,654.46335)"
     xlink:href="#c"
     id="use190" /><use
     transform="matrix(1.6988137,0.33789624,-0.33789624,1.6988137,-293.45913,-4.3950278)"
     xlink:href="#c"
     id="use191" /><use
     transform="matrix(2.3195738,-0.22441277,0.22441277,2.3195738,-1183.5656,330.01969)"
     xlink:href="#c"
     id="use192" /><use
     transform="matrix(2.1323339,-1.2490255,1.2490255,2.1323339,-864.64878,1267.2465)"
     xlink:href="#c"
     id="use193" /><g
     transform="matrix(17.534934,0,0,17.534934,388.486,265.05512)"
     fill="#ffffff"
     stroke-width="4.7396"
     aria-label="EavesDrum"
     id="g194"><path
       d="m 10.631,30.983 v -8.3265 q 0,-0.69387 -0.20045,-1.1102 -0.18503,-0.43174 -0.87891,-0.43174 H 9.24325 v -0.30839 h 6.5687 q 0.53968,0 0.81723,0.18503 0.27755,0.16961 0.38548,0.46258 0.10794,0.27755 0.10794,0.58594 v 1.1565 h -0.30839 q 0,-0.92516 -0.50884,-1.3415 -0.49342,-0.43174 -1.4186,-0.43174 h -2.868 v 4.009 h 4.1632 v 0.61678 h -4.1632 v 4.3174 h 2.6984 q 1.0485,0 1.6499,-0.38548 0.61678,-0.38548 0.97142,-1.3106 l 0.30839,0.0771 -0.53968,1.4648 q -0.12336,0.35465 -0.41632,0.57052 -0.27755,0.20045 -0.74013,0.20045 z m 10.3,0.15419 q -0.32381,0 -0.70929,-0.10794 -0.37007,-0.09252 -0.72471,-0.33923 -0.35465,-0.24671 -0.58594,-0.66303 -0.21587,-0.41632 -0.21587,-1.0485 0,-0.84807 0.53968,-1.3106 0.5551,-0.46258 1.4494,-0.64762 0.90974,-0.20045 1.9428,-0.20045 h 0.46258 q 0,-1.0794 -0.21587,-1.6345 -0.21587,-0.57052 -0.58594,-0.77097 -0.35465,-0.21587 -0.81723,-0.21587 -0.64761,0 -1.0948,0.27755 -0.43174,0.27755 -0.60136,1.0331 h -0.69387 q 0,-0.4009 0.04626,-0.74013 0.04626,-0.35465 0.33923,-0.64762 0.29297,-0.29297 0.956,-0.41632 0.66303,-0.12335 1.3569,-0.12336 0.52426,0 1.0023,0.12336 0.49342,0.12336 0.86349,0.46258 0.38548,0.32381 0.60136,0.97142 0.23129,0.6322 0.23129,1.6807 v 4.1632 h -0.77097 l -0.53968,-0.69387 h -0.0771 q -0.23129,0.29297 -0.75555,0.57052 -0.52426,0.27755 -1.4032,0.27755 z m 0.69387,-0.69387 q 0.57052,0 0.89433,-0.27755 0.33923,-0.29297 0.57052,-0.64762 v -2.0816 h -0.46258 q -1.1565,0 -1.8195,0.43174 -0.64762,0.41632 -0.64762,1.1102 0,0.75555 0.44716,1.1102 0.44716,0.35465 1.0177,0.35465 z m 7.648,0.69387 -2.39,-5.6281 Q 26.5128,24.6456 26.17358,24.30639 25.83435,23.95174 25.27926,23.92091 v -0.30839 q 0.06168,0 0.23129,-0.01542 0.18503,-0.01542 0.29297,-0.01542 0.478,0 0.94058,0.15419 0.478,0.13878 0.90974,0.5551 0.43174,0.41632 0.77097,1.2181 l 1.3877,3.3152 2.1587,-5.0884 h 0.77097 l -3.161,7.4013 z m 7.5555,0 q -1.0794,0 -1.8041,-0.50884 -0.70929,-0.50884 -1.0794,-1.3723 -0.35465,-0.86349 -0.35465,-1.8966 0,-1.0485 0.37006,-1.8966 0.37007,-0.86349 1.0639,-1.3723 0.69383,-0.50881 1.6499,-0.50884 1.5728,0 2.3283,0.87891 0.75555,0.87891 0.75555,2.5134 l -0.03084,0.61678 h -4.6721 q 0,1.2644 0.53968,2.097 0.5551,0.83265 1.5419,0.83265 0.75555,0 1.249,-0.32381 0.50884,-0.32381 0.90974,-0.90974 l 0.30839,0.23129 q -0.52426,0.87891 -1.2181,1.249 -0.67845,0.37007 -1.5574,0.37007 z m -1.7732,-4.1632 h 3.2381 q 0,-1.3415 -0.4009,-2.0508 -0.4009,-0.72471 -1.2181,-0.72471 -0.46258,0 -0.83265,0.37007 -0.35465,0.35465 -0.57052,0.98684 -0.21587,0.61678 -0.21587,1.4186 z m 8.897,4.1632 q -0.92516,0 -1.5111,-0.15419 -0.58594,-0.16961 -0.8789,-0.46258 -0.29297,-0.29297 -0.33923,-0.66303 -0.04626,-0.37007 -0.04626,-0.956 h 0.30839 q 0.12336,0.75555 0.64761,1.1873 0.52426,0.43174 1.5111,0.43174 0.8789,0 1.2798,-0.30839 0.41632,-0.30839 0.41632,-0.77097 0,-0.46258 -0.35465,-0.77097 -0.33923,-0.32381 -1.0331,-0.61678 l -0.92516,-0.38548 q -0.87891,-0.35465 -1.3723,-0.83265 -0.478,-0.49342 -0.478,-1.249 0,-0.97142 0.72471,-1.4803 0.72471,-0.52426 1.8195,-0.52426 0.8789,0 1.4494,0.16961 0.57052,0.15419 0.86349,0.44716 0.29297,0.29297 0.33923,0.66303 0.04626,0.37007 0.04626,0.956 h -0.30839 q -0.12336,-0.75555 -0.64762,-1.1873 -0.50884,-0.43174 -1.434,-0.43174 -0.75555,0 -1.1565,0.30839 -0.38548,0.30839 -0.38548,0.77097 0,0.4009 0.32381,0.74013 0.32381,0.32381 0.90974,0.57052 l 0.92516,0.38548 q 0.98684,0.4009 1.4957,0.87891 0.50884,0.478 0.50884,1.2798 0,0.97142 -0.77097,1.4957 -0.77097,0.50884 -1.9274,0.50884 z"
       id="path193" /><path
       d="m 59.209,26.465 q 0,0.9863 -0.34633,1.8145 -0.3388,0.82819 -0.94112,1.4305 -0.60232,0.59479 -1.4305,0.9336 -0.82819,0.3388 -1.7994,0.3388 h -5.2854 q -0.21081,0 -0.39151,-0.07529 -0.1807,-0.07529 -0.31622,-0.20328 -0.12799,-0.13552 -0.20328,-0.31622 -0.07529,-0.1807 -0.07529,-0.39151 v -8.824 q 0,-0.20328 0.07529,-0.38398 0.07529,-0.1807 0.20328,-0.31622 0.13552,-0.13552 0.31622,-0.21081 0.1807,-0.07529 0.39151,-0.07529 h 5.2854 q 0.97124,0 1.7994,0.33881 0.82819,0.3388 1.4305,0.94112 0.60232,0.59479 0.94112,1.4305 0.34633,0.82819 0.34633,1.807 z m -1.9575,-1.7618 q 0,-0.5722 -0.18822,-1.0465 -0.1807,-0.47433 -0.5195,-0.8056 -0.3388,-0.3388 -0.81313,-0.5195 -0.4668,-0.18822 -1.039,-0.18822 h -4.3141 v 6.8815 h 4.3141 q 0.5722,0 1.039,-0.1807 0.47433,-0.18822 0.81313,-0.5195 0.3388,-0.33881 0.5195,-0.8056 0.18822,-0.47433 0.18822,-1.0541 z m 10.744,0.09788 H 63.591 q -0.39904,0 -0.60232,0.20328 -0.20328,0.19575 -0.20328,0.57973 v 5.3983 h -1.9575 v -5.3983 q 0,-0.50444 0.12799,-0.90348 0.12799,-0.39904 0.3388,-0.7002 0.21834,-0.30869 0.49691,-0.5195 0.27857,-0.21834 0.57973,-0.35386 0.30869,-0.13552 0.61738,-0.19575 0.31622,-0.06776 0.58726,-0.06776 h 4.4195 z m 10.187,5.195 q 0,0.21081 -0.07529,0.39151 -0.07529,0.1807 -0.21081,0.31622 -0.12799,0.12799 -0.30869,0.20328 -0.17317,0.07529 -0.37645,0.07529 h -4.4271 q -0.36139,0 -0.77549,-0.08282 -0.40657,-0.08282 -0.8056,-0.26352 -0.39904,-0.18822 -0.77549,-0.4668 -0.36892,-0.2861 -0.64749,-0.68514 -0.27857,-0.40657 -0.45174,-0.9336 -0.16564,-0.52703 -0.16564,-1.1896 v -4.5174 h 1.9575 v 4.5174 q 0,0.38398 0.12799,0.69267 0.13552,0.30116 0.36139,0.5195 0.22587,0.21834 0.52703,0.3388 0.30869,0.11294 0.66255,0.11294 h 3.4257 v -6.1813 h 1.9575 z m 9.1026,0.9863 h -1.9575 v -5.3983 q 0,-0.38398 -0.20328,-0.57973 -0.20328,-0.20328 -0.60232,-0.20328 h -2.5448 v 6.1813 h -1.9575 v -7.1676 q 0,-0.20328 0.07529,-0.37645 0.07529,-0.1807 0.21081,-0.30869 0.13552,-0.13552 0.31622,-0.21081 0.1807,-0.07529 0.38398,-0.07529 h 3.5311 q 0.40657,0 0.87336,0.14305 0.46679,0.14305 0.88842,0.45927 v -0.60232 h 2.6502 q 0.27857,0 0.58726,0.06776 0.30869,0.06023 0.60985,0.19575 0.30869,0.13552 0.58726,0.35386 0.27857,0.21081 0.48938,0.5195 0.21081,0.30116 0.3388,0.7002 0.12799,0.39904 0.12799,0.90348 v 5.3983 h -1.9575 v -5.3983 q 0,-0.38398 -0.19575,-0.57973 -0.18822,-0.20328 -0.58726,-0.20328 h -1.7618 q 0.09788,0.36139 0.09788,0.78302 z"
       id="path194" /></g><path
     d="m 2569.7618,889.87338 -214.3942,94.1654 -988.7187,92.40182 c 0,0 -6.5707,-0.4134 -17.3102,4.2748 21.156,34.2019 52.886,74.286 54.6541,75.1924 0.7742,0.4328 1.7485,0.5313 2.1519,0.3395 12.2869,-0.8131 36.9551,-0.6652 36.9551,-0.6652 l 2.0344,16.0461 399.2026,135.0195 0.7972,137.0729 722.0713,-0.017 z"
     stroke-width="5.73772"
     id="path195"
     sodipodi:nodetypes="cccccccccccc" /><g
     transform="matrix(11.231359,0,0,11.231359,710.78597,27.39642)"
     id="g197"><g
       id="g241"><path
         d="m 123.1,55.329 c -0.65786,-0.0162 -0.84697,0.0796 -0.7693,0.38927 0.14156,0.56397 2.5962,2.2613 4.6072,3.186 0.33008,0.15175 0.59991,0.29058 0.59991,0.306 0,0.0803 -0.28397,1.3998 -0.30601,1.4219 -0.0139,0.0139 -0.16314,0.0959 -0.33092,0.17933 -0.40808,0.20589 -0.56448,0.51248 -0.53088,1.0376 0.0186,0.29099 0.0764,0.46927 0.21919,0.67535 l 0.19356,0.27968 -0.38927,2.2929 c -0.21445,1.261 -0.38998,2.3124 -0.38998,2.337 -8e-5,7.7e-4 -4.6e-4,0.003 -7e-4,0.004 -0.01,0.0234 -0.0927,0.049 -0.19144,0.062 -0.18796,0.0216 -0.19231,0.0324 -0.21277,0.5437 -0.0172,0.43235 3.9e-4,0.5357 0.10176,0.6113 0.11513,0.0819 0.12064,0.24487 0.10398,1.9549 -0.0172,1.7568 -0.026,1.8704 -0.15373,1.9606 -0.0888,0.0625 -0.13592,0.17754 -0.13592,0.33164 v 0.23554 h -0.44193 c -0.47979,0 -0.70688,0.13606 -0.66253,0.39853 0.0138,0.0775 -0.0993,0.27488 -0.27328,0.47751 -0.39631,0.46134 -0.83022,1.3075 -1.1059,2.1584 -0.17357,0.53566 -0.25671,0.70359 -0.35939,0.71805 -0.0942,0.0146 -0.15426,0.10879 -0.2021,0.31739 -0.0784,0.34124 -0.0547,0.464 0.091,0.464 0.066,0 0.0903,0.0438 0.0654,0.12242 -0.21302,0.67398 -0.30108,2.3689 -0.18503,3.5625 0.0631,0.61734 0.0649,0.88518 0.011,0.95004 -0.0416,0.05 -0.0533,0.14664 -0.027,0.21563 0.0167,0.0439 0.022,0.0715 0.0164,0.0833 v 0.0014 h -7e-4 v 7.1e-4 l -7.2e-4,7.1e-4 -10e-4,0.0014 h -7e-4 l -7.2e-4,7e-4 c -0.01,0.004 -0.028,-0.001 -0.0541,-0.0178 -0.10549,-0.0653 -0.0603,0.12133 0.13372,0.55579 0.21152,0.47358 0.21721,0.52705 0.0804,0.7209 -0.205,0.29044 -0.52294,0.96092 -0.80842,1.7037 -0.20486,0.53282 -0.29594,0.68725 -0.41845,0.71947 -0.11513,0.0289 -0.17355,0.11692 -0.22345,0.33519 -0.0419,0.18153 -0.0437,0.33653 -0.004,0.39781 0.0427,0.0677 -0.004,0.35899 -0.14021,0.8675 l -0.20494,0.76572 c 0,0 0.68266,0.0124 0.73298,-0.0326 0.0346,-0.031 0.0705,-0.35246 0.15657,-0.68033 0.10714,-0.4083 0.19282,-0.60657 0.27256,-0.62695 0.12352,-0.0324 0.23719,-0.41943 0.21064,-0.71521 -0.008,-0.0958 0.12807,-0.56634 0.30317,-1.0461 0.17513,-0.47954 0.33652,-1.0049 0.35938,-1.1671 0.0395,-0.28258 0.16296,-0.35662 0.16296,-0.0996 0,0.23249 0.89708,1.9298 1.2496,2.3641 0.2425,0.29845 0.35441,0.49976 0.35441,0.63692 0,0.26837 0.1569,0.38288 0.58497,0.42557 l 0.35653,0.0341 0.0213,0.29462 c 6.6e-4,0.01 10e-4,0.0183 10e-4,0.027 h 0.58354 c 0.011,-0.0124 0.0298,-0.0273 0.0562,-0.0434 0.0384,-0.024 0.0697,-0.0972 0.0697,-0.16155 -1e-5,-0.0996 0.0596,-0.11361 0.43625,-0.0818 0.38058,0.0304 0.43847,0.0549 0.45758,0.18645 0.007,0.045 0.008,0.0771 -0.01,0.10039 h 1.0063 c -0.004,-0.0124 -0.007,-0.0277 -0.007,-0.0449 0,-0.107 0.049,-0.11416 0.3665,-0.0775 0.20143,0.0245 0.63907,0.0449 0.63907,0.0449 0,0 3.2701,-0.0421 3.692,-0.27754 0,0 0.31439,-0.0949 1.0568,-0.76574 0.1227,-0.11085 0.38285,-0.40064 0.38285,-0.40064 0.1855,-0.20043 0.43853,-0.54124 0.56219,-0.75719 l 0.22488,-0.39284 0.311,0.31099 0.31099,0.311 -0.17933,0.35368 c -0.0986,0.1947 -0.44053,0.94642 -0.51902,0.97149 -0.12767,0.0525 -0.11318,0.0386 -0.1622,0.15757 l -0.0284,0.16438 0.86219,-0.0429 c 0,0 0.025,-0.1617 0.004,-0.22752 -0.0211,-0.0661 0.26447,-0.61119 0.32667,-0.73403 l 0.11457,-0.22274 0.44692,0.44335 c 0,0 0.94395,0.89329 1.4985,1.3391 l 1.3252,0.0437 c 0,0 -0.006,-2.0721 -0.004,-2.3833 l 0.001,-0.43624 0.79775,-0.64617 0.79918,-0.64617 0.24339,0.3608 c 0.18517,0.27172 2.2815,3.4515 2.2815,3.4515 l 0.45617,0.0541 c 0,0 -2.0731,-3.3253 -3.3761,-5.259 -0.90749,-1.3468 -0.99701,-1.6651 -0.99701,-1.898 0,-0.17584 -0.0348,-0.28342 -0.10315,-0.31028 -0.0866,-0.0335 -0.10315,-0.23123 -0.10315,-1.1792 0,-1.0674 0.01,-1.1425 0.13593,-1.182 0.10631,-0.034 0.14211,-0.11802 0.15726,-0.39994 0.014,-0.1965 0.0565,-0.36768 0.0961,-0.38145 0.99127,-0.84292 0.51977,-0.46662 1.9983,-1.7286 l 7.1e-4,-7.2e-4 7.2e-4,-7e-4 c 0.0589,-0.0683 1.2254,0.0636 1.5357,0.0355 l 0.40778,-2.8544 v -0.4462 c 0,-0.31154 0.0289,-0.47393 0.10314,-0.53301 0.15212,-0.12683 0.13427,-0.53748 -0.0278,-0.62341 -0.0722,-0.0387 -0.15036,-0.14517 -0.17364,-0.2384 -0.0558,-0.22224 -0.38359,-0.34876 -1.4574,-0.56362 -1.7422,-0.34838 -4.7118,-0.63829 -5.9259,-0.58142 -0.35761,0.018 -0.6534,0.0146 -0.68034,-0.01 l -7.1e-4,-7e-4 -7e-4,-7.1e-4 v -0.0014 h -7.2e-4 v -7.2e-4 c 0,-0.0256 0.21583,-0.4212 0.47893,-0.87887 0.88727,-1.5436 0.87548,-1.529 1.0917,-1.5649 0.13207,-0.023 0.24672,-0.11265 0.33376,-0.2626 0.12118,-0.20489 0.12449,-0.24425 0.0313,-0.3857 -0.0559,-0.0865 -0.10246,-0.24944 -0.10246,-0.36223 0,-0.23818 -0.15367,-0.3838 -1.0988,-1.0426 -1.2716,-0.88653 -3.2631,-1.969 -4.6122,-2.5064 -0.68504,-0.27289 -1.0048,-0.31441 -1.1422,-0.14873 -0.0478,0.0558 -0.1726,0.10315 -0.27683,0.10315 -0.3475,0 -0.58237,0.44189 -0.39069,0.73442 0.10742,0.16378 0.0864,0.21805 -0.63977,1.6738 -0.58015,1.1632 -0.77617,1.4974 -0.86466,1.4745 -0.15009,-0.0387 -0.21892,0.0158 -0.32594,0.25905 -0.0737,0.16765 -0.071,0.21853 0.0142,0.31383 0.0755,0.0836 0.0836,0.14611 0.0306,0.24196 -0.0574,0.10259 -0.0325,0.17008 0.1267,0.33874 0.35117,0.37208 1.7938,1.2861 2.937,1.861 l 0.43553,0.2199 v 2.4082 l -0.21635,0.0804 c -0.20092,0.0759 -0.21494,0.10205 -0.19001,0.36366 l 0.027,0.28253 h -1.7535 c -0.96436,0 -1.8969,0.019 -2.0723,0.0434 l -0.31881,0.0427 -0.022,-0.26686 c -0.0182,-0.21984 -0.0541,-0.27625 -0.19713,-0.30957 l -0.17435,-0.0391 -0.0185,-1.8972 c -0.0165,-1.6574 -0.006,-1.898 0.0868,-1.898 0.0857,0 0.10604,-0.10549 0.10604,-0.55792 0,-0.51604 -0.011,-0.55794 -0.14304,-0.55794 -0.12243,0 -0.13703,-0.0328 -0.10398,-0.22702 0.26971,-1.5814 0.74372,-4.3045 0.76787,-4.4122 0.0172,-0.0773 0.12945,-0.19767 0.24907,-0.269 0.49994,-0.2953 0.63964,-0.99317 0.31312,-1.5642 l -0.1715,-0.29889 0.14446,-0.71235 c 0.0793,-0.39184 0.15452,-0.72137 0.16582,-0.73514 v -7.1e-4 h 7.1e-4 v -7.1e-4 h 0.001 c 0.0207,-0.007 0.11472,0.0274 0.21705,0.0804 0.90173,0.46237 3.5368,1.2379 4.5346,1.3372 0.63131,0.0618 0.79064,0.0158 0.79064,-0.22985 0,-0.4264 -1.853,-1.9026 -3.697,-2.9441 -0.36443,-0.20612 -0.67513,-0.4047 -0.68959,-0.4405 -0.0146,-0.0364 -0.13193,-0.18303 -0.26046,-0.32523 l -0.23342,-0.25832 0.0946,-0.36436 c 0.0942,-0.36246 0.0936,-0.36477 -0.0833,-0.43198 -0.25551,-0.0971 -0.33733,-0.0399 -0.38715,0.27115 l -0.0441,0.2754 -0.43126,0.0377 c -0.3658,0.0332 -0.50649,0.01 -0.92513,-0.15655 -1.3517,-0.53527 -2.8875,-0.90603 -3.85,-0.93013 z m 9.3859,15.036 h 0.002 c 4.7e-4,2e-5 7.8e-4,3e-5 0.001,0 0.004,-5e-5 0.007,0.001 0.011,0.003 0.0479,0.0191 0.40057,0.16036 0.78423,0.31384 0.38361,0.15349 0.87817,0.31958 1.0988,0.37219 0.39763,0.0925 0.52049,0.22335 0.27042,0.28822 -0.10314,0.0273 -0.14107,0.12821 -0.18004,0.49957 -0.0369,0.33057 -0.0252,0.49454 0.0348,0.56932 0.0683,0.0815 0.0694,0.22977 0.004,0.69598 h 7.2e-4 c -0.0457,0.32585 -0.10535,0.65349 -0.13455,0.73158 -0.0852,0.22947 -0.21144,0.0227 -0.1715,-0.27897 0.052,-0.38958 -0.13069,-0.49175 -0.86822,-0.49175 h -0.57714 v -0.31241 c 0,-0.27683 -0.0208,-0.31878 -0.17435,-0.35582 l -0.17436,-0.0441 v -1.0112 c 0,-0.72013 0.0167,-0.96615 0.0719,-0.97851 z m 2.4879,4.4577 v 7.2e-4 c 0.0643,-0.004 0.29595,0.0218 0.55936,0.0683 l 0.54725,0.0946 0.9721,1.034 c 0.53446,0.56888 1.0128,1.0942 1.0668,1.1706 0.053,0.0748 0.11265,0.31567 0.13303,0.53516 0.0219,0.21969 0.0763,0.43207 0.1238,0.46898 0.0581,0.0472 0.0971,0.43386 0.12449,1.1984 0.0337,0.93054 0.0218,1.1338 -0.0577,1.1664 -0.0638,0.0231 -0.0997,0.13945 -0.0997,0.30316 0,0.14606 -0.0555,0.34253 -0.12174,0.43838 -0.0669,0.0947 -0.12229,0.20947 -0.12311,0.25547 -7.5e-4,0.0459 -0.47208,0.94776 -1.0475,2.004 l 0.003,-7e-4 c -0.57548,1.0562 -1.0633,1.9213 -1.0838,1.9222 h -0.001 c -0.028,-0.007 -0.1753,-0.13957 -0.33376,-0.30104 l -0.29747,-0.30315 0.20922,-0.70524 c 0.11527,-0.38804 0.26468,-0.78889 0.33092,-0.88956 0.0921,-0.1399 0.10274,-0.21286 0.0463,-0.30458 -0.0528,-0.081 -0.0565,-0.22142 -0.0138,-0.42912 0.0994,-0.47129 0.15428,-3.0315 0.0768,-3.6223 -0.0406,-0.32694 -0.0417,-0.55274 -0.001,-0.60562 0.0435,-0.0536 0.007,-0.27329 -0.10604,-0.62766 -0.0952,-0.29994 -0.25662,-0.84391 -0.35867,-1.2084 -0.10232,-0.36445 -0.27743,-0.88039 -0.38857,-1.1465 -0.10851,-0.25778 -0.18398,-0.48335 -0.17505,-0.51025 v -7e-4 l 7.1e-4,-7.2e-4 7e-4,-7.1e-4 c 0.003,-0.001 0.008,-0.003 0.0157,-0.004 z m 2.0659,0.36081 h 0.003 c 0.001,-2.2e-4 0.006,-7e-5 0.008,7.2e-4 0.0767,0.0207 0.40617,0.0894 0.73228,0.15086 0.91442,0.17526 0.86205,0.1132 0.83689,0.69528 -0.0229,0.52747 -0.0227,0.43685 -0.0364,0.84544 -2.3e-4,0.007 -0.53934,-0.58257 -0.9415,-0.98919 -0.35257,-0.35666 -0.60132,-0.64432 -0.6049,-0.69599 v -0.0043 h 7.1e-4 v -0.0014 h 7.1e-4 v -7.1e-4 h 7.1e-4 z m 2.394,0.38286 0.15942,0.005 1.6389,0.0355 c -0.56828,0.38861 -1.6573,1.3884 -1.8716,1.5258 0.0124,-0.29295 0.0394,-1.2153 0.0733,-1.567 z m 0.12876,6.5863 c 0.0675,-0.004 0.18502,0.17198 0.55721,0.73084 l 0.543,0.81555 -0.34088,0.2989 h -7.1e-4 c -0.18755,0.16404 -0.47456,0.39383 -0.63764,0.51309 l -0.29675,0.21492 v -1.1472 c 0,-0.82778 0.0271,-1.1984 0.0953,-1.3293 0.0293,-0.0566 0.0497,-0.0952 0.0804,-0.0968 z m -1.1393,0.12091 h 0.001 c 0.001,-6e-5 0.003,-5e-5 0.004,0 0.0179,5.2e-4 0.0321,0.0229 0.0562,0.047 h -0.003 c 0.0415,0.0431 0.0664,0.49296 0.0526,1.16 l -0.0185,1.0902 -0.46469,-0.41489 -0.46399,-0.4156 0.38927,-0.71449 c 0.32202,-0.59065 0.40004,-0.74328 0.4462,-0.7522 z m -1.1123,1.952 0.25547,0.22844 c 0.14085,0.12559 0.42012,0.37441 0.62056,0.55295 l 0.36507,0.3245 v 0.42771 c 0.0285,0.95185 -0.0185,2.1577 -0.0185,2.1577 0,0 -0.75954,-0.55358 -1.1643,-1.0376 l -7.1e-4,7.1e-4 c -0.0226,0 -0.25425,-0.21516 -0.51452,-0.47751 l -0.47325,-0.47608 0.46471,-0.85043 z"
         stroke-width="0.26364"
         id="path196" /><path
         d="m 151.14,47.712 c -0.31184,0.002 -0.57915,0.0465 -0.72462,0.13714 -0.0932,0.0581 -0.0845,0.11023 0.0504,0.30134 0.49128,0.69567 0.98023,2.0156 1.1582,3.1264 0.0889,0.55505 0.12054,0.62768 0.27319,0.62768 0.27838,0 0.75392,0.3771 0.99559,0.78947 0.577,0.98457 -0.002,2.212 -1.0407,2.2052 -0.68186,-0.004 -1.2257,-0.48858 -1.33,-1.184 -0.0661,-0.4402 0.0619,-0.81652 0.45621,-1.3412 0.2803,-0.37305 0.31071,-0.45746 0.26954,-0.74868 -0.18006,-1.2736 -0.88878,-3.0527 -1.3536,-3.3979 -0.44128,-0.32773 -1.5248,-0.0934 -2.0793,0.44971 -0.11138,0.10909 -0.43247,0.28759 -0.71356,0.39672 -1.4237,0.55273 -2.3563,1.9601 -2.1256,3.2078 0.0945,0.51138 0.24298,0.78627 0.49843,0.92298 0.16107,0.0862 0.16681,0.0768 0.10979,-0.17937 -0.0822,-0.36932 -0.058,-0.81633 0.059,-1.0929 l 0.0975,-0.23031 0.0264,0.24296 c 0.0615,0.56589 0.21948,1.0075 0.5617,1.5712 l 0.36382,0.59934 -0.33298,0.67845 c -0.18317,0.37311 -0.30935,0.71683 -0.28029,0.76385 0.0291,0.047 0.21288,0.15409 0.40842,0.23791 0.32084,0.13753 0.35559,0.17939 0.35559,0.42883 0,0.15203 0.0547,0.32182 0.12152,0.37726 0.0668,0.0555 0.12152,0.16415 0.12152,0.24171 0,0.13986 0.36928,0.56819 0.48989,0.56819 0.0346,0 0.0876,0.14705 0.11798,0.32695 0.0359,0.21237 0.1214,0.37039 0.2436,0.45051 0.17254,0.11304 0.2348,0.10684 0.74156,-0.0755 0.30425,-0.10944 0.74466,-0.28321 0.97883,-0.38596 l 0.42582,-0.18682 0.36872,0.3605 c 0.45832,0.44801 0.71395,0.85052 0.65551,1.032 -0.0246,0.0762 -0.117,0.34634 -0.20563,0.60045 -0.17157,0.49197 -0.37123,1.7689 -0.45289,2.8965 -0.0324,0.44666 -0.0934,0.73401 -0.1751,0.82428 -0.0714,0.079 -0.1043,0.2049 -0.0764,0.2928 0.031,0.0977 -0.009,0.20653 -0.10894,0.29706 -0.15194,0.13751 -0.22203,0.12158 -1.8732,-0.42582 l -1.7153,-0.56867 -0.78031,-0.7637 c -0.62865,-0.61527 -0.87477,-0.79977 -1.2662,-0.94893 -0.49894,-0.19011 -1.2341,-0.25459 -1.5586,-0.13667 -0.15897,0.0578 -0.33644,-0.0857 -1.4173,-1.1454 -1.7983,-1.7631 -5.3546,-4.8732 -5.5723,-4.8732 -0.0453,0 -0.10467,0.0584 -0.13208,0.12987 -0.0357,0.0928 0.20195,0.36304 0.83267,0.94719 1.3326,1.2342 3.4145,3.2938 4.4894,4.4413 0.75451,0.80548 0.94908,1.0595 0.91413,1.1932 -0.0854,0.32622 0.0458,0.55797 0.45952,0.81258 0.31056,0.19109 0.40526,0.29633 0.40526,0.4505 0,0.139 0.071,0.23775 0.22968,0.31984 0.12635,0.0653 0.32909,0.24909 0.4505,0.40827 0.42964,0.56327 1.4688,0.88378 2.1601,0.66626 0.17858,-0.0561 0.35124,0.0315 1.2148,0.61707 1.5293,1.037 2.0052,1.2489 3.9628,1.7636 l 0.36446,0.0957 -0.42203,0.14553 c -0.69617,0.23995 -1.5626,0.339 -2.1962,0.25119 -0.6629,-0.0919 -1.1285,-0.28494 -1.6478,-0.68351 -0.20813,-0.15974 -0.49239,-0.34947 -0.63178,-0.42156 -0.33078,-0.17104 -1.1236,-0.17488 -1.448,-0.007 l -0.24819,0.12829 -1.4814,-1.2384 c -0.81477,-0.68111 -2.096,-1.721 -2.8473,-2.3107 -1.0886,-0.85459 -1.3887,-1.0533 -1.478,-0.97914 -0.0617,0.0512 -0.11211,0.14032 -0.11211,0.19805 0,0.0577 0.81091,0.82541 1.802,1.706 0.9911,0.88058 2.1543,1.9444 2.585,2.364 l 0.78316,0.76291 -0.15518,0.25452 c -0.22413,0.36757 -0.20615,0.68411 0.0423,0.74645 0.10882,0.0273 0.23206,0.0284 0.27396,0.002 0.0419,-0.0259 0.11835,0.0548 0.1699,0.17922 0.0515,0.12445 0.35655,0.42475 0.67764,0.66721 l 0.58386,0.44085 0.69252,-0.007 c 0.47448,-0.004 0.77789,-0.0489 0.96396,-0.14173 0.14934,-0.0745 0.36201,-0.13541 0.47249,-0.13541 0.11052,0 0.95666,0.25602 1.8804,0.56898 1.0771,0.36489 1.8723,0.58698 2.2164,0.61912 0.29519,0.0276 0.53671,0.0821 0.53671,0.12117 0,0.0391 -0.20956,0.27161 -0.46569,0.51662 -0.37962,0.36312 -0.44324,0.45975 -0.3442,0.52326 0.0668,0.0429 0.18526,0.0786 0.26321,0.0793 0.0779,6.2e-4 0.14172,0.0368 0.14172,0.0804 0,0.16653 -0.40708,0.32808 -1.6198,0.64269 -0.69043,0.17912 -2.8346,0.76181 -2.8346,0.76181 0,0 -3.3618,1.1964 -3.7438,1.3081 -0.80966,0.56856 -0.66589,0.34867 -0.95693,2.503 -0.2091,1.838 -0.47357,5.8031 -0.47357,5.8031 l -0.40193,1.4948 c 0,0 0.0766,0.28204 -0.20817,0.30561 -0.24311,0.0201 -0.34712,0.17486 -0.53244,0.79186 -0.12495,0.416 -0.62908,0.92742 -0.91144,1.0067 -1.1715,0.32877 -1.7706,0.4909 -2.0532,0.71782 -0.97906,1.1773 5.3269,0.53152 5.7759,0.53129 0.38806,-0.22764 0.85433,-0.94141 0.94098,-1.4459 0.004,-0.0198 0.004,-0.14833 -0.0373,-0.32948 -0.0499,-0.22211 -0.0434,-0.43217 0.0206,-0.64523 0.0699,-0.23327 0.0711,-0.34464 0.004,-0.4252 -0.0675,-0.0814 -0.0401,-0.40539 0.10845,-1.2781 0.10955,-0.64297 0.22299,-1.4514 0.25215,-1.7966 0.029,-0.34253 0.0744,-0.19 0.10137,-0.19405 h 6.3e-4 c 0.027,3e-4 0.14608,-0.20486 0.26464,0.07319 0.11859,0.27806 0.63472,1.3251 0.99501,2.0955 0.21192,0.45314 0.32955,0.62454 -0.61023,1.483 -0.46719,0.42677 -1.0944,1.1227 -1.2127,1.5074 -0.11074,0.36017 0.44051,0.53675 0.62498,0.46072 l 4.5066,-2.5542 c -0.11721,-1.8704 -0.22816,-0.1906 -0.74466,-2.4059 -0.58331,-2.5019 -1.3468,-2.8266 -2.0027,-3.8656 -0.10589,-0.1678 -0.19251,-0.32405 -0.19251,-0.34721 0,-0.0231 0.63906,-0.0421 1.4202,-0.0421 1.379,0 1.4177,0.004 1.3363,0.1566 -0.11603,0.21677 -0.10308,0.97506 0.0209,1.2202 l 0.10235,0.20246 4.1259,0.081 -0.0959,3.4439 1.5203,-0.43942 0.15465,-3.0449 3.9882,-0.018 c 0,0 0.009,-2.4797 -0.0144,-3.5455 l 0.15232,-0.26321 c 0.26367,-0.45589 0.49882,-1.3701 0.54684,-2.126 0.0254,-0.40089 0.0808,-0.79606 0.12307,-0.87806 0.0489,-0.0948 0.0458,-0.44859 -0.009,-0.97186 -0.0469,-0.45254 -0.12367,-1.4423 -0.17067,-2.1995 -0.12215,-1.9676 -0.42499,-3.4849 -1.1878,-5.9527 -1.1026,-3.5671 -2.2361,-5.3184 -3.9152,-6.0486 -0.9159,-0.39825 -1.0092,-0.4615 -1.1019,-0.74819 -0.1321,-0.40853 0.002,-0.86675 0.40668,-1.3831 1.0004,-1.2785 1.1901,-2.5764 0.58226,-3.9824 -0.15824,-0.366 -0.27958,-0.67362 -0.26953,-0.68366 0.01,-0.01 0.1159,-0.0427 0.23505,-0.0726 0.18642,-0.0468 0.23533,-0.0183 0.35037,0.20421 0.34152,0.66042 0.46629,1.6852 0.28583,2.3477 -0.26754,0.98224 -0.23272,2.1462 0.0838,2.8039 0.30399,0.63161 1.1955,1.3653 1.8931,1.5579 l 0.29722,0.0819 -0.28362,-0.31383 c -0.33627,-0.37221 -0.48512,-0.64443 -0.61343,-1.1213 -0.12775,-0.47486 -0.0434,-0.52327 0.14696,-0.0843 0.34375,0.79264 1.1719,1.2871 2.1558,1.2871 0.28497,0 0.61847,-0.0381 0.74109,-0.0848 l 0.22287,-0.0848 -0.24692,-0.15027 c -0.29476,-0.17926 -0.62823,-0.62104 -0.51947,-0.68825 0.0423,-0.0261 0.0972,-0.0146 0.12213,0.0256 0.0249,0.0402 0.17705,0.0979 0.33819,0.12812 0.22752,0.0427 0.38858,0.008 0.72132,-0.1547 0.23565,-0.11529 0.47784,-0.26899 0.53813,-0.34167 0.10027,-0.12095 0.0876,-0.12092 -0.14965,0.002 -0.49799,0.25744 -1.0319,0.10256 -1.5983,-0.46379 -0.49779,-0.49778 -0.5994,-0.88237 -0.64475,-2.4392 -0.023,-0.78934 -0.0884,-1.4988 -0.16704,-1.8151 -0.37274,-1.4986 -1.3907,-2.6745 -2.488,-2.8738 -0.44296,-0.0804 -0.98193,0.0898 -1.6362,0.51693 l -0.58385,0.38106 -0.38075,-0.34451 c -0.20936,-0.18956 -0.54533,-0.42441 -0.74661,-0.52184 -0.41049,-0.19871 -1.0541,-0.30897 -1.5739,-0.30466 z"
         stroke-width="0.080989"
         id="path197" /></g></g><g
     fill="#ffffff"
     fill-opacity="0.34814"
     id="g202"
     transform="matrix(1.9647415,0,0,1.9647415,49.918738,184.3793)"><path
       d="m 475.62,78.528 -5.9953,1.0682 -0.6886,6.0506 -1.0682,-5.9953 -6.0507,-0.68861 5.9953,-1.0682 0.6886,-6.0507 1.0682,5.9953 z"
       stroke-width="3.0643"
       id="path198" /><path
       d="m 429.94,153.82 -4.4447,-3.7541 -4.8672,3.1874 3.7541,-4.4447 -3.1874,-4.8672 4.4447,3.7541 4.8672,-3.1874 -3.7541,4.4447 z"
       stroke-width="2.9275"
       id="path199" /><path
       d="m 560.72,19.588 -6.1818,0.58661 -1.2034,6.0919 -0.58661,-6.1818 -6.0918,-1.2034 6.1818,-0.58661 1.2034,-6.0919 0.58661,6.1818 z"
       stroke-width="3.1246"
       id="path200" /><path
       d="m 561.13,183.63 -4.5368,0.38132 -0.93032,4.4567 -0.38132,-4.5368 -4.4567,-0.93032 4.5368,-0.38132 0.93032,-4.4567 0.38132,4.5368 z"
       stroke-width="2.2909"
       id="path201" /><path
       d="m 450.67,232.53 -3.7933,-3.4227 -4.3635,2.6577 3.4227,-3.7933 -2.6577,-4.3636 3.7933,3.4227 4.3635,-2.6577 -3.4227,3.7933 z"
       stroke-width="2.5709"
       id="path202" /></g><path
     d="m 1082.6654,385.52954 a 6.8058646,6.8058646 0 0 1 -6.8059,6.80586 6.8058646,6.8058646 0 0 1 -6.8058,-6.80586 6.8058646,6.8058646 0 0 1 6.8058,-6.80587 6.8058646,6.8058646 0 0 1 6.8059,6.80587 z"
     fill="url(#bt)"
     stroke-width="11.8083"
     id="path203"
     style="fill:url(#bt)" /><path
     d="m 1167.5422,478.24569 a 6.323324,6.323324 0 0 1 -8.8093,1.53843 6.323324,6.323324 0 0 1 -1.5384,-8.80931 6.323324,6.323324 0 0 1 8.8093,-1.53844 6.323324,6.323324 0 0 1 1.5384,8.80932 z"
     fill="url(#bp)"
     stroke-width="10.9711"
     id="path204"
     style="fill:url(#bp)" /><path
     d="m 1081.7813,575.28427 a 8.318912,8.318912 0 0 1 -11.5602,2.1844 8.318912,8.318912 0 0 1 -2.1844,-11.56015 8.318912,8.318912 0 0 1 11.5602,-2.1844 8.318912,8.318912 0 0 1 2.1844,11.56015 z"
     fill="url(#bl)"
     stroke-width="14.4336"
     id="path205"
     style="fill:url(#bl)" /><path
     d="m 875.46376,509.05283 a 6.2700795,6.2700795 0 0 1 -6.80645,5.68321 6.2700795,6.2700795 0 0 1 -5.68321,-6.80645 6.2700795,6.2700795 0 0 1 6.80645,-5.68321 6.2700795,6.2700795 0 0 1 5.68321,6.80645 z"
     fill="url(#bj)"
     stroke-width="10.8786"
     id="path206"
     style="fill:url(#bj)" /><path
     d="m 754.7304,403.44798 a 5.6682792,5.6682792 0 0 1 -6.6033,4.54484 5.6682792,5.6682792 0 0 1 -4.54484,-6.6033 5.6682792,5.6682792 0 0 1 6.6033,-4.54484 5.6682792,5.6682792 0 0 1 4.54484,6.6033 z"
     fill="url(#bg)"
     stroke-width="9.83471"
     id="path207"
     style="fill:url(#bg)" /><path
     d="m 904.8563,367.89009 a 5.590279,5.590279 0 0 1 -7.74875,1.56764 5.590279,5.590279 0 0 1 -1.56767,-7.74874 5.590279,5.590279 0 0 1 7.74875,-1.56765 5.590279,5.590279 0 0 1 1.56767,7.74875 z"
     fill="url(#bd)"
     stroke-width="9.69914"
     id="path208"
     style="fill:url(#bd)" /><path
     d="m 809.52704,268.74137 a 6.6414157,6.6414157 0 0 1 -7.98235,4.94958 6.6414157,6.6414157 0 0 1 -4.94958,-7.98235 6.6414157,6.6414157 0 0 1 7.98235,-4.94958 6.6414157,6.6414157 0 0 1 4.94958,7.98235 z"
     fill="url(#ba)"
     stroke-width="11.5228"
     id="path209"
     style="fill:url(#ba)" /><use
     transform="matrix(2.0193613,-0.27983813,0.27983813,2.0193613,-889.30629,-276.72588)"
     xlink:href="#b"
     id="use209" /><use
     transform="matrix(1.1389999,-1.0765998,1.0765998,1.1389999,-460.10851,556.75676)"
     xlink:href="#b"
     id="use210" /><use
     transform="matrix(2.1757547,0.7433403,-0.7433403,2.1757547,-643.08488,-894.20484)"
     xlink:href="#b"
     id="use211" /><use
     transform="matrix(1.2807757,-1.5002373,1.5002373,1.2807757,-517.65579,839.9546)"
     xlink:href="#b"
     id="use212" /><use
     transform="matrix(1.8582722,1.6020306,-1.6020306,1.8582722,204.8445,-1107.2811)"
     xlink:href="#b"
     id="use213" /><use
     transform="matrix(1.3790717,1.0921605,-1.0921605,1.3790717,145.76276,-544.65768)"
     xlink:href="#b"
     id="use214" /><use
     transform="matrix(1.5127331,-1.2693998,1.2693998,1.5127331,-849.48098,593.49742)"
     xlink:href="#b"
     id="use215" /><use
     transform="matrix(1.9704393,0.4032239,-0.4032239,1.9704393,-250.94213,-511.04095)"
     xlink:href="#b"
     id="use216" /><use
     transform="matrix(1.6592438,-1.2899117,1.2899117,1.6592438,-1046.3284,362.05087)"
     xlink:href="#b"
     id="use217" /><use
     transform="matrix(1.1237535,-1.0675619,1.0675619,1.1237535,68.738997,488.42305)"
     xlink:href="#b"
     id="use218" /><use
     transform="matrix(1.6507365,-1.2718951,1.2718951,1.6507365,-562.82519,272.7966)"
     xlink:href="#b"
     id="use219" /><g
     fill="#ffffff"
     fill-opacity="0.34814"
     id="g222"
     transform="matrix(1.9647415,0,0,1.9647415,49.918738,184.3793)"><path
       d="m 1002.1,32.694 -5.9953,1.0682 -0.6886,6.0506 -1.0682,-5.9953 -6.0507,-0.68861 5.9953,-1.0682 0.6886,-6.0507 1.0682,5.9953 z"
       stroke-width="3.0643"
       id="path219" /><path
       d="m 956.38,107.99 -4.4447,-3.7541 -4.8672,3.1874 3.7541,-4.4447 -3.1874,-4.8672 4.4447,3.7541 4.8672,-3.1874 -3.7541,4.4447 z"
       stroke-width="2.9275"
       id="path220" /><path
       d="m 1087.6,137.8 -4.5367,0.38132 -0.9304,4.4567 -0.3813,-4.5368 -4.4567,-0.93032 4.5368,-0.38132 0.9303,-4.4567 0.3813,4.5368 z"
       stroke-width="2.2909"
       id="path221" /><path
       d="m 977.11,186.7 -3.7933,-3.4227 -4.3635,2.6577 3.4227,-3.7933 -2.6577,-4.3636 3.7933,3.4227 4.3635,-2.6577 -3.4227,3.7933 z"
       stroke-width="2.5709"
       id="path222" /></g><path
     d="m 2117.0232,295.47954 a 6.8058646,6.8058646 0 0 1 -6.8059,6.80586 6.8058646,6.8058646 0 0 1 -6.8058,-6.80586 6.8058646,6.8058646 0 0 1 6.8058,-6.80587 6.8058646,6.8058646 0 0 1 6.8059,6.80587 z"
     fill="url(#bu)"
     stroke-width="11.8083"
     id="path223"
     style="fill:url(#bu)" /><path
     d="m 2201.9,388.20158 a 6.323324,6.323324 0 0 1 -8.8093,1.53844 6.323324,6.323324 0 0 1 -1.5384,-8.80932 6.323324,6.323324 0 0 1 8.8094,-1.53843 6.323324,6.323324 0 0 1 1.5383,8.80931 z"
     fill="url(#bo)"
     stroke-width="10.9711"
     id="path224"
     style="fill:url(#bo)" /><path
     d="m 2116.0408,485.24017 a 8.318912,8.318912 0 0 1 -11.5603,2.1844 8.318912,8.318912 0 0 1 -2.1844,-11.56015 8.318912,8.318912 0 0 1 11.5601,-2.1844 8.318912,8.318912 0 0 1 2.1846,11.56015 z"
     fill="url(#bm)"
     stroke-width="14.4336"
     id="path225"
     style="fill:url(#bm)" /><path
     d="m 1909.7823,418.98908 a 6.2700795,6.2700795 0 0 1 -6.8065,5.68321 6.2700795,6.2700795 0 0 1 -5.6832,-6.80645 6.2700795,6.2700795 0 0 1 6.8065,-5.68321 6.2700795,6.2700795 0 0 1 5.6832,6.80645 z"
     fill="url(#bi)"
     stroke-width="10.8786"
     id="path226"
     style="fill:url(#bi)" /><path
     d="m 1789.0489,313.39798 a 5.6682792,5.6682792 0 0 1 -6.6033,4.54484 5.6682792,5.6682792 0 0 1 -4.5448,-6.6033 5.6682792,5.6682792 0 0 1 6.6033,-4.54484 5.6682792,5.6682792 0 0 1 4.5448,6.6033 z"
     fill="url(#bf)"
     stroke-width="9.83471"
     id="path227"
     style="fill:url(#bf)" /><path
     d="m 1939.1748,277.84009 a 5.590279,5.590279 0 0 1 -7.7487,1.56765 5.590279,5.590279 0 0 1 -1.5677,-7.74875 5.590279,5.590279 0 0 1 7.7487,-1.56765 5.590279,5.590279 0 0 1 1.5677,7.74875 z"
     fill="url(#bc)"
     stroke-width="9.69914"
     id="path228"
     style="fill:url(#bc)" /><path
     d="m 1843.8456,178.69098 a 6.6414157,6.6414157 0 0 1 -7.9824,4.94958 6.6414157,6.6414157 0 0 1 -4.9496,-7.98235 6.6414157,6.6414157 0 0 1 7.9824,-4.94958 6.6414157,6.6414157 0 0 1 4.9496,7.98235 z"
     fill="url(#az)"
     stroke-width="11.5228"
     id="path229"
     style="fill:url(#az)" /><use
     transform="matrix(2.0193613,-0.27983813,0.27983813,2.0193613,145.01419,-366.78963)"
     xlink:href="#b"
     id="use229" /><use
     transform="matrix(1.1389999,-1.0765998,1.0765998,1.1389999,574.21001,466.69301)"
     xlink:href="#b"
     id="use230" /><use
     transform="matrix(1.2807757,-1.5002373,1.5002373,1.2807757,516.66273,749.91049)"
     xlink:href="#b"
     id="use231" /><use
     transform="matrix(1.8582722,1.6020306,-1.6020306,1.8582722,1239.1571,-1197.3252)"
     xlink:href="#b"
     id="use232" /><use
     transform="matrix(1.3790717,1.0921605,-1.0921605,1.3790717,1180.0773,-634.72143)"
     xlink:href="#b"
     id="use233" /><use
     transform="matrix(1.5127331,-1.2693998,1.2693998,1.5127331,184.82575,503.45332)"
     xlink:href="#b"
     id="use234" /><use
     transform="matrix(1.9704393,0.4032239,-0.4032239,1.9704393,783.37633,-601.1047)"
     xlink:href="#b"
     id="use235" /><use
     transform="matrix(1.6592438,-1.2899117,1.2899117,1.6592438,-12.013844,272.00088)"
     xlink:href="#b"
     id="use236" /><use
     transform="matrix(1.1237535,-1.0675619,1.0675619,1.1237535,1103.0594,398.3593)"
     xlink:href="#b"
     id="use237" /><use
     transform="matrix(2.0193613,-0.27983813,0.27983813,2.0193613,1421.2297,-324.27263)"
     xlink:href="#b"
     id="use238" /><use
     transform="matrix(2.1757547,0.7433403,-0.7433403,2.1757547,1667.4314,-941.75158)"
     xlink:href="#b"
     id="use239" /><use
     transform="matrix(1.6592438,-1.2899117,1.2899117,1.6592438,1264.1879,314.5002)"
     xlink:href="#b"
     id="use240" /></svg>
