<svg width="1280" height="640" version="1.1" viewBox="0 0 1280 640" xml:space="preserve" xmlns="http://www.w3.org/2000/svg" xmlns:xlink="http://www.w3.org/1999/xlink"><defs><linearGradient id="a"><stop stop-color="#fff" stop-opacity=".42605" offset="0"/><stop stop-color="#fff" stop-opacity="0" offset="1"/></linearGradient><radialGradient id="aw" cx="105.73" cy="72.437" r="77.382" gradientTransform="matrix(8.3026 0 0 4.1595 -237.87 17.936)" gradientUnits="userSpaceOnUse"><stop stop-color="#3574a2" offset="0"/><stop stop-color="#152e43" offset="1"/></radialGradient><radialGradient id="bv" cx="56.429" cy="115.41" r="2" gradientTransform="matrix(1.732 0 0 1.732 470.8 306.12)" gradientUnits="userSpaceOnUse" xlink:href="#a"/><radialGradient id="am" cx="56.429" cy="115.41" r="2" gradientTransform="matrix(1.1353 -1.2513 1.2513 1.1353 268.67 343.72)" gradientUnits="userSpaceOnUse" xlink:href="#a"/><radialGradient id="ah" cx="56.429" cy="115.41" r="2" gradientTransform="matrix(1.1322 .69769 -.69769 1.1322 455.99 150.58)" gradientUnits="userSpaceOnUse" xlink:href="#a"/><radialGradient id="ab" cx="56.429" cy="115.41" r="2" gradientTransform="matrix(1.7414 -.17805 .17805 1.7414 347.01 76.937)" gradientUnits="userSpaceOnUse" xlink:href="#a"/><radialGradient id="q" cx="56.429" cy="115.41" r="2" gradientTransform="matrix(1.3677 -.049521 .049521 1.3677 398.86 192.75)" gradientUnits="userSpaceOnUse" xlink:href="#a"/><radialGradient id="cp" cx="56.429" cy="115.41" r="2" gradientTransform="matrix(1.0283 -1.0182 1.0182 1.0283 456.62 224.8)" gradientUnits="userSpaceOnUse" xlink:href="#a"/><radialGradient id="cg" cx="56.429" cy="115.41" r="2" gradientTransform="matrix(1.5217 .081222 -.081222 1.5217 538.45 62.21)" gradientUnits="userSpaceOnUse" xlink:href="#a"/><radialGradient id="ce" cx="56.429" cy="115.41" r="2" gradientTransform="matrix(1.1972 .74599 -.74599 1.1972 664.21 129.41)" gradientUnits="userSpaceOnUse" xlink:href="#a"/><radialGradient id="cd" cx="56.429" cy="115.41" r="2" gradientTransform="matrix(1.6756 -.30364 .30364 1.6756 613.11 49.088)" gradientUnits="userSpaceOnUse" xlink:href="#a"/><radialGradient id="cc" cx="56.429" cy="115.41" r="2" gradientTransform="matrix(1.169 -1.239 1.239 1.169 664.83 188.16)" gradientUnits="userSpaceOnUse" xlink:href="#a"/><radialGradient id="cb" cx="56.429" cy="115.41" r="2" gradientTransform="matrix(1.5807 -.91354 .91354 1.5807 805.81 95.512)" gradientUnits="userSpaceOnUse" xlink:href="#a"/><radialGradient id="ca" cx="56.429" cy="115.41" r="2" gradientTransform="matrix(1.3518 .61665 -.61665 1.3518 1083.2 26.939)" gradientUnits="userSpaceOnUse" xlink:href="#a"/><radialGradient id="bz" cx="56.429" cy="115.41" r="2" gradientTransform="matrix(1.6827 .95292 -.95292 1.6827 1036.9 120.25)" gradientUnits="userSpaceOnUse" xlink:href="#a"/><radialGradient id="by" cx="56.429" cy="115.41" r="2" gradientTransform="matrix(1.5158 -.2141 .2141 1.5158 1013.9 182.58)" gradientUnits="userSpaceOnUse" xlink:href="#a"/><radialGradient id="bx" cx="56.429" cy="115.41" r="2" gradientTransform="matrix(1.4596 -1.5029 1.5029 1.4596 892.87 231.82)" gradientUnits="userSpaceOnUse" xlink:href="#a"/><radialGradient id="bw" cx="56.429" cy="115.41" r="2" gradientTransform="matrix(1.6952 -.85349 .85349 1.6952 951.74 265.13)" gradientUnits="userSpaceOnUse" xlink:href="#a"/><radialGradient id="bs" cx="56.429" cy="115.41" r="2" gradientTransform="matrix(1.3217 1.5724 -1.5724 1.3217 1004.9 341.66)" gradientUnits="userSpaceOnUse" xlink:href="#a"/><radialGradient id="br" cx="56.429" cy="115.41" r="2" gradientTransform="matrix(1.9131 .65938 -.65938 1.9131 714.67 342.12)" gradientUnits="userSpaceOnUse" xlink:href="#a"/><radialGradient id="bq" cx="56.429" cy="115.41" r="2" gradientTransform="matrix(1.3167 .92517 -.92517 1.3167 645.04 347.19)" gradientUnits="userSpaceOnUse" xlink:href="#a"/><radialGradient id="bn" cx="56.429" cy="115.41" r="2" gradientTransform="matrix(1.7489 1.193 -1.193 1.7489 607.05 331.04)" gradientUnits="userSpaceOnUse" xlink:href="#a"/><radialGradient id="bk" cx="56.429" cy="115.41" r="2" gradientTransform="matrix(1.5892 .14294 -.14294 1.5892 390.18 377.11)" gradientUnits="userSpaceOnUse" xlink:href="#a"/><radialGradient id="bh" cx="56.429" cy="115.41" r="2" gradientTransform="matrix(1.4185 .26193 -.26193 1.4185 352.43 336.11)" gradientUnits="userSpaceOnUse" xlink:href="#a"/><radialGradient id="be" cx="56.429" cy="115.41" r="2" gradientTransform="matrix(1.1854 .78652 -.78652 1.1854 503.01 314.26)" gradientUnits="userSpaceOnUse" xlink:href="#a"/><radialGradient id="bb" cx="56.429" cy="115.41" r="2" gradientTransform="matrix(1.6455 .38589 -.38589 1.6455 381.37 234.11)" gradientUnits="userSpaceOnUse" xlink:href="#a"/><radialGradient id="ay" cx="56.429" cy="115.41" r="2" gradientTransform="matrix(1.3606 .4446 -.4446 1.3606 433.74 194.28)" gradientUnits="userSpaceOnUse" xlink:href="#a"/><radialGradient id="ax" cx="56.429" cy="115.41" r="2" gradientTransform="matrix(1.2984 .040666 -.040666 1.2984 493.19 96.423)" gradientUnits="userSpaceOnUse" xlink:href="#a"/><radialGradient id="av" cx="56.429" cy="115.41" r="2" gradientTransform="matrix(1.0014 1.4476 -1.4476 1.0014 752.18 186.72)" gradientUnits="userSpaceOnUse" xlink:href="#a"/><radialGradient id="au" cx="56.429" cy="115.41" r="2" gradientTransform="matrix(1.3929 1.3086 -1.3086 1.3929 750.7 154.45)" gradientUnits="userSpaceOnUse" xlink:href="#a"/><radialGradient id="at" cx="56.429" cy="115.41" r="2" gradientTransform="matrix(1.4938 .22905 -.22905 1.4938 650.09 231.9)" gradientUnits="userSpaceOnUse" xlink:href="#a"/><radialGradient id="as" cx="56.429" cy="115.41" r="2" gradientTransform="matrix(1.3337 1.5113 -1.5113 1.3337 887.77 103.91)" gradientUnits="userSpaceOnUse" xlink:href="#a"/><radialGradient id="ar" cx="56.429" cy="115.41" r="2" gradientTransform="matrix(1.3579 .85954 -.85954 1.3579 914.85 212.14)" gradientUnits="userSpaceOnUse" xlink:href="#a"/><radialGradient id="aq" cx="56.429" cy="115.41" r="2" gradientTransform="matrix(1.637 -1.2753 1.2753 1.637 748.52 311.81)" gradientUnits="userSpaceOnUse" xlink:href="#a"/><radialGradient id="ap" cx="56.429" cy="115.41" r="2" gradientTransform="matrix(1.8443 1.05 -1.05 1.8443 1171.3 126.47)" gradientUnits="userSpaceOnUse" xlink:href="#a"/><radialGradient id="ao" cx="56.429" cy="115.41" r="2" gradientTransform="matrix(1.4337 -.028349 .028349 1.4337 1005.3 173.17)" gradientUnits="userSpaceOnUse" xlink:href="#a"/><radialGradient id="an" cx="56.429" cy="115.41" r="2" gradientTransform="matrix(1.1611 -1.4082 1.4082 1.1611 1012.1 244.67)" gradientUnits="userSpaceOnUse" xlink:href="#a"/><radialGradient id="al" cx="56.429" cy="115.41" r="2" gradientTransform="matrix(1.3571 .9049 -.9049 1.3571 1283.6 142.39)" gradientUnits="userSpaceOnUse" xlink:href="#a"/><radialGradient id="ak" cx="56.429" cy="115.41" r="2" gradientTransform="matrix(.86364 -.97383 .97383 .86364 1114.6 297.53)" gradientUnits="userSpaceOnUse" xlink:href="#a"/><radialGradient id="aj" cx="56.429" cy="115.41" r="2" gradientTransform="matrix(1.1713 .85338 -.85338 1.1713 1309.2 152.02)" gradientUnits="userSpaceOnUse" xlink:href="#a"/><radialGradient id="ai" cx="56.429" cy="115.41" r="2" gradientTransform="matrix(1.2897 .42913 -.42913 1.2897 1240.4 69.658)" gradientUnits="userSpaceOnUse" xlink:href="#a"/><radialGradient id="ag" cx="56.429" cy="115.41" r="2" gradientTransform="matrix(1.4611 -.0056942 .0056942 1.4611 791.16 413.9)" gradientUnits="userSpaceOnUse" xlink:href="#a"/><radialGradient id="af" cx="56.429" cy="115.41" r="2" gradientTransform="matrix(1.3586 -.93482 .93482 1.3586 650.54 453.64)" gradientUnits="userSpaceOnUse" xlink:href="#a"/><radialGradient id="ae" cx="56.429" cy="115.41" r="2" gradientTransform="matrix(1.4137 -1.6451 1.6451 1.4137 518.03 440.75)" gradientUnits="userSpaceOnUse" xlink:href="#a"/><radialGradient id="ad" cx="56.429" cy="115.41" r="2" gradientTransform="matrix(1.4739 1.2119 -1.2119 1.4739 769.47 100.03)" gradientUnits="userSpaceOnUse" xlink:href="#a"/><radialGradient id="ac" cx="56.429" cy="115.41" r="2" gradientTransform="matrix(1.3446 -.061378 .061378 1.3446 469.63 224.31)" gradientUnits="userSpaceOnUse" xlink:href="#a"/><radialGradient id="aa" cx="56.429" cy="115.41" r="2" gradientTransform="matrix(1.7569 .46083 -.46083 1.7569 480.16 168.28)" gradientUnits="userSpaceOnUse" xlink:href="#a"/><radialGradient id="z" cx="56.429" cy="115.41" r="2" gradientTransform="matrix(.96401 1.4162 -1.4162 .96401 683.29 216.85)" gradientUnits="userSpaceOnUse" xlink:href="#a"/><radialGradient id="y" cx="56.429" cy="115.41" r="2" gradientTransform="matrix(1.9685 .92818 -.92818 1.9685 575.4 105.28)" gradientUnits="userSpaceOnUse" xlink:href="#a"/><radialGradient id="x" cx="56.429" cy="115.41" r="2" gradientTransform="matrix(1.3717 -.086449 .086449 1.3717 648.83 346.38)" gradientUnits="userSpaceOnUse" xlink:href="#a"/><radialGradient id="w" cx="56.429" cy="115.41" r="2" gradientTransform="matrix(1.1857 -.85483 .85483 1.1857 551.61 335.99)" gradientUnits="userSpaceOnUse" xlink:href="#a"/><radialGradient id="v" cx="56.429" cy="115.41" r="2" gradientTransform="matrix(1.4459 1.6312 -1.6312 1.4459 916.68 294.4)" gradientUnits="userSpaceOnUse" xlink:href="#a"/><radialGradient id="u" cx="56.429" cy="115.41" r="2" gradientTransform="matrix(1.4145 1.5868 -1.5868 1.4145 845.35 315.08)" gradientUnits="userSpaceOnUse" xlink:href="#a"/><radialGradient id="t" cx="56.429" cy="115.41" r="2" gradientTransform="matrix(1.3582 1.439 -1.439 1.3582 940.3 232.98)" gradientUnits="userSpaceOnUse" xlink:href="#a"/><radialGradient id="s" cx="56.429" cy="115.41" r="2" gradientTransform="matrix(1.7178 1.0336 -1.0336 1.7178 901.7 168.44)" gradientUnits="userSpaceOnUse" xlink:href="#a"/><radialGradient id="r" cx="56.429" cy="115.41" r="2" gradientTransform="matrix(1.4791 .19995 -.19995 1.4791 911.18 193.9)" gradientUnits="userSpaceOnUse" xlink:href="#a"/><radialGradient id="p" cx="56.429" cy="115.41" r="2" gradientTransform="matrix(1.3797 .2384 -.2384 1.3797 975.56 318.52)" gradientUnits="userSpaceOnUse" xlink:href="#a"/><radialGradient id="o" cx="56.429" cy="115.41" r="2" gradientTransform="matrix(1.3486 -.34717 .34717 1.3486 762.88 357.31)" gradientUnits="userSpaceOnUse" xlink:href="#a"/><radialGradient id="n" cx="56.429" cy="115.41" r="2" gradientTransform="matrix(1.7318 -1.3041 1.3041 1.7318 529.57 413)" gradientUnits="userSpaceOnUse" xlink:href="#a"/><radialGradient id="m" cx="56.429" cy="115.41" r="2" gradientTransform="matrix(1.4711 1.2652 -1.2652 1.4711 999.2 324.86)" gradientUnits="userSpaceOnUse" xlink:href="#a"/><radialGradient id="l" cx="56.429" cy="115.41" r="2" gradientTransform="matrix(1.3766 -.74995 .74995 1.3766 751.56 431.48)" gradientUnits="userSpaceOnUse" xlink:href="#a"/><radialGradient id="k" cx="56.429" cy="115.41" r="2" gradientTransform="matrix(1.6864 .091311 -.091311 1.6864 764.71 359.81)" gradientUnits="userSpaceOnUse" xlink:href="#a"/><radialGradient id="j" cx="56.429" cy="115.41" r="2" gradientTransform="matrix(1.0373 1.4049 -1.4049 1.0373 967.28 388.97)" gradientUnits="userSpaceOnUse" xlink:href="#a"/><radialGradient id="i" cx="56.429" cy="115.41" r="2" gradientTransform="matrix(1.2828 1.6413 -1.6413 1.2828 969.78 306.75)" gradientUnits="userSpaceOnUse" xlink:href="#a"/><radialGradient id="h" cx="56.429" cy="115.41" r="2" gradientTransform="matrix(1.334 .74639 -.74639 1.334 785.89 380.54)" gradientUnits="userSpaceOnUse" xlink:href="#a"/><radialGradient id="g" cx="56.429" cy="115.41" r="2" gradientTransform="matrix(1.2997 .77822 -.77822 1.2997 835.1 418.15)" gradientUnits="userSpaceOnUse" xlink:href="#a"/><radialGradient id="f" cx="56.429" cy="115.41" r="2" gradientTransform="matrix(1.945 -.20788 .20788 1.945 592 153.08)" gradientUnits="userSpaceOnUse" xlink:href="#a"/><radialGradient id="e" cx="56.429" cy="115.41" r="2" gradientTransform="matrix(1.1789 -1.3732 1.3732 1.1789 366.33 329.39)" gradientUnits="userSpaceOnUse" xlink:href="#a"/><radialGradient id="d" cx="56.429" cy="115.41" r="2" gradientTransform="matrix(1.3882 -.88987 .88987 1.3882 425.48 251.9)" gradientUnits="userSpaceOnUse" xlink:href="#a"/><radialGradient id="co" cx="56.429" cy="115.41" r="2" gradientTransform="matrix(1.4164 .01873 -.01873 1.4164 532.83 150.23)" gradientUnits="userSpaceOnUse" xlink:href="#a"/><radialGradient id="cn" cx="56.429" cy="115.41" r="2" gradientTransform="matrix(1.9374 .068971 -.068971 1.9374 463.72 121.53)" gradientUnits="userSpaceOnUse" xlink:href="#a"/><radialGradient id="cm" cx="56.429" cy="115.41" r="2" gradientTransform="matrix(1.2682 -.34298 .34298 1.2682 484.77 184.96)" gradientUnits="userSpaceOnUse" xlink:href="#a"/><radialGradient id="cl" cx="56.429" cy="115.41" r="2" gradientTransform="matrix(1.7242 -1.1042 1.1042 1.7242 439.16 179.52)" gradientUnits="userSpaceOnUse" xlink:href="#a"/><radialGradient id="ck" cx="56.429" cy="115.41" r="2" gradientTransform="matrix(1.3396 .39203 -.39203 1.3396 603.62 135.82)" gradientUnits="userSpaceOnUse" xlink:href="#a"/><radialGradient id="cj" cx="56.429" cy="115.41" r="2" gradientTransform="matrix(1.6061 -.22085 .22085 1.6061 331.27 152.71)" gradientUnits="userSpaceOnUse" xlink:href="#a"/><radialGradient id="ci" cx="56.429" cy="115.41" r="2" gradientTransform="matrix(.89019 -1.1235 1.1235 .89019 452.94 286.55)" gradientUnits="userSpaceOnUse" xlink:href="#a"/><radialGradient id="ch" cx="56.429" cy="115.41" r="2" gradientTransform="matrix(1.805 -.97802 .97802 1.805 474.29 126.97)" gradientUnits="userSpaceOnUse" xlink:href="#a"/><radialGradient id="cf" cx="56.429" cy="115.41" r="2" gradientTransform="matrix(1.857 1.0996 -1.0996 1.857 958.77 108.89)" gradientUnits="userSpaceOnUse" xlink:href="#a"/><radialGradient id="bt" cx="56.429" cy="115.41" r="2" gradientTransform="matrix(1.732 0 0 1.732 424.44 -97.516)" gradientUnits="userSpaceOnUse" xlink:href="#a"/><radialGradient id="bp" cx="56.429" cy="115.41" r="2" gradientTransform="matrix(1.3167 .92517 -.92517 1.3167 598.68 -56.447)" gradientUnits="userSpaceOnUse" xlink:href="#a"/><radialGradient id="bl" cx="56.429" cy="115.41" r="2" gradientTransform="matrix(1.7489 1.193 -1.193 1.7489 560.69 -72.592)" gradientUnits="userSpaceOnUse" xlink:href="#a"/><radialGradient id="bj" cx="56.429" cy="115.41" r="2" gradientTransform="matrix(1.5892 .14294 -.14294 1.5892 343.82 -26.523)" gradientUnits="userSpaceOnUse" xlink:href="#a"/><radialGradient id="bg" cx="56.429" cy="115.41" r="2" gradientTransform="matrix(1.4185 .26193 -.26193 1.4185 306.07 -67.521)" gradientUnits="userSpaceOnUse" xlink:href="#a"/><radialGradient id="bd" cx="56.429" cy="115.41" r="2" gradientTransform="matrix(1.1854 .78652 -.78652 1.1854 456.65 -89.37)" gradientUnits="userSpaceOnUse" xlink:href="#a"/><radialGradient id="ba" cx="56.429" cy="115.41" r="2" gradientTransform="matrix(1.6455 .38589 -.38589 1.6455 335.01 -169.52)" gradientUnits="userSpaceOnUse" xlink:href="#a"/><radialGradient id="bu" cx="56.429" cy="115.41" r="2" gradientTransform="matrix(1.732 0 0 1.732 950.88 -143.35)" gradientUnits="userSpaceOnUse" xlink:href="#a"/><radialGradient id="bo" cx="56.429" cy="115.41" r="2" gradientTransform="matrix(1.3167 .92517 -.92517 1.3167 1125.1 -102.28)" gradientUnits="userSpaceOnUse" xlink:href="#a"/><radialGradient id="bm" cx="56.429" cy="115.41" r="2" gradientTransform="matrix(1.7489 1.193 -1.193 1.7489 1087.1 -118.43)" gradientUnits="userSpaceOnUse" xlink:href="#a"/><radialGradient id="bi" cx="56.429" cy="115.41" r="2" gradientTransform="matrix(1.5892 .14294 -.14294 1.5892 870.26 -72.356)" gradientUnits="userSpaceOnUse" xlink:href="#a"/><radialGradient id="bf" cx="56.429" cy="115.41" r="2" gradientTransform="matrix(1.4185 .26193 -.26193 1.4185 832.51 -113.35)" gradientUnits="userSpaceOnUse" xlink:href="#a"/><radialGradient id="bc" cx="56.429" cy="115.41" r="2" gradientTransform="matrix(1.1854 .78652 -.78652 1.1854 983.09 -135.2)" gradientUnits="userSpaceOnUse" xlink:href="#a"/><radialGradient id="az" cx="56.429" cy="115.41" r="2" gradientTransform="matrix(1.6455 .38589 -.38589 1.6455 861.45 -215.35)" gradientUnits="userSpaceOnUse" xlink:href="#a"/></defs><text x="47.718201" y="101.79141" fill="#1a1a1a" font-family="Audiowide" font-size="11.289px" stroke-width="3.47" xml:space="preserve"><tspan x="47.718201" y="101.79141" stroke-width="3.47"/></text><path d="m-2.5067-2.6308h1284.9v643.74h-1284.9z" fill="url(#aw)" stroke-width="24.662"/><g fill="#fff" fill-opacity=".34814"><path d="m1106.7 149.42-3.0932-2.8665-3.6306 2.1456 2.8666-3.0932-2.1457-3.6306 3.0932 2.8666 3.6306-2.1456-2.8666 3.0932z" stroke-width="2.1221"/><path d="m1067.2 186.79-6.6322 1.2543-0.6922 6.7142-1.2543-6.6322-6.7143-0.69215 6.6323-1.2543 0.6921-6.7142 1.2543 6.6322z" stroke-width="3.3964"/><path d="m1144.9 239.27-3.0378 2.9444 1.954 3.7523-2.9443-3.0379-3.7524 1.9541 3.038-2.9444-1.9542-3.7523 2.9445 3.0379z" stroke-width="2.1288"/><path d="m1096.5 208.66-5.3141 2.3443 0.7286 5.7624-2.3444-5.3142-5.7624 0.72887 5.3142-2.3443-0.7285-5.7624 2.3442 5.3142z" stroke-width="2.9227"/><path d="m966.06 235.77-1.9481 4.0692 3.3434 3.0291-4.0692-1.948-3.0291 3.3433 1.9481-4.0692-3.3433-3.0291 4.0691 1.948z" stroke-width="2.2701"/><path d="m765.26 504.66-3.9823 2.9479 1.6877 4.6584-2.9479-3.9823-4.6583 1.6877 3.9823-2.9479-1.6877-4.6584 2.9479 3.9823z" stroke-width="2.4931"/><path d="m665.05 497.98-4.2039-0.0276-1.2275 4.0208 0.0276-4.2039-4.0208-1.2275 4.2039 0.0276 1.2275-4.0208-0.0276 4.2039z" stroke-width="2.1154"/><path d="m559.32 338.35-4.3459-1.1348-2.3287 3.8408 1.1348-4.3459-3.8407-2.3287 4.3459 1.1348 2.3287-3.8408-1.1348 4.3459z" stroke-width="2.2601"/><path id="b" d="m480.84 355.53-5.0914-0.61299-2.0416 4.7042 0.61299-5.0914-4.7042-2.0416 5.0914 0.61299 2.0416-4.7042-0.61299 5.0914z" fill="#fff" fill-opacity=".34814" stroke-width="2.5804"/><path d="m521.98 482.16-5.9953 1.0682-0.6886 6.0506-1.0682-5.9953-6.0507-0.68861 5.9953-1.0682 0.6886-6.0507 1.0682 5.9953z" stroke-width="3.0643"/><path d="m476.3 557.46-4.4447-3.7541-4.8672 3.1874 3.7541-4.4447-3.1874-4.8672 4.4447 3.7541 4.8672-3.1874-3.7541 4.4447z" stroke-width="2.9275"/><path d="m774.84 565.76-5.2766-1.0092-2.4742 4.7686 1.0092-5.2766-4.7686-2.4742 5.2766 1.0092 2.4742-4.7685-1.0092 5.2766z" stroke-width="2.7032"/><path d="m1273.6 338.29-3.5601 3.5717 2.4061 4.4319-3.5717-3.5601-4.4319 2.4061 3.5602-3.5717-2.4062-4.4319 3.5717 3.5601z" stroke-width="2.5376"/><path d="m1217.7 193.79-5.0506 1.9472 0.4233 5.3964-1.9471-5.0507-5.3965 0.42356 5.0508-1.9472-0.4234-5.3965 1.9472 5.0507z" stroke-width="2.7238"/><path d="m1102.5 160.51-4.2835 3.3949 2.0301 5.0746-3.3949-4.2834-5.0746 2.0301 4.2834-3.3949-2.0301-5.0746 3.3949 4.2834z" stroke-width="2.7502"/><path d="m647.94 204.3-4.1843 0.67098-0.55205 4.2016-0.67098-4.1843-4.2016-0.55205 4.1843-0.67098 0.55205-4.2016 0.67098 4.1843z" stroke-width="2.1324"/><path d="m663.82 206.94-4.1558 0.0551-1.1337 3.9986-0.0551-4.1558-3.9986-1.1337 4.1558-0.0551 1.1337-3.9986 0.0551 4.1558z" stroke-width="2.0914"/><path d="m690.35 356.83-3.9848 2.7494 1.4968 4.6041-2.7494-3.9848-4.6041 1.4968 3.9848-2.7494-1.4968-4.6041 2.7494 3.9848z" stroke-width="2.4361"/><path d="m956.43 292.32-4.4723-4.041-5.15 3.1319 4.041-4.4723-3.1319-5.15 4.4724 4.041 5.15-3.1319-4.041 4.4723z" stroke-width="3.033"/><path d="m923.34 322.91-3.6654 2.1608 1.0238 4.1298-2.1607-3.6654-4.1299 1.0239 3.6654-2.1608-1.0238-4.1298 2.1607 3.6654z" stroke-width="2.141"/><path d="m938.55 362.57-4.9197 1.2303-0.22547 5.0661-1.2303-4.9196-5.0661-0.22606 4.9196-1.2303 0.22646-5.0661 1.2303 4.9196z" stroke-width="2.5517"/><path d="m1086.9 305.93-2.8015 3.7439 2.7879 3.7541-3.7439-2.8015-3.7541 2.7878 2.8015-3.7439-2.7878-3.7541 3.7439 2.8015z" stroke-width="2.3529"/><path d="m921.13 363.59-3.7681-1.5773-2.5878 3.1607 1.5773-3.7682-3.1608-2.5878 3.7682 1.5773 2.5877-3.1607-1.5773 3.7682z" stroke-width="2.0555"/><path d="m831.16 455.61-2.2257 4.7046 3.8729 3.4767-4.7046-2.2258-3.4767 3.8729 2.2258-4.7046-3.8729-3.4767 4.7045 2.2257z" stroke-width="2.6188"/><path d="m811.8 468.43-3.9536 2.6124 1.3744 4.5351-2.6124-3.9536-4.5351 1.3744 3.9536-2.6124-1.3744-4.5351 2.6124 3.9536z" stroke-width="2.3845"/><path d="m798.8 381.63-4.4597 1.0814-0.23728 4.5827-1.0814-4.4596-4.5828-0.23738 4.4597-1.0814 0.23728-4.5827 1.0814 4.4596z" stroke-width="2.3091"/><path d="m946.85 268.49-6.453-1.2917-3.0809 5.8154 1.2916-6.4531-5.8153-3.0809 6.453 1.2917 3.0809-5.8154-1.2916 6.4531z" stroke-width="3.3115"/><path d="m747.89 204.3-5.2346-2.3995-3.7946 4.3312 2.3995-5.2346-4.3312-3.7946 5.2346 2.3995 3.7946-4.3312-2.3995 5.2346z" stroke-width="2.8975"/><path d="m667.12 189.38-5.2184-2.9203-4.2891 4.167 2.9203-5.2184-4.167-4.2891 5.2184 2.9203 4.2891-4.167-2.9203 5.2184z" stroke-width="3.0091"/><path d="m685.01 462.62-4.6822-2.5392-3.7708 3.7619 2.5393-4.6822-3.7619-3.7708 4.6822 2.5392 3.7708-3.7619-2.5393 4.6822z" stroke-width="2.6802"/><path d="m691.72 571.73-4.8908 0.0994-1.3017 4.7155-0.0993-4.8908-4.7155-1.3017 4.8908-0.0994 1.3017-4.7154 0.0993 4.8908z" stroke-width="2.4615"/><path d="m841.41 307.86-4.2948 2.176 0.85854 4.7374-2.176-4.2948-4.7373 0.85874 4.2948-2.176-0.85855-4.7374 2.176 4.2948z" stroke-width="2.4227"/><path d="m1101.2 379.39-5.3317 1.0613-0.5061 5.4128-1.0613-5.3317-5.4128-0.50568 5.3317-1.0613 0.5061-5.4128 1.0614 5.3317z" stroke-width="2.7355"/><path d="m942.7 185.2-3.2722 5.759 4.5845 4.7807-5.759-3.2722-4.7807 4.5845 3.2722-5.759-4.5845-4.7807 5.7589 3.2722z" stroke-width="3.333"/><path d="m1026.1 137.71-4.0729-2.1591-3.2324 3.2865 2.1591-4.0728-3.2866-3.2324 4.0729 2.1591 3.2324-3.2865-2.1591 4.0728z" stroke-width="2.3196"/><path d="m1038.5 209.29-5.5874-1.1321-2.6808 5.0314 1.132-5.5875-5.0313-2.6808 5.5874 1.1321 2.6808-5.0314-1.132 5.5875z" stroke-width="2.8687"/><path d="m856.81 192.34-2.2773 4.4759 3.6392 3.4607-4.4759-2.2772-3.4608 3.6391 2.2772-4.4759-3.6391-3.4607 4.476 2.2772z" stroke-width="2.527"/><path d="m838.83 181.17-2.6945 3.8713 2.9405 3.6879-3.8713-2.6944-3.6879 2.9405 2.6945-3.8713-2.9405-3.6879 3.8713 2.6944z" stroke-width="2.3734"/><path d="m814.73 133.08-2.3274 4.466 3.6152 3.506-4.466-2.3274-3.5059 3.6153 2.3274-4.466-3.6153-3.506 4.466 2.3274z" stroke-width="2.5341"/><path d="m1024.9 312.82-5.9448-1.2138-2.8612 5.3506 1.2138-5.9449-5.3506-2.8611 5.9449 1.2138 2.8611-5.3506-1.2138 5.9449z" stroke-width="3.0531"/><path d="m885.07 422.66-4.7232-1.9579-3.2252 3.9672 1.9579-4.7232-3.9672-3.2253 4.7231 1.9579 3.2253-3.9672-1.9579 4.7232z" stroke-width="2.5727"/><path d="m1051.5 400.87-5.5896-1.5509-3.0828 4.9138 1.5509-5.5896-4.9138-3.0828 5.5896 1.5509 3.0828-4.9138-1.551 5.5896z" stroke-width="2.9189"/><path d="m887.63 573.33-3.8466 2.6953 1.4844 4.4562-2.6954-3.8466-4.4562 1.4844 3.8466-2.6954-1.4845-4.4562 2.6954 3.8466z" stroke-width="2.3634"/><path d="m824.86 382-2.8522 3.2464 2.2965 3.6606-3.2464-2.8522-3.6605 2.2965 2.8522-3.2464-2.2966-3.6606 3.2464 2.8522z" stroke-width="2.1745"/><path d="m748.3 476.22-4.4749 5.1539 3.6611 5.7605-5.1539-4.4749-5.7605 3.6611 4.4749-5.1539-3.6611-5.7605 5.1539 4.4749z" stroke-width="3.4345"/><path d="m805.99 223.27-4.6065 1.6431 0.25895 4.8839-1.6432-4.6065-4.8838 0.25904 4.6065-1.6431-0.25894-4.8839 1.643 4.6065z" stroke-width="2.461"/><path d="m696.11 398.14-4.1854-0.44728-1.624 3.8833 0.44729-4.1854-3.8833-1.624 4.1854 0.44729 1.624-3.8833-0.44729 4.1854z" stroke-width="2.118"/><path d="m688.65 420.77-4.558-1.0868-2.3433 4.0577 1.0868-4.558-4.0577-2.3433 4.558 1.0868 2.3433-4.0577-1.0868 4.558z" stroke-width="2.3578"/><path d="m770.36 338.28-4.0001 3.3085 2.0282 4.7784-3.3085-4.0001-4.7784 2.0282 4.0001-3.3085-2.0282-4.7784 3.3085 4.0001z" stroke-width="2.6121"/><path d="m871.88 357.33-6.2847-2.4438-4.137 5.3249 2.4438-6.2847-5.3249-4.137 6.2847 2.4438 4.137-5.325-2.4438 6.2847z" stroke-width="3.3931"/><path d="m696.09 211.91-3.7356 2.5744 1.4002 4.3153-2.5744-3.7356-4.3153 1.4002 3.7356-2.5744-1.4002-4.3153 2.5744 3.7356z" stroke-width="2.2829"/><path d="m863.27 221.97-5.551-1.4321-2.9578 4.9107 1.4322-5.551-4.9107-2.9578 5.551 1.4321 2.9578-4.9107-1.4322 5.551z" stroke-width="2.8846"/><path id="c" d="m868.51 235.85-3.5451 5.6833 4.4341 5.0206-5.6833-3.5451-5.0207 4.434 3.5451-5.6833-4.434-5.0206 5.6833 3.5451z" fill="#fff" fill-opacity=".34814" stroke-width="3.3705"/><path d="m1124.8 248.83-5.5491 2.6888 0.992 6.0858-2.6888-5.549-6.0859 0.99193 5.5491-2.6888-0.992-6.0858 2.6889 5.549z" stroke-width="3.1027"/><path d="m1159.7 350.04-4.3656-2.2161-3.3707 3.5509 2.2161-4.3657-3.551-3.3707 4.3658 2.2161 3.3706-3.5509-2.2161 4.3657z" stroke-width="2.4636"/><path d="m1105.3 291.49-4.7879-0.72326-2.0606 4.3819 0.7237-4.7879-4.382-2.0606 4.7879 0.72317 2.0606-4.3819-0.7237 4.7879z" stroke-width="2.4365"/><path d="m1078.7 342.27-5.1624 2.2913 0.7217 5.6018-2.2913-5.1624-5.6017 0.7214 5.1623-2.2913-0.7217-5.6018 2.2913 5.1624z" stroke-width="2.842"/><path d="m1012.7 483.53-4.1047 0.84791-0.3603 4.1758-0.8477-4.1047-4.1759-0.35976 4.1047-0.84781 0.3593-4.1759 0.8478 4.1047z" stroke-width="2.109"/><path d="m1112.4 349.03-5.024-0.22635-1.6519 4.7501 0.2264-5.024-4.7501-1.6519 5.024 0.22645 1.6519-4.7501-0.2264 5.0241z" stroke-width="2.5306"/><path d="m1236 248.07-6.0249-1.7411-3.3893 5.2766 1.7412-6.0249-5.2767-3.3893 6.0248 1.7411 3.3893-5.2766-1.741 6.0249z" stroke-width="3.1557"/><path d="m1253.7 147.83-6.19-2.7524-4.4055 5.146 2.7522-6.1899-5.1459-4.4056 6.1899 2.7524 4.4056-5.146-2.7523 6.1899z" stroke-width="3.4088"/><path d="m634.52 280.97-2.0129 4.0417 3.2984 3.0834-4.0417-2.0129-3.0834 3.2984 2.013-4.0417-3.2984-3.0834 4.0417 2.0129z" stroke-width="2.272"/><path d="m607.08 423.22-6.1818 0.58661-1.2034 6.0919-0.58661-6.1818-6.0918-1.2034 6.1818-0.58661 1.2034-6.0919 0.58661 6.1818z" stroke-width="3.1246"/><path d="m435.04 297.17-5.3344 3.3802 1.7158 6.0776-3.3802-5.3344-6.0776 1.7158 5.3344-3.3802-1.7159-6.0776 3.3802 5.3344z" stroke-width="3.1777"/><path d="m435.36 399.51-5.4339 1.157-0.44316 5.538-1.157-5.4339-5.538-0.44325 5.4339-1.157 0.44325-5.538 1.157 5.4339z" stroke-width="2.7956"/><path d="m607.49 587.27-4.5368 0.38132-0.93032 4.4567-0.38132-4.5368-4.4567-0.93032 4.5368-0.38132 0.93032-4.4567 0.38132 4.5368z" stroke-width="2.2909"/><path d="m497.03 636.16-3.7933-3.4227-4.3635 2.6577 3.4227-3.7933-2.6577-4.3636 3.7933 3.4227 4.3635-2.6577-3.4227 3.7933z" stroke-width="2.5709"/><path d="m740.95 281.98-5.8502-2.9443-4.4926 4.7656 2.9443-5.8502-4.7656-4.4926 5.8502 2.9443 4.4926-4.7656-2.9443 5.8502z" stroke-width="3.2956"/></g><path d="m572 506.01a3.464 3.464 0 0 1-3.464 3.464 3.464 3.464 0 0 1-3.464-3.464 3.464 3.464 0 0 1 3.464-3.464 3.464 3.464 0 0 1 3.464 3.464z" fill="url(#bv)" stroke-width="6.0101"/><path d="m479.42 401.64a3.3791 3.3791 0 0 1 0.23206 4.7732 3.3791 3.3791 0 0 1-4.7732 0.23207 3.3791 3.3791 0 0 1-0.23207-4.7732 3.3791 3.3791 0 0 1 4.7732-0.23208z" fill="url(#am)" stroke-width="5.8629"/><path d="m441.62 322.01a2.6598 2.6598 0 0 1-3.6597 0.86898 2.6598 2.6598 0 0 1-0.86898-3.6597 2.6598 2.6598 0 0 1 3.6597-0.86898 2.6598 2.6598 0 0 1 0.86898 3.6597z" fill="url(#ah)" stroke-width="4.6147"/><path d="m469.31 267.52a3.501 3.501 0 0 1-3.1267 3.8389 3.501 3.501 0 0 1-3.8389-3.1267 3.501 3.501 0 0 1 3.1267-3.8389 3.501 3.501 0 0 1 3.8389 3.1267z" fill="url(#ab)" stroke-width="6.0743"/><path d="m484.49 347.72a2.7373 2.7373 0 0 1-2.6364 2.8345 2.7373 2.7373 0 0 1-2.8345-2.6364 2.7373 2.7373 0 0 1 2.6364-2.8345 2.7373 2.7373 0 0 1 2.8345 2.6364z" fill="url(#q)" stroke-width="4.7492"/><path d="m634.22 283.99a2.8942 2.8942 0 0 1-0.0207 4.093 2.8942 2.8942 0 0 1-4.093-0.0207 2.8942 2.8942 0 0 1 0.0207-4.093 2.8942 2.8942 0 0 1 4.093 0.0207z" fill="url(#cp)" stroke-width="5.0216"/><path d="m617.99 242.58a3.0478 3.0478 0 0 1-3.2059 2.8811 3.0478 3.0478 0 0 1-2.881-3.206 3.0478 3.0478 0 0 1 3.2059-2.881 3.0478 3.0478 0 0 1 2.881 3.2059z" fill="url(#cg)" stroke-width="5.288"/><path d="m648.06 311.17a2.8211 2.8211 0 0 1-3.8863 0.90235 2.8211 2.8211 0 0 1-0.90235-3.8863 2.8211 2.8211 0 0 1 3.8863-0.90235 2.8211 2.8211 0 0 1 0.90235 3.8863z" fill="url(#ce)" stroke-width="4.8947"/><path d="m746.06 224.73a3.4057 3.4057 0 0 1-2.7438 3.9584 3.4057 3.4057 0 0 1-3.9584-2.7438 3.4057 3.4057 0 0 1 2.7438-3.9584 3.4057 3.4057 0 0 1 3.9584 2.7438z" fill="url(#cd)" stroke-width="5.9089"/><path d="m876.12 250.68a3.4067 3.4067 0 0 1 0.13981 4.8158 3.4067 3.4067 0 0 1-4.8158 0.14001 3.4067 3.4067 0 0 1-0.13981-4.8158 3.4067 3.4067 0 0 1 4.8158-0.14001z" fill="url(#cc)" stroke-width="5.9108"/><path d="m1003.6 224.57a3.6514 3.6514 0 0 1-1.3344 4.9885 3.6514 3.6514 0 0 1-4.9885-1.3344 3.6514 3.6514 0 0 1 1.3344-4.9885 3.6514 3.6514 0 0 1 4.9885 1.3344z" fill="url(#cb)" stroke-width="6.3353"/><path d="m1091 218.98a2.9715 2.9715 0 0 1-3.9368 1.4702 2.9715 2.9715 0 0 1-1.4703-3.9368 2.9715 2.9715 0 0 1 3.9368-1.4702 2.9715 2.9715 0 0 1 1.4703 3.9368z" fill="url(#ca)" stroke-width="5.1556"/><path d="m1025.2 370.14a3.8677 3.8677 0 0 1-5.2714 1.4597 3.8677 3.8677 0 0 1-1.4596-5.2713 3.8677 3.8677 0 0 1 5.2713-1.4596 3.8677 3.8677 0 0 1 1.4597 5.2713z" fill="url(#bz)" stroke-width="6.7104"/><path d="m1127.1 345.01a3.0617 3.0617 0 0 1-2.6034 3.4598 3.0617 3.0617 0 0 1-3.4598-2.6034 3.0617 3.0617 0 0 1 2.6034-3.4598 3.0617 3.0617 0 0 1 3.4598 2.6034z" fill="url(#by)" stroke-width="5.312"/><path d="m1151.6 312.47a4.19 4.19 0 0 1 0.089 5.925 4.19 4.19 0 0 1-5.925 0.0866 4.19 4.19 0 0 1-0.089-5.925 4.19 4.19 0 0 1 5.9251-0.0866z" fill="url(#bx)" stroke-width="7.2698"/><path d="m1149.3 410.91a3.7958 3.7958 0 0 1-1.6833 5.0974 3.7958 3.7958 0 0 1-5.0973-1.6834 3.7958 3.7958 0 0 1 1.6833-5.0973 3.7958 3.7958 0 0 1 5.0973 1.6834z" fill="url(#bw)" stroke-width="6.5858"/><path d="m900.66 586.07a4.1082 4.1082 0 0 1-5.7883-0.50124 4.1082 4.1082 0 0 1 0.50114-5.7882 4.1082 4.1082 0 0 1 5.7882 0.50124 4.1082 4.1082 0 0 1-0.50115 5.7882z" fill="url(#bs)" stroke-width="7.1278"/><path d="m750.36 601.45a4.0471 4.0471 0 0 1-5.145 2.5075 4.0471 4.0471 0 0 1-2.5075-5.145 4.0471 4.0471 0 0 1 5.145-2.5075 4.0471 4.0471 0 0 1 2.5075 5.145z" fill="url(#br)" stroke-width="7.0218"/><path d="m615.2 553.21a3.2184 3.2184 0 0 1-4.4837 0.78302 3.2184 3.2184 0 0 1-0.78303-4.4837 3.2184 3.2184 0 0 1 4.4837-0.78302 3.2184 3.2184 0 0 1 0.78303 4.4837z" fill="url(#bq)" stroke-width="5.584"/><path d="m571.55 602.6a4.2341 4.2341 0 0 1-5.8838 1.1118 4.2341 4.2341 0 0 1-1.1118-5.8838 4.2341 4.2341 0 0 1 5.8838-1.1118 4.2341 4.2341 0 0 1 1.1118 5.8838z" fill="url(#bn)" stroke-width="7.3463"/><path d="m466.54 568.88a3.1913 3.1913 0 0 1-3.4643 2.8926 3.1913 3.1913 0 0 1-2.8926-3.4643 3.1913 3.1913 0 0 1 3.4643-2.8926 3.1913 3.1913 0 0 1 2.8926 3.4643z" fill="url(#bk)" stroke-width="5.5369"/><path d="m405.09 515.13a2.885 2.885 0 0 1-3.3609 2.3132 2.885 2.885 0 0 1-2.3132-3.3609 2.885 2.885 0 0 1 3.3609-2.3132 2.885 2.885 0 0 1 2.3132 3.3609z" fill="url(#bh)" stroke-width="5.0056"/><path d="m481.5 497.04a2.8453 2.8453 0 0 1-3.9439 0.79789 2.8453 2.8453 0 0 1-0.7979-3.9439 2.8453 2.8453 0 0 1 3.9439-0.79789 2.8453 2.8453 0 0 1 0.7979 3.9439z" fill="url(#be)" stroke-width="4.9366"/><path d="m432.98 446.57a3.3803 3.3803 0 0 1-4.0628 2.5192 3.3803 3.3803 0 0 1-2.5192-4.0628 3.3803 3.3803 0 0 1 4.0628-2.5192 3.3803 3.3803 0 0 1 2.5192 4.0628z" fill="url(#bb)" stroke-width="5.8648"/><path d="m461.93 377.29a2.8628 2.8628 0 0 1-3.6104 1.832 2.8628 2.8628 0 0 1-1.832-3.6104 2.8628 2.8628 0 0 1 3.6104-1.832 2.8628 2.8628 0 0 1 1.832 3.6104z" fill="url(#ay)" stroke-width="4.967"/><path d="m564.36 248.65a2.5981 2.5981 0 0 1-2.6781 2.5155 2.5981 2.5981 0 0 1-2.5155-2.6781 2.5981 2.5981 0 0 1 2.6781-2.5155 2.5981 2.5981 0 0 1 2.5155 2.6781z" fill="url(#ax)" stroke-width="4.5077"/><path d="m643.62 386.87a3.5204 3.5204 0 0 1-4.898-0.89241 3.5204 3.5204 0 0 1 0.89251-4.898 3.5204 3.5204 0 0 1 4.898 0.89251 3.5204 3.5204 0 0 1-0.89251 4.898z" fill="url(#av)" stroke-width="6.108"/><path d="m681.05 391.66a3.8223 3.8223 0 0 1-5.403 0.16856 3.8223 3.8223 0 0 1-0.16856-5.403 3.8223 3.8223 0 0 1 5.403-0.16856 3.8223 3.8223 0 0 1 0.16856 5.403z" fill="url(#au)" stroke-width="6.6318"/><path d="m710.93 417.69a3.0226 3.0226 0 0 1-3.4458 2.5296 3.0226 3.0226 0 0 1-2.5296-3.4458 3.0226 3.0226 0 0 1 3.4458-2.5296 3.0226 3.0226 0 0 1 2.5296 3.4458z" fill="url(#at)" stroke-width="5.2442"/><path d="m791.27 346.14a4.0313 4.0313 0 0 1-5.6901-0.35513 4.0313 4.0313 0 0 1 0.35523-5.6901 4.0313 4.0313 0 0 1 5.69 0.35513 4.0313 4.0313 0 0 1-0.35514 5.69z" fill="url(#as)" stroke-width="6.9944"/><path d="m894.99 419.08a3.2142 3.2142 0 0 1-4.435 0.99676 3.2142 3.2142 0 0 1-0.99678-4.4349 3.2142 3.2142 0 0 1 4.435-0.99676 3.2142 3.2142 0 0 1 0.99678 4.4349z" fill="url(#ar)" stroke-width="5.5767"/><path d="m991.36 426.23a4.1504 4.1504 0 0 1-0.72366 5.8247 4.1504 4.1504 0 0 1-5.8247-0.72336 4.1504 4.1504 0 0 1 0.72366-5.8247 4.1504 4.1504 0 0 1 5.8247 0.72336z" fill="url(#aq)" stroke-width="7.2009"/><path d="m1157.8 400.68a4.2445 4.2445 0 0 1-5.7886 1.5888 4.2445 4.2445 0 0 1-1.5888-5.7886 4.2445 4.2445 0 0 1 5.7886-1.5887 4.2445 4.2445 0 0 1 1.5888 5.7886z" fill="url(#ap)" stroke-width="7.3643"/><path d="m1092.3 336.99a2.868 2.868 0 0 1-2.8107 2.9242 2.868 2.868 0 0 1-2.9242-2.8108 2.868 2.868 0 0 1 2.8108-2.9241 2.868 2.868 0 0 1 2.9241 2.8107z" fill="url(#ao)" stroke-width="4.976"/><path d="m1242.4 296.4a3.6504 3.6504 0 0 1 0.4943 5.1387 3.6504 3.6504 0 0 1-5.1388 0.49425 3.6504 3.6504 0 0 1-0.4942-5.1387 3.6504 3.6504 0 0 1 5.1387-0.49426z" fill="url(#an)" stroke-width="6.3334"/><path d="m1258.5 351.89a3.2623 3.2623 0 0 1-4.5241 0.90442 3.2623 3.2623 0 0 1-0.9038-4.524 3.2623 3.2623 0 0 1 4.5239-0.90443 3.2623 3.2623 0 0 1 0.9049 4.524z" fill="url(#al)" stroke-width="5.6601"/><path d="m1277.5 340.3a2.6032 2.6032 0 0 1 0.2205 3.675 2.6032 2.6032 0 0 1-3.6749 0.22035 2.6032 2.6032 0 0 1-0.2205-3.675 2.6032 2.6032 0 0 1 3.675-0.22035z" fill="url(#ak)" stroke-width="4.5167"/><path d="m1279.1 337.07a2.8985 2.8985 0 0 1-4.0495 0.63593 2.8985 2.8985 0 0 1-0.636-4.0494 2.8985 2.8985 0 0 1 4.0493-0.63593 2.8985 2.8985 0 0 1 0.6361 4.0494z" fill="url(#aj)" stroke-width="5.0289"/><path d="m1266.3 243.58a2.7185 2.7185 0 0 1-3.4377 1.7212 2.7185 2.7185 0 0 1-1.7212-3.4377 2.7185 2.7185 0 0 1 3.4377-1.7212 2.7185 2.7185 0 0 1 1.7212 3.4377z" fill="url(#ai)" stroke-width="4.7166"/><path d="m877.19 582.2a2.9223 2.9223 0 0 1-2.9109 2.9337 2.9223 2.9223 0 0 1-2.9337-2.9109 2.9223 2.9223 0 0 1 2.9109-2.9337 2.9223 2.9223 0 0 1 2.9337 2.9109z" fill="url(#ag)" stroke-width="5.0702"/><path d="m837.81 555.82a3.2983 3.2983 0 0 1-0.84771 4.5869 3.2983 3.2983 0 0 1-4.5869-0.84761 3.2983 3.2983 0 0 1 0.84772-4.5868 3.2983 3.2983 0 0 1 4.5869 0.8476z" fill="url(#af)" stroke-width="5.7226"/><path d="m790.49 507.79a4.3381 4.3381 0 0 1 0.46275 6.1175 4.3381 4.3381 0 0 1-6.1175 0.46274 4.3381 4.3381 0 0 1-0.46275-6.1175 4.3381 4.3381 0 0 1 6.1175-0.46274z" fill="url(#ae)" stroke-width="7.5266"/><path d="m715.71 340.95a3.8163 3.8163 0 0 1-5.3716 0.52389 3.8163 3.8163 0 0 1-0.52389-5.3716 3.8163 3.8163 0 0 1 5.3716-0.52388 3.8163 3.8163 0 0 1 0.52389 5.3716z" fill="url(#ad)" stroke-width="6.6214"/><path d="m555.28 375.9a2.692 2.692 0 0 1-2.5664 2.8119 2.692 2.692 0 0 1-2.8119-2.5664 2.692 2.692 0 0 1 2.5664-2.8119 2.692 2.692 0 0 1 2.8119 2.5664z" fill="url(#ac)" stroke-width="4.6706"/><path d="m529.63 397.98a3.6327 3.6327 0 0 1-4.4355 2.5922 3.6327 3.6327 0 0 1-2.5922-4.4355 3.6327 3.6327 0 0 1 4.4355-2.5922 3.6327 3.6327 0 0 1 2.5922 4.4355z" fill="url(#aa)" stroke-width="6.3028"/><path d="m576.17 410.85a3.4264 3.4264 0 0 1-4.7605-0.90442 3.4264 3.4264 0 0 1 0.90442-4.7604 3.4264 3.4264 0 0 1 4.7604 0.90442 3.4264 3.4264 0 0 1-0.90441 4.7604z" fill="url(#z)" stroke-width="5.9448"/><path d="m583.29 386.7a4.3526 4.3526 0 0 1-5.7933 2.0806 4.3526 4.3526 0 0 1-2.0806-5.7933 4.3526 4.3526 0 0 1 5.7933-2.0806 4.3526 4.3526 0 0 1 2.0806 5.7933z" fill="url(#y)" stroke-width="7.5519"/><path d="m738.96 499.64a2.7489 2.7489 0 0 1-2.5705 2.9163 2.7489 2.7489 0 0 1-2.9163-2.5706 2.7489 2.7489 0 0 1 2.5705-2.9163 2.7489 2.7489 0 0 1 2.9163 2.5705z" fill="url(#x)" stroke-width="4.7693"/><path d="m719.55 422.89a2.9235 2.9235 0 0 1-0.66182 4.0812 2.9235 2.9235 0 0 1-4.0812-0.66183 2.9235 2.9235 0 0 1 0.66182-4.0811 2.9235 2.9235 0 0 1 4.0811 0.66182z" fill="url(#w)" stroke-width="5.0723"/><path d="m812.91 556.58a4.3595 4.3595 0 0 1-6.1541-0.37059 4.3595 4.3595 0 0 1 0.3702-6.1541 4.3595 4.3595 0 0 1 6.1541 0.37059 4.3595 4.3595 0 0 1-0.3702 6.1541z" fill="url(#v)" stroke-width="7.5638"/><path d="m744.87 571.05a4.2515 4.2515 0 0 1-6.0026-0.3444 4.2515 4.2515 0 0 1 0.3444-6.0026 4.2515 4.2515 0 0 1 6.0026 0.3444 4.2515 4.2515 0 0 1-0.34439 6.0026z" fill="url(#u)" stroke-width="7.3763"/><path d="m853.58 473.82a3.9575 3.9575 0 0 1-5.5945-0.16147 3.9575 3.9575 0 0 1 0.16147-5.5945 3.9575 3.9575 0 0 1 5.5944 0.16147 3.9575 3.9575 0 0 1-0.16147 5.5945z" fill="url(#t)" stroke-width="6.8664"/><path d="m882.78 427.09a4.0096 4.0096 0 0 1-5.5028 1.3684 4.0096 4.0096 0 0 1-1.3684-5.5029 4.0096 4.0096 0 0 1 5.5028-1.3684 4.0096 4.0096 0 0 1 1.3684 5.5028z" fill="url(#s)" stroke-width="6.9567"/><path d="m974.53 376.28a2.985 2.985 0 0 1-3.358 2.5582 2.985 2.985 0 0 1-2.5582-3.358 2.985 2.985 0 0 1 3.358-2.5582 2.985 2.985 0 0 1 2.5582 3.358z" fill="url(#r)" stroke-width="5.179"/><path d="m1028.7 491.69a2.8003 2.8003 0 0 1-3.2363 2.2827 2.8003 2.8003 0 0 1-2.2826-3.2363 2.8003 2.8003 0 0 1 3.2362-2.2826 2.8003 2.8003 0 0 1 2.2827 3.2362z" fill="url(#p)" stroke-width="4.8586"/><path d="m881.75 492.67a2.7851 2.7851 0 0 1-2.0028 3.3915 2.7851 2.7851 0 0 1-3.3914-2.0028 2.7851 2.7851 0 0 1 2.0028-3.3915 2.7851 2.7851 0 0 1 3.3914 2.0028z" fill="url(#o)" stroke-width="4.8321"/><path d="m781.27 536.68a4.3358 4.3358 0 0 1-0.85558 6.0718 4.3358 4.3358 0 0 1-6.0718-0.85559 4.3358 4.3358 0 0 1 0.85559-6.0718 4.3358 4.3358 0 0 1 6.0718 0.85558z" fill="url(#n)" stroke-width="7.5227"/><path d="m939.14 568.56a3.8806 3.8806 0 0 1-5.4725 0.41185 3.8806 3.8806 0 0 1-0.41154-5.4726 3.8806 3.8806 0 0 1 5.4726-0.41185 3.8806 3.8806 0 0 1 0.41155 5.4726z" fill="url(#m)" stroke-width="6.733"/><path d="m918.55 546.54a3.1353 3.1353 0 0 1-1.2534 4.2531 3.1353 3.1353 0 0 1-4.2531-1.2533 3.1353 3.1353 0 0 1 1.2534-4.2531 3.1353 3.1353 0 0 1 4.2531 1.2533z" fill="url(#l)" stroke-width="5.4397"/><path d="m852.7 559.77a3.3776 3.3776 0 0 1-3.5554 3.1901 3.3776 3.3776 0 0 1-3.19-3.5553 3.3776 3.3776 0 0 1 3.5553-3.1901 3.3776 3.3776 0 0 1 3.1901 3.5553z" fill="url(#k)" stroke-width="5.8602"/><path d="m865.75 590.77a3.4927 3.4927 0 0 1-4.8844-0.73507 3.4927 3.4927 0 0 1 0.73547-4.8844 3.4927 3.4927 0 0 1 4.8844 0.73508 3.4927 3.4927 0 0 1-0.73547 4.8844z" fill="url(#j)" stroke-width="6.0598"/><path d="m855.31 550.7a4.1662 4.1662 0 0 1-5.848-0.71696 4.1662 4.1662 0 0 1 0.71676-5.848 4.1662 4.1662 0 0 1 5.848 0.71696 4.1662 4.1662 0 0 1-0.71676 5.848z" fill="url(#i)" stroke-width="7.2284"/><path d="m777.69 578.12a3.0573 3.0573 0 0 1-4.1609 1.1753 3.0573 3.0573 0 0 1-1.1753-4.1609 3.0573 3.0573 0 0 1 4.1608-1.1753 3.0573 3.0573 0 0 1 1.1753 4.1609z" fill="url(#h)" stroke-width="5.3044"/><path d="m821.22 613.62a3.0298 3.0298 0 0 1-4.1558 1.043 3.0298 3.0298 0 0 1-1.043-4.1559 3.0298 3.0298 0 0 1 4.156-1.043 3.0298 3.0298 0 0 1 1.043 4.1559z" fill="url(#g)" stroke-width="5.2567"/><path d="m729.64 365.41a3.9121 3.9121 0 0 1-3.4742 4.3057 3.9121 3.9121 0 0 1-4.3057-3.4742 3.9121 3.9121 0 0 1 3.4742-4.3057 3.9121 3.9121 0 0 1 4.3057 3.4742z" fill="url(#f)" stroke-width="6.7875"/><path d="m593.69 385.22a3.6196 3.6196 0 0 1 0.38841 5.1042 3.6196 3.6196 0 0 1-5.1042 0.38841 3.6196 3.6196 0 0 1-0.38841-5.1042 3.6196 3.6196 0 0 1 5.1042-0.38841z" fill="url(#e)" stroke-width="6.2801"/><path d="m609.29 360.13a3.2979 3.2979 0 0 1-0.99667 4.5561 3.2979 3.2979 0 0 1-4.5561-0.99668 3.2979 3.2979 0 0 1 0.99667-4.5561 3.2979 3.2979 0 0 1 4.5561 0.99668z" fill="url(#d)" stroke-width="5.7218"/><path d="m613.43 314.8a2.8331 2.8331 0 0 1-2.8703 2.7954 2.8331 2.8331 0 0 1-2.7954-2.8703 2.8331 2.8331 0 0 1 2.8703-2.7954 2.8331 2.8331 0 0 1 2.7954 2.8703z" fill="url(#co)" stroke-width="4.9155"/><path d="m568.96 349.16a3.8772 3.8772 0 0 1-4.0127 3.7368 3.8772 3.8772 0 0 1-3.7368-4.0127 3.8772 3.8772 0 0 1 4.0127-3.7368 3.8772 3.8772 0 0 1 3.7368 4.0127z" fill="url(#cn)" stroke-width="6.7271"/><path d="m598.46 311.28a2.6275 2.6275 0 0 1-1.8504 3.2224 2.6275 2.6275 0 0 1-3.2224-1.8504 2.6275 2.6275 0 0 1 1.8504-3.2224 2.6275 2.6275 0 0 1 3.2224 1.8504z" fill="url(#cm)" stroke-width="4.5588"/><path d="m667.34 314a4.0949 4.0949 0 0 1-1.2402 5.6568 4.0949 4.0949 0 0 1-5.6568-1.2402 4.0949 4.0949 0 0 1 1.2402-5.6568 4.0949 4.0949 0 0 1 5.6568 1.2402z" fill="url(#cl)" stroke-width="7.1048"/><path d="m636.65 313.34a2.7916 2.7916 0 0 1-3.4633 1.8952 2.7916 2.7916 0 0 1-1.8952-3.4633 2.7916 2.7916 0 0 1 3.4633-1.8952 2.7916 2.7916 0 0 1 1.8952 3.4633z" fill="url(#ck)" stroke-width="4.8435"/><path d="m450.6 325.18a3.2425 3.2425 0 0 1-2.7705 3.654 3.2425 3.2425 0 0 1-3.654-2.7705 3.2425 3.2425 0 0 1 2.7705-3.654 3.2425 3.2425 0 0 1 3.654 2.7705z" fill="url(#cj)" stroke-width="5.6257"/><path d="m634.62 323.64a2.8668 2.8668 0 0 1 0.46659 4.0274 2.8668 2.8668 0 0 1-4.0274 0.46659 2.8668 2.8668 0 0 1-0.46659-4.0274 2.8668 2.8668 0 0 1 4.0274-0.46659z" fill="url(#ci)" stroke-width="4.974"/><path d="m692.63 278.15a4.1059 4.1059 0 0 1-1.654 5.5661 4.1059 4.1059 0 0 1-5.5661-1.654 4.1059 4.1059 0 0 1 1.654-5.5661 4.1059 4.1059 0 0 1 5.5661 1.654z" fill="url(#ch)" stroke-width="7.1239"/><path d="m940.37 387.45a4.3162 4.3162 0 0 1-5.913 1.5148 4.3162 4.3162 0 0 1-1.5148-5.9131 4.3162 4.3162 0 0 1 5.913-1.5148 4.3162 4.3162 0 0 1 1.5148 5.9131z" fill="url(#cf)" stroke-width="7.4886"/><use transform="matrix(1.0278 -.14243 .14243 1.0278 -431.68 168.94)" xlink:href="#b"/><use transform="matrix(.51654 -.70469 .70469 .51654 -326.14 374.01)" xlink:href="#b"/><use transform="matrix(1.1207 -.34092 .34092 1.1207 -466.85 -9.1417)" xlink:href="#b"/><use transform="matrix(.60416 .51868 -.51868 .60416 -93.04 -69.855)" xlink:href="#b"/><use transform="matrix(1.0676 .11046 -.11046 1.0676 -422.03 -152.82)" xlink:href="#b"/><use transform="matrix(1.0068 .66913 -.66913 1.0068 -54.162 -292.36)" xlink:href="#b"/><use transform="matrix(.7295 -.35754 .35754 .7295 -370.02 120.82)" xlink:href="#b"/><use transform="matrix(1.0387 -.11557 .11557 1.0387 -374.19 -16.523)" xlink:href="#b"/><use transform="matrix(.82554 .10368 -.10368 .82554 -41.353 -50.937)" xlink:href="#b"/><use transform="matrix(.74082 -.14136 .14136 .74082 -128.48 148.65)" xlink:href="#b"/><use transform="matrix(.48233 .59782 -.59782 .48233 255.59 -249.05)" xlink:href="#b"/><use transform="matrix(.88931 .17846 -.17846 .88931 -152.21 -127.23)" xlink:href="#b"/><use transform="matrix(.57972 -.54796 .54796 .57972 -213.23 593.16)" xlink:href="#b"/><use transform="matrix(1.1074 .37834 -.37834 1.1074 -306.36 -145.34)" xlink:href="#b"/><use transform="matrix(.71221 -.96586 .96586 .71221 -311.37 604)" xlink:href="#b"/><use transform="matrix(.65188 -.76358 .76358 .65188 -242.52 737.31)" xlink:href="#b"/><use transform="matrix(.94581 .81539 -.81539 .94581 125.21 -253.78)" xlink:href="#b"/><use transform="matrix(.70191 .55588 -.55588 .70191 95.142 32.57)" xlink:href="#b"/><use transform="matrix(.77262 -.023256 .023256 .77262 -261.73 68.02)" xlink:href="#b"/><use transform="matrix(.76994 -.64609 .64609 .76994 -411.41 611.87)" xlink:href="#b"/><use transform="matrix(1.0029 .20523 -.20523 1.0029 -106.77 49.681)" xlink:href="#b"/><use transform="matrix(.58101 -.56843 .56843 .58101 -409.69 476.31)" xlink:href="#b"/><use transform="matrix(.84451 -.65653 .65653 .84451 -511.6 494.06)" xlink:href="#b"/><use transform="matrix(.57196 -.54336 .54336 .57196 55.939 558.38)" xlink:href="#b"/><use transform="matrix(.84018 -.64736 .64736 .84018 -265.51 448.64)" xlink:href="#b"/><use transform="matrix(1.1248 .073252 -.073252 1.1248 -55.617 -16.524)" xlink:href="#b"/><use transform="matrix(.8637 -.6952 .6952 .8637 -359.72 332.93)" xlink:href="#b"/><use transform="matrix(.93009 -.40213 .40213 .93009 -221.33 243.31)" xlink:href="#b"/><use transform="matrix(.78181 .087322 -.087322 .78181 191.24 27.573)" xlink:href="#b"/><use transform="matrix(.96253 -.05488 .05488 .96253 -95.144 3.9926)" xlink:href="#b"/><use transform="matrix(.86719 -.36266 .36266 .86719 -478.73 156.15)" xlink:href="#b"/><use transform="matrix(.7933 .64069 -.64069 .7933 -72.424 -190.59)" xlink:href="#b"/><use transform="matrix(.58831 .63053 -.63053 .58831 51.899 -257.91)" xlink:href="#b"/><use transform="matrix(.77126 -.027462 .027462 .77126 -349.56 89.644)" xlink:href="#b"/><use transform="matrix(.74246 .096608 -.096608 .74246 -402.89 67.583)" xlink:href="#c"/><use transform="matrix(1.1606 -.39805 .39805 1.1606 -665.13 381.25)" xlink:href="#c"/><use transform="matrix(.81233 -.071552 .071552 .81233 -203.1 149.56)" xlink:href="#c"/><use transform="matrix(1.1454 .027048 -.027048 1.1454 -389.11 30.175)" xlink:href="#c"/><use transform="matrix(.87222 .013768 -.013768 .87222 -229.89 18.834)" xlink:href="#c"/><use transform="matrix(.9395 -.16452 .16452 .9395 -459.15 173.27)" xlink:href="#c"/><use transform="matrix(1.1646 .30984 -.30984 1.1646 -476.77 -359.75)" xlink:href="#c"/><use transform="matrix(1.0118 -.37169 .37169 1.0118 -619.6 323.73)" xlink:href="#c"/><use transform="matrix(1.1134 -.54942 .54942 1.1134 -594.88 381.02)" xlink:href="#c"/><use transform="matrix(.9598 -.2109 .2109 .9598 -334.08 99.665)" xlink:href="#c"/><use transform="matrix(.9516 -.3944 .3944 .9516 -539.68 239.26)" xlink:href="#c"/><use transform="matrix(.86465 .17198 -.17198 .86465 -174.77 -96.081)" xlink:href="#c"/><use transform="matrix(1.1806 -.11422 .11422 1.1806 -627.81 74.127)" xlink:href="#c"/><use transform="matrix(1.0853 -.63572 .63572 1.0853 -465.49 551.15)" xlink:href="#c"/><g transform="matrix(10.89 0 0 10.89 -44.743 21.809)" fill="#fff" stroke-width="4.7396" aria-label="EavesDrum"><path d="m10.631 30.983v-8.3265q0-0.69387-0.20045-1.1102-0.18503-0.43174-0.87891-0.43174h-0.30839v-0.30839h6.5687q0.53968 0 0.81723 0.18503 0.27755 0.16961 0.38548 0.46258 0.10794 0.27755 0.10794 0.58594v1.1565h-0.30839q0-0.92516-0.50884-1.3415-0.49342-0.43174-1.4186-0.43174h-2.868v4.009h4.1632v0.61678h-4.1632v4.3174h2.6984q1.0485 0 1.6499-0.38548 0.61678-0.38548 0.97142-1.3106l0.30839 0.0771-0.53968 1.4648q-0.12336 0.35465-0.41632 0.57052-0.27755 0.20045-0.74013 0.20045zm10.3 0.15419q-0.32381 0-0.70929-0.10794-0.37007-0.09252-0.72471-0.33923-0.35465-0.24671-0.58594-0.66303-0.21587-0.41632-0.21587-1.0485 0-0.84807 0.53968-1.3106 0.5551-0.46258 1.4494-0.64762 0.90974-0.20045 1.9428-0.20045h0.46258q0-1.0794-0.21587-1.6345-0.21587-0.57052-0.58594-0.77097-0.35465-0.21587-0.81723-0.21587-0.64761 0-1.0948 0.27755-0.43174 0.27755-0.60136 1.0331h-0.69387q0-0.4009 0.04626-0.74013 0.04626-0.35465 0.33923-0.64762 0.29297-0.29297 0.956-0.41632t1.3569-0.12336q0.52426 0 1.0023 0.12336 0.49342 0.12336 0.86349 0.46258 0.38548 0.32381 0.60136 0.97142 0.23129 0.6322 0.23129 1.6807v4.1632h-0.77097l-0.53968-0.69387h-0.0771q-0.23129 0.29297-0.75555 0.57052-0.52426 0.27755-1.4032 0.27755zm0.69387-0.69387q0.57052 0 0.89433-0.27755 0.33923-0.29297 0.57052-0.64762v-2.0816h-0.46258q-1.1565 0-1.8195 0.43174-0.64762 0.41632-0.64762 1.1102 0 0.75555 0.44716 1.1102t1.0177 0.35465zm7.648 0.69387-2.39-5.6281q-0.37007-0.86349-0.70929-1.2027-0.33923-0.35465-0.89432-0.38548v-0.30839q0.06168 0 0.23129-0.01542 0.18503-0.01542 0.29297-0.01542 0.478 0 0.94058 0.15419 0.478 0.13878 0.90974 0.5551 0.43174 0.41632 0.77097 1.2181l1.3877 3.3152 2.1587-5.0884h0.77097l-3.161 7.4013zm7.5555 0q-1.0794 0-1.8041-0.50884-0.70929-0.50884-1.0794-1.3723-0.35465-0.86349-0.35465-1.8966 0-1.0485 0.37006-1.8966 0.37007-0.86349 1.0639-1.3723t1.6499-0.50884q1.5728 0 2.3283 0.87891 0.75555 0.87891 0.75555 2.5134l-0.03084 0.61678h-4.6721q0 1.2644 0.53968 2.097 0.5551 0.83265 1.5419 0.83265 0.75555 0 1.249-0.32381 0.50884-0.32381 0.90974-0.90974l0.30839 0.23129q-0.52426 0.87891-1.2181 1.249-0.67845 0.37007-1.5574 0.37007zm-1.7732-4.1632h3.2381q0-1.3415-0.4009-2.0508-0.4009-0.72471-1.2181-0.72471-0.46258 0-0.83265 0.37007-0.35465 0.35465-0.57052 0.98684-0.21587 0.61678-0.21587 1.4186zm8.897 4.1632q-0.92516 0-1.5111-0.15419-0.58594-0.16961-0.8789-0.46258-0.29297-0.29297-0.33923-0.66303-0.04626-0.37007-0.04626-0.956h0.30839q0.12336 0.75555 0.64761 1.1873 0.52426 0.43174 1.5111 0.43174 0.8789 0 1.2798-0.30839 0.41632-0.30839 0.41632-0.77097t-0.35465-0.77097q-0.33923-0.32381-1.0331-0.61678l-0.92516-0.38548q-0.87891-0.35465-1.3723-0.83265-0.478-0.49342-0.478-1.249 0-0.97142 0.72471-1.4803 0.72471-0.52426 1.8195-0.52426 0.8789 0 1.4494 0.16961 0.57052 0.15419 0.86349 0.44716 0.29297 0.29297 0.33923 0.66303 0.04626 0.37007 0.04626 0.956h-0.30839q-0.12336-0.75555-0.64762-1.1873-0.50884-0.43174-1.434-0.43174-0.75555 0-1.1565 0.30839-0.38548 0.30839-0.38548 0.77097 0 0.4009 0.32381 0.74013 0.32381 0.32381 0.90974 0.57052l0.92516 0.38548q0.98684 0.4009 1.4957 0.87891 0.50884 0.478 0.50884 1.2798 0 0.97142-0.77097 1.4957-0.77097 0.50884-1.9274 0.50884z"/><path d="m59.209 26.465q0 0.9863-0.34633 1.8145-0.3388 0.82819-0.94112 1.4305-0.60232 0.59479-1.4305 0.9336-0.82819 0.3388-1.7994 0.3388h-5.2854q-0.21081 0-0.39151-0.07529t-0.31622-0.20328q-0.12799-0.13552-0.20328-0.31622t-0.07529-0.39151v-8.824q0-0.20328 0.07529-0.38398t0.20328-0.31622q0.13552-0.13552 0.31622-0.21081t0.39151-0.07529h5.2854q0.97124 0 1.7994 0.33881 0.82819 0.3388 1.4305 0.94112 0.60232 0.59479 0.94112 1.4305 0.34633 0.82819 0.34633 1.807zm-1.9575-1.7618q0-0.5722-0.18822-1.0465-0.1807-0.47433-0.5195-0.8056-0.3388-0.3388-0.81313-0.5195-0.4668-0.18822-1.039-0.18822h-4.3141v6.8815h4.3141q0.5722 0 1.039-0.1807 0.47433-0.18822 0.81313-0.5195 0.3388-0.33881 0.5195-0.8056 0.18822-0.47433 0.18822-1.0541zm10.744 0.09788h-4.4045q-0.39904 0-0.60232 0.20328-0.20328 0.19575-0.20328 0.57973v5.3983h-1.9575v-5.3983q0-0.50444 0.12799-0.90348t0.3388-0.7002q0.21834-0.30869 0.49691-0.5195 0.27857-0.21834 0.57973-0.35386 0.30869-0.13552 0.61738-0.19575 0.31622-0.06776 0.58726-0.06776h4.4195zm10.187 5.195q0 0.21081-0.07529 0.39151t-0.21081 0.31622q-0.12799 0.12799-0.30869 0.20328-0.17317 0.07529-0.37645 0.07529h-4.4271q-0.36139 0-0.77549-0.08282-0.40657-0.08282-0.8056-0.26352-0.39904-0.18822-0.77549-0.4668-0.36892-0.2861-0.64749-0.68514-0.27857-0.40657-0.45174-0.9336-0.16564-0.52703-0.16564-1.1896v-4.5174h1.9575v4.5174q0 0.38398 0.12799 0.69267 0.13552 0.30116 0.36139 0.5195t0.52703 0.3388q0.30869 0.11294 0.66255 0.11294h3.4257v-6.1813h1.9575zm9.1026 0.9863h-1.9575v-5.3983q0-0.38398-0.20328-0.57973-0.20328-0.20328-0.60232-0.20328h-2.5448v6.1813h-1.9575v-7.1676q0-0.20328 0.07529-0.37645 0.07529-0.1807 0.21081-0.30869 0.13552-0.13552 0.31622-0.21081t0.38398-0.07529h3.5311q0.40657 0 0.87336 0.14305t0.88842 0.45927v-0.60232h2.6502q0.27857 0 0.58726 0.06776 0.30869 0.06023 0.60985 0.19575 0.30869 0.13552 0.58726 0.35386 0.27857 0.21081 0.48938 0.5195 0.21081 0.30116 0.3388 0.7002 0.12799 0.39904 0.12799 0.90348v5.3983h-1.9575v-5.3983q0-0.38398-0.19575-0.57973-0.18822-0.20328-0.58726-0.20328h-1.7618q0.09788 0.36139 0.09788 0.78302z"/></g><path d="m1282.4 437.26-151.14 69.799-365.12 33.225s-2.4265-0.14867-6.3924 1.5371c7.8126 12.298 19.53 26.711 20.183 27.037 0.28591 0.15556 0.64567 0.19101 0.79464 0.12209 4.5374-0.29242 13.647-0.23925 13.647-0.23925l0.75123 5.7697 147.42 48.549 0.29438 18.042 339.36 0.1024z" stroke-width="2.0908"/><g transform="matrix(9.0244 0 0 9.0244 -200.22 -256.1)"><path d="m123.1 55.329c-0.65786-0.0162-0.84697 0.0796-0.7693 0.38927 0.14156 0.56397 2.5962 2.2613 4.6072 3.186 0.33008 0.15175 0.59991 0.29058 0.59991 0.306 0 0.0803-0.28397 1.3998-0.30601 1.4219-0.0139 0.0139-0.16314 0.0959-0.33092 0.17933-0.40808 0.20589-0.56448 0.51248-0.53088 1.0376 0.0186 0.29099 0.0764 0.46927 0.21919 0.67535l0.19356 0.27968-0.38927 2.2929c-0.21445 1.261-0.38998 2.3124-0.38998 2.337-8e-5 7.7e-4 -4.6e-4 3e-3 -7e-4 4e-3 -0.01 0.0234-0.0927 0.049-0.19144 0.062-0.18796 0.0216-0.19231 0.0324-0.21277 0.5437-0.0172 0.43235 3.9e-4 0.5357 0.10176 0.6113 0.11513 0.0819 0.12064 0.24487 0.10398 1.9549-0.0172 1.7568-0.026 1.8704-0.15373 1.9606-0.0888 0.0625-0.13592 0.17754-0.13592 0.33164v0.23554h-0.44193c-0.47979 0-0.70688 0.13606-0.66253 0.39853 0.0138 0.0775-0.0993 0.27488-0.27328 0.47751-0.39631 0.46134-0.83022 1.3075-1.1059 2.1584-0.17357 0.53566-0.25671 0.70359-0.35939 0.71805-0.0942 0.0146-0.15426 0.10879-0.2021 0.31739-0.0784 0.34124-0.0547 0.464 0.091 0.464 0.066 0 0.0903 0.0438 0.0654 0.12242-0.21302 0.67398-0.30108 2.3689-0.18503 3.5625 0.0631 0.61734 0.0649 0.88518 0.011 0.95004-0.0416 0.05-0.0533 0.14664-0.027 0.21563 0.0167 0.0439 0.022 0.0715 0.0164 0.0833v0.00142h-7e-4v7.1e-4l-7.2e-4 7.1e-4 -0.00143 0.00143h-7e-4l-7.2e-4 7e-4c-0.01 4e-3 -0.028-1e-3 -0.0541-0.0178-0.10549-0.0653-0.0603 0.12133 0.13372 0.55579 0.21152 0.47358 0.21721 0.52705 0.0804 0.7209-0.205 0.29044-0.52294 0.96092-0.80842 1.7037-0.20486 0.53282-0.29594 0.68725-0.41845 0.71947-0.11513 0.0289-0.17355 0.11692-0.22345 0.33519-0.0419 0.18153-0.0437 0.33653-4e-3 0.39781 0.0427 0.0677-4e-3 0.35899-0.14021 0.8675l-0.20494 0.76572s0.68266 0.0124 0.73298-0.0326c0.0346-0.031 0.0705-0.35246 0.15657-0.68033 0.10714-0.4083 0.19282-0.60657 0.27256-0.62695 0.12352-0.0324 0.23719-0.41943 0.21064-0.71521-8e-3 -0.0958 0.12807-0.56634 0.30317-1.0461 0.17513-0.47954 0.33652-1.0049 0.35938-1.1671 0.0395-0.28258 0.16296-0.35662 0.16296-0.0996 0 0.23249 0.89708 1.9298 1.2496 2.3641 0.2425 0.29845 0.35441 0.49976 0.35441 0.63692 0 0.26837 0.1569 0.38288 0.58497 0.42557l0.35653 0.0341 0.0213 0.29462c6.6e-4 0.01 1e-3 0.0183 1e-3 0.027h0.58354c0.011-0.0124 0.0298-0.0273 0.0562-0.0434 0.0384-0.024 0.0697-0.0972 0.0697-0.16155-1e-5 -0.0996 0.0596-0.11361 0.43625-0.0818 0.38058 0.0304 0.43847 0.0549 0.45758 0.18645 7e-3 0.045 8e-3 0.0771-0.01 0.10039h1.0063c-4e-3 -0.0124-7e-3 -0.0277-7e-3 -0.0449 0-0.107 0.049-0.11416 0.3665-0.0775 0.20143 0.0245 0.63907 0.0449 0.63907 0.0449s3.2701-0.0421 3.692-0.27754c0 0 0.31439-0.0949 1.0568-0.76574 0.1227-0.11085 0.38285-0.40064 0.38285-0.40064 0.1855-0.20043 0.43853-0.54124 0.56219-0.75719l0.22488-0.39284 0.311 0.31099 0.31099 0.311-0.17933 0.35368c-0.0986 0.1947-0.44053 0.94642-0.51902 0.97149-0.12767 0.0525-0.11318 0.0386-0.1622 0.15757l-0.0284 0.16438 0.86219-0.0429s0.025-0.1617 4e-3 -0.22752c-0.0211-0.0661 0.26447-0.61119 0.32667-0.73403l0.11457-0.22274 0.44692 0.44335s0.94395 0.89329 1.4985 1.3391l1.3252 0.0437s-6e-3 -2.0721-4e-3 -2.3833l1e-3 -0.43624 0.79775-0.64617 0.79918-0.64617 0.24339 0.3608c0.18517 0.27172 2.2815 3.4515 2.2815 3.4515l0.45617 0.0541s-2.0731-3.3253-3.3761-5.259c-0.90749-1.3468-0.99701-1.6651-0.99701-1.898 0-0.17584-0.0348-0.28342-0.10315-0.31028-0.0866-0.0335-0.10315-0.23123-0.10315-1.1792 0-1.0674 0.01-1.1425 0.13593-1.182 0.10631-0.034 0.14211-0.11802 0.15726-0.39994 0.014-0.1965 0.0565-0.36768 0.0961-0.38145 0.99127-0.84292 0.51977-0.46662 1.9983-1.7286l7.1e-4 -7.2e-4 7.2e-4 -7e-4c0.0589-0.0683 1.2254 0.0636 1.5357 0.0355l0.40778-2.8544v-0.4462c0-0.31154 0.0289-0.47393 0.10314-0.53301 0.15212-0.12683 0.13427-0.53748-0.0278-0.62341-0.0722-0.0387-0.15036-0.14517-0.17364-0.2384-0.0558-0.22224-0.38359-0.34876-1.4574-0.56362-1.7422-0.34838-4.7118-0.63829-5.9259-0.58142-0.35761 0.018-0.6534 0.0146-0.68034-0.01l-7.1e-4 -7e-4 -7e-4 -7.1e-4v-0.00142h-7.2e-4v-7.2e-4c0-0.0256 0.21583-0.4212 0.47893-0.87887 0.88727-1.5436 0.87548-1.529 1.0917-1.5649 0.13207-0.023 0.24672-0.11265 0.33376-0.2626 0.12118-0.20489 0.12449-0.24425 0.0313-0.3857-0.0559-0.0865-0.10246-0.24944-0.10246-0.36223 0-0.23818-0.15367-0.3838-1.0988-1.0426-1.2716-0.88653-3.2631-1.969-4.6122-2.5064-0.68504-0.27289-1.0048-0.31441-1.1422-0.14873-0.0478 0.0558-0.1726 0.10315-0.27683 0.10315-0.3475 0-0.58237 0.44189-0.39069 0.73442 0.10742 0.16378 0.0864 0.21805-0.63977 1.6738-0.58015 1.1632-0.77617 1.4974-0.86466 1.4745-0.15009-0.0387-0.21892 0.0158-0.32594 0.25905-0.0737 0.16765-0.071 0.21853 0.0142 0.31383 0.0755 0.0836 0.0836 0.14611 0.0306 0.24196-0.0574 0.10259-0.0325 0.17008 0.1267 0.33874 0.35117 0.37208 1.7938 1.2861 2.937 1.861l0.43553 0.2199v2.4082l-0.21635 0.0804c-0.20092 0.0759-0.21494 0.10205-0.19001 0.36366l0.027 0.28253h-1.7535c-0.96436 0-1.8969 0.019-2.0723 0.0434l-0.31881 0.0427-0.022-0.26686c-0.0182-0.21984-0.0541-0.27625-0.19713-0.30957l-0.17435-0.0391-0.0185-1.8972c-0.0165-1.6574-6e-3 -1.898 0.0868-1.898 0.0857 0 0.10604-0.10549 0.10604-0.55792 0-0.51604-0.011-0.55794-0.14304-0.55794-0.12243 0-0.13703-0.0328-0.10398-0.22702 0.26971-1.5814 0.74372-4.3045 0.76787-4.4122 0.0172-0.0773 0.12945-0.19767 0.24907-0.269 0.49994-0.2953 0.63964-0.99317 0.31312-1.5642l-0.1715-0.29889 0.14446-0.71235c0.0793-0.39184 0.15452-0.72137 0.16582-0.73514v-7.1e-4h7.1e-4v-7.1e-4h0.00142c0.0207-7e-3 0.11472 0.0274 0.21705 0.0804 0.90173 0.46237 3.5368 1.2379 4.5346 1.3372 0.63131 0.0618 0.79064 0.0158 0.79064-0.22985 0-0.4264-1.853-1.9026-3.697-2.9441-0.36443-0.20612-0.67513-0.4047-0.68959-0.4405-0.0146-0.0364-0.13193-0.18303-0.26046-0.32523l-0.23342-0.25832 0.0946-0.36436c0.0942-0.36246 0.0936-0.36477-0.0833-0.43198-0.25551-0.0971-0.33733-0.0399-0.38715 0.27115l-0.0441 0.2754-0.43126 0.0377c-0.3658 0.0332-0.50649 0.01-0.92513-0.15655-1.3517-0.53527-2.8875-0.90603-3.85-0.93013zm9.3859 15.036h0.00213c4.7e-4 2e-5 7.8e-4 3e-5 1e-3 0 4e-3 -5e-5 7e-3 1e-3 0.011 3e-3 0.0479 0.0191 0.40057 0.16036 0.78423 0.31384 0.38361 0.15349 0.87817 0.31958 1.0988 0.37219 0.39763 0.0925 0.52049 0.22335 0.27042 0.28822-0.10314 0.0273-0.14107 0.12821-0.18004 0.49957-0.0369 0.33057-0.0252 0.49454 0.0348 0.56932 0.0683 0.0815 0.0694 0.22977 4e-3 0.69598h7.2e-4c-0.0457 0.32585-0.10535 0.65349-0.13455 0.73158-0.0852 0.22947-0.21144 0.0227-0.1715-0.27897 0.052-0.38958-0.13069-0.49175-0.86822-0.49175h-0.57714v-0.31241c0-0.27683-0.0208-0.31878-0.17435-0.35582l-0.17436-0.0441v-1.0112c0-0.72013 0.0167-0.96615 0.0719-0.97851zm2.4879 4.4577v7.2e-4c0.0643-4e-3 0.29595 0.0218 0.55936 0.0683l0.54725 0.0946 0.9721 1.034c0.53446 0.56888 1.0128 1.0942 1.0668 1.1706 0.053 0.0748 0.11265 0.31567 0.13303 0.53516 0.0219 0.21969 0.0763 0.43207 0.1238 0.46898 0.0581 0.0472 0.0971 0.43386 0.12449 1.1984 0.0337 0.93054 0.0218 1.1338-0.0577 1.1664-0.0638 0.0231-0.0997 0.13945-0.0997 0.30316 0 0.14606-0.0555 0.34253-0.12174 0.43838-0.0669 0.0947-0.12229 0.20947-0.12311 0.25547-7.5e-4 0.0459-0.47208 0.94776-1.0475 2.004l3e-3 -7e-4c-0.57548 1.0562-1.0633 1.9213-1.0838 1.9222h-0.00143c-0.028-7e-3 -0.1753-0.13957-0.33376-0.30104l-0.29747-0.30315 0.20922-0.70524c0.11527-0.38804 0.26468-0.78889 0.33092-0.88956 0.0921-0.1399 0.10274-0.21286 0.0463-0.30458-0.0528-0.081-0.0565-0.22142-0.0138-0.42912 0.0994-0.47129 0.15428-3.0315 0.0768-3.6223-0.0406-0.32694-0.0417-0.55274-1e-3 -0.60562 0.0435-0.0536 7e-3 -0.27329-0.10604-0.62766-0.0952-0.29994-0.25662-0.84391-0.35867-1.2084-0.10232-0.36445-0.27743-0.88039-0.38857-1.1465-0.10851-0.25778-0.18398-0.48335-0.17505-0.51025v-7e-4l7.1e-4 -7.2e-4 7e-4 -7.1e-4c3e-3 -1e-3 8e-3 -3e-3 0.0157-4e-3zm2.0659 0.36081h0.00285c1e-3 -2.2e-4 6e-3 -7e-5 8e-3 7.2e-4 0.0767 0.0207 0.40617 0.0894 0.73228 0.15086 0.91442 0.17526 0.86205 0.1132 0.83689 0.69528-0.0229 0.52747-0.0227 0.43685-0.0364 0.84544-2.3e-4 7e-3 -0.53934-0.58257-0.9415-0.98919-0.35257-0.35666-0.60132-0.64432-0.6049-0.69599v-0.00427h7.1e-4v-0.00142h7.1e-4v-7.1e-4h7.1e-4zm2.394 0.38286 0.15942 5e-3 1.6389 0.0355c-0.56828 0.38861-1.6573 1.3884-1.8716 1.5258 0.0124-0.29295 0.0394-1.2153 0.0733-1.567zm0.12876 6.5863c0.0675-4e-3 0.18502 0.17198 0.55721 0.73084l0.543 0.81555-0.34088 0.2989h-7.1e-4c-0.18755 0.16404-0.47456 0.39383-0.63764 0.51309l-0.29675 0.21492v-1.1472c0-0.82778 0.0271-1.1984 0.0953-1.3293 0.0293-0.0566 0.0497-0.0952 0.0804-0.0968zm-1.1393 0.12091h0.00142c1e-3 -6e-5 3e-3 -5e-5 4e-3 0 0.0179 5.2e-4 0.0321 0.0229 0.0562 0.047h-3e-3c0.0415 0.0431 0.0664 0.49296 0.0526 1.16l-0.0185 1.0902-0.46469-0.41489-0.46399-0.4156 0.38927-0.71449c0.32202-0.59065 0.40004-0.74328 0.4462-0.7522zm-1.1123 1.952 0.25547 0.22844c0.14085 0.12559 0.42012 0.37441 0.62056 0.55295l0.36507 0.3245v0.42771c0.0285 0.95185-0.0185 2.1577-0.0185 2.1577s-0.75954-0.55358-1.1643-1.0376l-7.1e-4 7.1e-4c-0.0226 0-0.25425-0.21516-0.51452-0.47751l-0.47325-0.47608 0.46471-0.85043z" stroke-width=".26364"/><path d="m151.14 47.712c-0.31184 2e-3 -0.57915 0.0465-0.72462 0.13714-0.0932 0.0581-0.0845 0.11023 0.0504 0.30134 0.49128 0.69567 0.98023 2.0156 1.1582 3.1264 0.0889 0.55505 0.12054 0.62768 0.27319 0.62768 0.27838 0 0.75392 0.3771 0.99559 0.78947 0.577 0.98457-2e-3 2.212-1.0407 2.2052-0.68186-4e-3 -1.2257-0.48858-1.33-1.184-0.0661-0.4402 0.0619-0.81652 0.45621-1.3412 0.2803-0.37305 0.31071-0.45746 0.26954-0.74868-0.18006-1.2736-0.88878-3.0527-1.3536-3.3979-0.44128-0.32773-1.5248-0.0934-2.0793 0.44971-0.11138 0.10909-0.43247 0.28759-0.71356 0.39672-1.4237 0.55273-2.3563 1.9601-2.1256 3.2078 0.0945 0.51138 0.24298 0.78627 0.49843 0.92298 0.16107 0.0862 0.16681 0.0768 0.10979-0.17937-0.0822-0.36932-0.058-0.81633 0.059-1.0929l0.0975-0.23031 0.0264 0.24296c0.0615 0.56589 0.21948 1.0075 0.5617 1.5712l0.36382 0.59934-0.33298 0.67845c-0.18317 0.37311-0.30935 0.71683-0.28029 0.76385 0.0291 0.047 0.21288 0.15409 0.40842 0.23791 0.32084 0.13753 0.35559 0.17939 0.35559 0.42883 0 0.15203 0.0547 0.32182 0.12152 0.37726 0.0668 0.0555 0.12152 0.16415 0.12152 0.24171 0 0.13986 0.36928 0.56819 0.48989 0.56819 0.0346 0 0.0876 0.14705 0.11798 0.32695 0.0359 0.21237 0.1214 0.37039 0.2436 0.45051 0.17254 0.11304 0.2348 0.10684 0.74156-0.0755 0.30425-0.10944 0.74466-0.28321 0.97883-0.38596l0.42582-0.18682 0.36872 0.3605c0.45832 0.44801 0.71395 0.85052 0.65551 1.032-0.0246 0.0762-0.117 0.34634-0.20563 0.60045-0.17157 0.49197-0.37123 1.7689-0.45289 2.8965-0.0324 0.44666-0.0934 0.73401-0.1751 0.82428-0.0714 0.079-0.1043 0.2049-0.0764 0.2928 0.031 0.0977-9e-3 0.20653-0.10894 0.29706-0.15194 0.13751-0.22203 0.12158-1.8732-0.42582l-1.7153-0.56867-0.78031-0.7637c-0.62865-0.61527-0.87477-0.79977-1.2662-0.94893-0.49894-0.19011-1.2341-0.25459-1.5586-0.13667-0.15897 0.0578-0.33644-0.0857-1.4173-1.1454-1.7983-1.7631-5.3546-4.8732-5.5723-4.8732-0.0453 0-0.10467 0.0584-0.13208 0.12987-0.0357 0.0928 0.20195 0.36304 0.83267 0.94719 1.3326 1.2342 3.4145 3.2938 4.4894 4.4413 0.75451 0.80548 0.94908 1.0595 0.91413 1.1932-0.0854 0.32622 0.0458 0.55797 0.45952 0.81258 0.31056 0.19109 0.40526 0.29633 0.40526 0.4505 0 0.139 0.071 0.23775 0.22968 0.31984 0.12635 0.0653 0.32909 0.24909 0.4505 0.40827 0.42964 0.56327 1.4688 0.88378 2.1601 0.66626 0.17858-0.0561 0.35124 0.0315 1.2148 0.61707 1.5293 1.037 2.0052 1.2489 3.9628 1.7636l0.36446 0.0957-0.42203 0.14553c-0.69617 0.23995-1.5626 0.339-2.1962 0.25119-0.6629-0.0919-1.1285-0.28494-1.6478-0.68351-0.20813-0.15974-0.49239-0.34947-0.63178-0.42156-0.33078-0.17104-1.1236-0.17488-1.448-7e-3l-0.24819 0.12829-1.4814-1.2384c-0.81477-0.68111-2.096-1.721-2.8473-2.3107-1.0886-0.85459-1.3887-1.0533-1.478-0.97914-0.0617 0.0512-0.11211 0.14032-0.11211 0.19805 0 0.0577 0.81091 0.82541 1.802 1.706 0.9911 0.88058 2.1543 1.9444 2.585 2.364l0.78316 0.76291-0.15518 0.25452c-0.22413 0.36757-0.20615 0.68411 0.0423 0.74645 0.10882 0.0273 0.23206 0.0284 0.27396 2e-3 0.0419-0.0259 0.11835 0.0548 0.1699 0.17922 0.0515 0.12445 0.35655 0.42475 0.67764 0.66721l0.58386 0.44085 0.69252-7e-3c0.47448-4e-3 0.77789-0.0489 0.96396-0.14173 0.14934-0.0745 0.36201-0.13541 0.47249-0.13541 0.11052 0 0.95666 0.25602 1.8804 0.56898 1.0771 0.36489 1.8723 0.58698 2.2164 0.61912 0.29519 0.0276 0.53671 0.0821 0.53671 0.12117 0 0.0391-0.20956 0.27161-0.46569 0.51662-0.37962 0.36312-0.44324 0.45975-0.3442 0.52326 0.0668 0.0429 0.18526 0.0786 0.26321 0.0793 0.0779 6.2e-4 0.14172 0.0368 0.14172 0.0804 0 0.16653-0.40708 0.32808-1.6198 0.64269-0.69043 0.17912-2.8346 0.76181-2.8346 0.76181s-3.3618 1.1964-3.7438 1.3081c-0.80966 0.56856-0.66589 0.34867-0.95693 2.503-0.2091 1.838-0.47357 5.8031-0.47357 5.8031l-0.40193 1.4948s0.0766 0.28204-0.20817 0.30561c-0.24311 0.0201-0.34712 0.17486-0.53244 0.79186-0.12495 0.416-0.62908 0.92742-0.91144 1.0067-1.1715 0.32877-1.7706 0.4909-2.0532 0.71782-0.97906 1.1773 5.3269 0.53152 5.7759 0.53129 0.38806-0.22764 0.85433-0.94141 0.94098-1.4459 4e-3 -0.0198 4e-3 -0.14833-0.0373-0.32948-0.0499-0.22211-0.0434-0.43217 0.0206-0.64523 0.0699-0.23327 0.0711-0.34464 4e-3 -0.4252-0.0675-0.0814-0.0401-0.40539 0.10845-1.2781 0.10955-0.64297 0.22299-1.4514 0.25215-1.7966 0.029-0.34253 0.0744-0.19 0.10137-0.19405h6.3e-4c0.027 3e-4 0.14608-0.20486 0.26464 0.07319 0.11859 0.27806 0.63472 1.3251 0.99501 2.0955 0.21192 0.45314 0.32955 0.62454-0.61023 1.483-0.46719 0.42677-1.0944 1.1227-1.2127 1.5074-0.11074 0.36017 0.44051 0.53675 0.62498 0.46072l4.5066-2.5542c-0.11721-1.8704-0.22816-0.1906-0.74466-2.4059-0.58331-2.5019-1.3468-2.8266-2.0027-3.8656-0.10589-0.1678-0.19251-0.32405-0.19251-0.34721 0-0.0231 0.63906-0.0421 1.4202-0.0421 1.379 0 1.4177 4e-3 1.3363 0.1566-0.11603 0.21677-0.10308 0.97506 0.0209 1.2202l0.10235 0.20246 4.1259 0.081-0.0959 3.4439 1.5203-0.43942 0.15465-3.0449 3.9882-0.018s9e-3 -2.4797-0.0144-3.5455l0.15232-0.26321c0.26367-0.45589 0.49882-1.3701 0.54684-2.126 0.0254-0.40089 0.0808-0.79606 0.12307-0.87806 0.0489-0.0948 0.0458-0.44859-9e-3 -0.97186-0.0469-0.45254-0.12367-1.4423-0.17067-2.1995-0.12215-1.9676-0.42499-3.4849-1.1878-5.9527-1.1026-3.5671-2.2361-5.3184-3.9152-6.0486-0.9159-0.39825-1.0092-0.4615-1.1019-0.74819-0.1321-0.40853 2e-3 -0.86675 0.40668-1.3831 1.0004-1.2785 1.1901-2.5764 0.58226-3.9824-0.15824-0.366-0.27958-0.67362-0.26953-0.68366 0.01-0.01 0.1159-0.0427 0.23505-0.0726 0.18642-0.0468 0.23533-0.0183 0.35037 0.20421 0.34152 0.66042 0.46629 1.6852 0.28583 2.3477-0.26754 0.98224-0.23272 2.1462 0.0838 2.8039 0.30399 0.63161 1.1955 1.3653 1.8931 1.5579l0.29722 0.0819-0.28362-0.31383c-0.33627-0.37221-0.48512-0.64443-0.61343-1.1213-0.12775-0.47486-0.0434-0.52327 0.14696-0.0843 0.34375 0.79264 1.1719 1.2871 2.1558 1.2871 0.28497 0 0.61847-0.0381 0.74109-0.0848l0.22287-0.0848-0.24692-0.15027c-0.29476-0.17926-0.62823-0.62104-0.51947-0.68825 0.0423-0.0261 0.0972-0.0146 0.12213 0.0256 0.0249 0.0402 0.17705 0.0979 0.33819 0.12812 0.22752 0.0427 0.38858 8e-3 0.72132-0.1547 0.23565-0.11529 0.47784-0.26899 0.53813-0.34167 0.10027-0.12095 0.0876-0.12092-0.14965 2e-3 -0.49799 0.25744-1.0319 0.10256-1.5983-0.46379-0.49779-0.49778-0.5994-0.88237-0.64475-2.4392-0.023-0.78934-0.0884-1.4988-0.16704-1.8151-0.37274-1.4986-1.3907-2.6745-2.488-2.8738-0.44296-0.0804-0.98193 0.0898-1.6362 0.51693l-0.58385 0.38106-0.38075-0.34451c-0.20936-0.18956-0.54533-0.42441-0.74661-0.52184-0.41049-0.19871-1.0541-0.30897-1.5739-0.30466z" stroke-width=".080989"/></g><g fill="#fff" fill-opacity=".34814"><path d="m475.62 78.528-5.9953 1.0682-0.6886 6.0506-1.0682-5.9953-6.0507-0.68861 5.9953-1.0682 0.6886-6.0507 1.0682 5.9953z" stroke-width="3.0643"/><path d="m429.94 153.82-4.4447-3.7541-4.8672 3.1874 3.7541-4.4447-3.1874-4.8672 4.4447 3.7541 4.8672-3.1874-3.7541 4.4447z" stroke-width="2.9275"/><path d="m560.72 19.588-6.1818 0.58661-1.2034 6.0919-0.58661-6.1818-6.0918-1.2034 6.1818-0.58661 1.2034-6.0919 0.58661 6.1818z" stroke-width="3.1246"/><path d="m561.13 183.63-4.5368 0.38132-0.93032 4.4567-0.38132-4.5368-4.4567-0.93032 4.5368-0.38132 0.93032-4.4567 0.38132 4.5368z" stroke-width="2.2909"/><path d="m450.67 232.53-3.7933-3.4227-4.3635 2.6577 3.4227-3.7933-2.6577-4.3636 3.7933 3.4227 4.3635-2.6577-3.4227 3.7933z" stroke-width="2.5709"/></g><path d="m525.64 102.38a3.464 3.464 0 0 1-3.464 3.464 3.464 3.464 0 0 1-3.464-3.464 3.464 3.464 0 0 1 3.464-3.464 3.464 3.464 0 0 1 3.464 3.464z" fill="url(#bt)" stroke-width="6.0101"/><path d="m568.84 149.57a3.2184 3.2184 0 0 1-4.4837 0.78302 3.2184 3.2184 0 0 1-0.78303-4.4837 3.2184 3.2184 0 0 1 4.4837-0.78302 3.2184 3.2184 0 0 1 0.78303 4.4837z" fill="url(#bp)" stroke-width="5.584"/><path d="m525.19 198.96a4.2341 4.2341 0 0 1-5.8838 1.1118 4.2341 4.2341 0 0 1-1.1118-5.8838 4.2341 4.2341 0 0 1 5.8838-1.1118 4.2341 4.2341 0 0 1 1.1118 5.8838z" fill="url(#bl)" stroke-width="7.3463"/><path d="m420.18 165.25a3.1913 3.1913 0 0 1-3.4643 2.8926 3.1913 3.1913 0 0 1-2.8926-3.4643 3.1913 3.1913 0 0 1 3.4643-2.8926 3.1913 3.1913 0 0 1 2.8926 3.4643z" fill="url(#bj)" stroke-width="5.5369"/><path d="m358.73 111.5a2.885 2.885 0 0 1-3.3609 2.3132 2.885 2.885 0 0 1-2.3132-3.3609 2.885 2.885 0 0 1 3.3609-2.3132 2.885 2.885 0 0 1 2.3132 3.3609z" fill="url(#bg)" stroke-width="5.0056"/><path d="m435.14 93.402a2.8453 2.8453 0 0 1-3.9439 0.79789 2.8453 2.8453 0 0 1-0.7979-3.9439 2.8453 2.8453 0 0 1 3.9439-0.79789 2.8453 2.8453 0 0 1 0.7979 3.9439z" fill="url(#bd)" stroke-width="4.9366"/><path d="m386.62 42.938a3.3803 3.3803 0 0 1-4.0628 2.5192 3.3803 3.3803 0 0 1-2.5192-4.0628 3.3803 3.3803 0 0 1 4.0628-2.5192 3.3803 3.3803 0 0 1 2.5192 4.0628z" fill="url(#ba)" stroke-width="5.8648"/><use transform="matrix(1.0278 -.14243 .14243 1.0278 -478.04 -234.69)" xlink:href="#b"/><use transform="matrix(.57972 -.54796 .54796 .57972 -259.59 189.53)" xlink:href="#b"/><use transform="matrix(1.1074 .37834 -.37834 1.1074 -352.72 -548.97)" xlink:href="#b"/><use transform="matrix(.65188 -.76358 .76358 .65188 -288.88 333.67)" xlink:href="#b"/><use transform="matrix(.94581 .81539 -.81539 .94581 78.853 -657.42)" xlink:href="#b"/><use transform="matrix(.70191 .55588 -.55588 .70191 48.782 -371.06)" xlink:href="#b"/><use transform="matrix(.76994 -.64609 .64609 .76994 -457.77 208.23)" xlink:href="#b"/><use transform="matrix(1.0029 .20523 -.20523 1.0029 -153.13 -353.95)" xlink:href="#b"/><use transform="matrix(.84451 -.65653 .65653 .84451 -557.96 90.43)" xlink:href="#b"/><use transform="matrix(.57196 -.54336 .54336 .57196 9.579 154.75)" xlink:href="#b"/><use transform="matrix(.84018 -.64736 .64736 .84018 -311.87 45.002)" xlink:href="#b"/><g fill="#fff" fill-opacity=".34814"><path d="m1002.1 32.694-5.9953 1.0682-0.6886 6.0506-1.0682-5.9953-6.0507-0.68861 5.9953-1.0682 0.6886-6.0507 1.0682 5.9953z" stroke-width="3.0643"/><path d="m956.38 107.99-4.4447-3.7541-4.8672 3.1874 3.7541-4.4447-3.1874-4.8672 4.4447 3.7541 4.8672-3.1874-3.7541 4.4447z" stroke-width="2.9275"/><path d="m1087.6 137.8-4.5367 0.38132-0.9304 4.4567-0.3813-4.5368-4.4567-0.93032 4.5368-0.38132 0.9303-4.4567 0.3813 4.5368z" stroke-width="2.2909"/><path d="m977.11 186.7-3.7933-3.4227-4.3635 2.6577 3.4227-3.7933-2.6577-4.3636 3.7933 3.4227 4.3635-2.6577-3.4227 3.7933z" stroke-width="2.5709"/></g><path d="m1052.1 56.547a3.464 3.464 0 0 1-3.464 3.464 3.464 3.464 0 0 1-3.464-3.464 3.464 3.464 0 0 1 3.464-3.464 3.464 3.464 0 0 1 3.464 3.464z" fill="url(#bu)" stroke-width="6.0101"/><path d="m1095.3 103.74a3.2184 3.2184 0 0 1-4.4837 0.78302 3.2184 3.2184 0 0 1-0.783-4.4837 3.2184 3.2184 0 0 1 4.4837-0.78302 3.2184 3.2184 0 0 1 0.783 4.4837z" fill="url(#bo)" stroke-width="5.584"/><path d="m1051.6 153.13a4.2341 4.2341 0 0 1-5.8839 1.1118 4.2341 4.2341 0 0 1-1.1118-5.8838 4.2341 4.2341 0 0 1 5.8838-1.1118 4.2341 4.2341 0 0 1 1.1119 5.8838z" fill="url(#bm)" stroke-width="7.3463"/><path d="m946.62 119.41a3.1913 3.1913 0 0 1-3.4643 2.8926 3.1913 3.1913 0 0 1-2.8926-3.4643 3.1913 3.1913 0 0 1 3.4643-2.8926 3.1913 3.1913 0 0 1 2.8926 3.4643z" fill="url(#bi)" stroke-width="5.5369"/><path d="m885.17 65.667a2.885 2.885 0 0 1-3.3609 2.3132 2.885 2.885 0 0 1-2.3132-3.3609 2.885 2.885 0 0 1 3.3609-2.3132 2.885 2.885 0 0 1 2.3132 3.3609z" fill="url(#bf)" stroke-width="5.0056"/><path d="m961.58 47.569a2.8453 2.8453 0 0 1-3.9439 0.79789 2.8453 2.8453 0 0 1-0.7979-3.9439 2.8453 2.8453 0 0 1 3.9439-0.79789 2.8453 2.8453 0 0 1 0.7979 3.9439z" fill="url(#bc)" stroke-width="4.9366"/><path d="m913.06-2.8952a3.3803 3.3803 0 0 1-4.0628 2.5192 3.3803 3.3803 0 0 1-2.5192-4.0628 3.3803 3.3803 0 0 1 4.0628-2.5192 3.3803 3.3803 0 0 1 2.5192 4.0628z" fill="url(#az)" stroke-width="5.8648"/><use transform="matrix(1.0278 -.14243 .14243 1.0278 48.401 -280.53)" xlink:href="#b"/><use transform="matrix(.57972 -.54796 .54796 .57972 266.85 143.69)" xlink:href="#b"/><use transform="matrix(.65188 -.76358 .76358 .65188 237.56 287.84)" xlink:href="#b"/><use transform="matrix(.94581 .81539 -.81539 .94581 605.29 -703.25)" xlink:href="#b"/><use transform="matrix(.70191 .55588 -.55588 .70191 575.22 -416.9)" xlink:href="#b"/><use transform="matrix(.76994 -.64609 .64609 .76994 68.664 162.4)" xlink:href="#b"/><use transform="matrix(1.0029 .20523 -.20523 1.0029 373.31 -399.79)" xlink:href="#b"/><use transform="matrix(.84451 -.65653 .65653 .84451 -31.522 44.597)" xlink:href="#b"/><use transform="matrix(.57196 -.54336 .54336 .57196 536.02 108.91)" xlink:href="#b"/><use transform="matrix(1.0278 -.14243 .14243 1.0278 697.96 -258.89)" xlink:href="#b"/><use transform="matrix(1.1074 .37834 -.37834 1.1074 823.27 -573.17)" xlink:href="#b"/><use transform="matrix(.84451 -.65653 .65653 .84451 618.03 66.228)" xlink:href="#b"/></svg>
