<?xml version="1.0" encoding="UTF-8" standalone="no"?>
<!-- Created with Inkscape (http://www.inkscape.org/) -->

<svg
   width="60.36068mm"
   height="8.0173082mm"
   viewBox="0 0 60.36068 8.0173082"
   version="1.1"
   id="svg1"
   xml:space="preserve"
   xmlns="http://www.w3.org/2000/svg"
   xmlns:svg="http://www.w3.org/2000/svg"><defs
     id="defs1" /><g
     id="layer1"
     transform="translate(-90.82203,-107.0654)"><g
       id="text344"
       style="font-size:11.2889px;font-family:'Noto Sans';-inkscape-font-specification:'Noto Sans';fill:#ffffff;stroke-width:3.47001"
       aria-label="EavesDrum"
       transform="translate(2.0977762,0.4661725)"><g
         id="text119"
         style="font-family:Audiowide;-inkscape-font-specification:Audiowide;fill:#1a1a1a"
         aria-label="EavesDrum"><path
           style="font-family:Philosopher;-inkscape-font-specification:Philosopher;stroke-width:3.47"
           d="m 89.740256,114.50362 v -6.09601 q 0,-0.508 -0.146756,-0.8128 -0.135467,-0.31609 -0.643467,-0.31609 h -0.225778 v -0.22578 h 4.809071 q 0.395112,0 0.598312,0.13547 0.2032,0.12418 0.282223,0.33867 0.07902,0.2032 0.07902,0.42897 v 0.84667 h -0.225778 q 0,-0.67733 -0.372534,-0.98213 -0.361245,-0.31609 -1.038579,-0.31609 h -2.099735 v 2.93511 h 3.048003 v 0.45156 h -3.048003 v 3.16089 h 1.975558 q 0.767645,0 1.207912,-0.28222 0.451556,-0.28222 0.711201,-0.95956 l 0.225778,0.0564 -0.395112,1.07244 q -0.09031,0.25965 -0.3048,0.41769 -0.2032,0.14676 -0.541867,0.14676 z m 7.540987,0.11289 q -0.237067,0 -0.519289,-0.079 -0.270934,-0.0677 -0.530579,-0.24835 -0.259644,-0.18063 -0.428978,-0.48543 -0.158045,-0.3048 -0.158045,-0.76764 0,-0.62089 0.395112,-0.95956 0.4064,-0.33866 1.061157,-0.47413 0.666045,-0.14676 1.422401,-0.14676 h 0.338667 q 0,-0.79022 -0.158045,-1.19662 -0.158044,-0.41769 -0.428978,-0.56445 -0.259644,-0.15804 -0.598311,-0.15804 -0.474134,0 -0.801512,0.2032 -0.31609,0.2032 -0.440268,0.75636 h -0.508 q 0,-0.29351 0.03387,-0.54187 0.03387,-0.25965 0.248355,-0.47413 0.21449,-0.21449 0.699912,-0.3048 0.485423,-0.0903 0.993424,-0.0903 0.383822,0 0.733778,0.0903 0.361245,0.0903 0.632178,0.33866 0.282223,0.23707 0.440268,0.7112 0.169333,0.46285 0.169333,1.23049 v 3.04801 h -0.564445 l -0.395111,-0.508 h -0.05644 q -0.169333,0.21448 -0.553156,0.41769 -0.383823,0.2032 -1.02729,0.2032 z m 0.508001,-0.50801 q 0.417689,0 0.654756,-0.2032 0.248356,-0.21448 0.417689,-0.47413 v -1.524 h -0.338667 q -0.846667,0 -1.33209,0.31609 -0.474134,0.3048 -0.474134,0.8128 0,0.55316 0.327378,0.8128 0.327378,0.25964 0.745068,0.25964 z m 5.599306,0.50801 -1.74978,-4.12045 q -0.27094,-0.63218 -0.51929,-0.88054 -0.24836,-0.25964 -0.65476,-0.28222 v -0.22578 q 0.0452,0 0.16933,-0.0113 0.13547,-0.0113 0.21449,-0.0113 0.34996,0 0.68863,0.11289 0.34995,0.1016 0.66604,0.4064 0.31609,0.3048 0.56445,0.89183 l 1.016,2.42711 1.58044,-3.72534 h 0.56445 l -2.31423,5.41868 z m 5.53156,0 q -0.79022,0 -1.3208,-0.37254 -0.51929,-0.37253 -0.79022,-1.00471 -0.25965,-0.63218 -0.25965,-1.38854 0,-0.76764 0.27094,-1.38853 0.27093,-0.63218 0.77893,-1.00471 0.508,-0.37254 1.20791,-0.37254 1.15147,0 1.70463,0.64347 0.55315,0.64347 0.55315,1.84009 l -0.0226,0.45156 h -3.42053 q 0,0.92569 0.39511,1.53529 0.4064,0.6096 1.12889,0.6096 0.55315,0 0.9144,-0.23707 0.37253,-0.23706 0.66604,-0.66604 l 0.22578,0.16933 q -0.38382,0.64347 -0.89182,0.9144 -0.49671,0.27094 -1.14018,0.27094 z m -1.29822,-3.04801 h 2.37067 q 0,-0.98213 -0.29352,-1.50142 -0.29351,-0.53058 -0.89182,-0.53058 -0.33867,0 -0.6096,0.27093 -0.25964,0.25965 -0.41769,0.72249 -0.15804,0.45156 -0.15804,1.03858 z m 6.5137,3.04801 q -0.67733,0 -1.10631,-0.11289 -0.42898,-0.12418 -0.64347,-0.33867 -0.21449,-0.21449 -0.24835,-0.48542 -0.0339,-0.27094 -0.0339,-0.69992 h 0.22578 q 0.0903,0.55316 0.47413,0.86925 0.38382,0.31609 1.10631,0.31609 0.64347,0 0.93698,-0.22578 0.3048,-0.22578 0.3048,-0.56444 0,-0.33867 -0.25964,-0.56445 -0.24836,-0.23707 -0.75636,-0.45155 l -0.67733,-0.28223 q -0.64347,-0.25964 -1.00471,-0.6096 -0.34996,-0.36124 -0.34996,-0.9144 0,-0.7112 0.53058,-1.08373 0.53058,-0.38383 1.33209,-0.38383 0.64347,0 1.06116,0.12418 0.41768,0.11289 0.63217,0.32738 0.21449,0.21449 0.24836,0.48542 0.0339,0.27094 0.0339,0.69991 h -0.22578 q -0.0903,-0.55315 -0.47414,-0.86924 -0.37253,-0.31609 -1.04986,-0.31609 -0.55316,0 -0.84667,0.22578 -0.28222,0.22578 -0.28222,0.56444 0,0.29351 0.23706,0.54187 0.23707,0.23707 0.66605,0.41769 l 0.67733,0.28222 q 0.72249,0.29351 1.09503,0.64347 0.37253,0.34996 0.37253,0.93698 0,0.7112 -0.56445,1.09502 -0.56444,0.37254 -1.41111,0.37254 z"
           id="path2" /><path
           style="stroke-width:3.47"
           d="m 125.30551,111.19632 q 0,0.72209 -0.25356,1.32843 -0.24805,0.60634 -0.68902,1.04731 -0.44097,0.43546 -1.04731,0.68351 -0.60634,0.24805 -1.31741,0.24805 h -3.86953 q -0.15434,0 -0.28663,-0.0551 -0.1323,-0.0551 -0.23151,-0.14882 -0.0937,-0.0992 -0.14883,-0.23151 -0.0551,-0.1323 -0.0551,-0.28664 v -6.46025 q 0,-0.14882 0.0551,-0.28112 0.0551,-0.13229 0.14883,-0.23151 0.0992,-0.0992 0.23151,-0.15434 0.13229,-0.0551 0.28663,-0.0551 h 3.86953 q 0.71107,0 1.31741,0.24805 0.60634,0.24805 1.04731,0.68902 0.44097,0.43546 0.68902,1.04731 0.25356,0.60634 0.25356,1.32292 z m -1.43316,-1.28984 q 0,-0.41893 -0.13781,-0.76619 -0.13229,-0.34727 -0.38034,-0.5898 -0.24804,-0.24805 -0.59531,-0.38034 -0.34175,-0.13781 -0.76068,-0.13781 h -3.15846 v 5.03812 h 3.15846 q 0.41893,0 0.76068,-0.1323 0.34727,-0.1378 0.59531,-0.38034 0.24805,-0.24804 0.38034,-0.5898 0.13781,-0.34726 0.13781,-0.7717 z m 7.86585,0.0716 h -3.22462 q -0.29214,0 -0.44097,0.14883 -0.14883,0.14332 -0.14883,0.42444 v 3.95222 h -1.43316 v -3.95222 q 0,-0.36932 0.0937,-0.66146 0.0937,-0.29214 0.24805,-0.51263 0.15985,-0.226 0.3638,-0.38034 0.20395,-0.15985 0.42443,-0.25907 0.226,-0.0992 0.452,-0.14332 0.23151,-0.0496 0.42995,-0.0496 h 3.23564 z m 7.45795,3.80339 q 0,0.15434 -0.0551,0.28664 -0.0551,0.13229 -0.15434,0.23151 -0.0937,0.0937 -0.226,0.14882 -0.12678,0.0551 -0.27561,0.0551 h -3.24115 q -0.26458,0 -0.56775,-0.0606 -0.29766,-0.0606 -0.5898,-0.19292 -0.29215,-0.13781 -0.56776,-0.34176 -0.27009,-0.20946 -0.47404,-0.5016 -0.20395,-0.29766 -0.33073,-0.68351 -0.12127,-0.38585 -0.12127,-0.87092 v -3.3073 h 1.43316 v 3.3073 q 0,0.28112 0.0937,0.50712 0.0992,0.22048 0.26458,0.38034 0.16537,0.15985 0.38585,0.24804 0.226,0.0827 0.48507,0.0827 h 2.50804 v -4.52549 h 1.43316 z m 6.6642,0.7221 h -1.43317 v -3.95222 q 0,-0.28112 -0.14882,-0.42444 -0.14883,-0.14883 -0.44098,-0.14883 h -1.86311 v 4.52549 h -1.43316 v -5.24758 q 0,-0.14883 0.0551,-0.27561 0.0551,-0.13229 0.15434,-0.22599 0.0992,-0.0992 0.23152,-0.15435 0.13229,-0.0551 0.28112,-0.0551 h 2.5852 q 0.29765,0 0.63941,0.10473 0.34175,0.10474 0.65043,0.33625 v -0.44098 h 1.94028 q 0.20395,0 0.42995,0.0496 0.226,0.0441 0.44649,0.14332 0.22599,0.0992 0.42994,0.25907 0.20395,0.15434 0.35829,0.38034 0.15434,0.22049 0.24805,0.51263 0.0937,0.29214 0.0937,0.66146 v 3.95222 h -1.43316 v -3.95222 q 0,-0.28112 -0.14332,-0.42444 -0.1378,-0.14883 -0.42995,-0.14883 h -1.28984 q 0.0717,0.26459 0.0717,0.57327 z"
           id="path3" /></g></g></g></svg>
