<?xml version="1.0" encoding="UTF-8" standalone="no"?>
<svg
   width="1280"
   height="700"
   version="1.1"
   viewBox="0 0 1280 700"
   xml:space="preserve"
   id="svg240"
   xmlns:xlink="http://www.w3.org/1999/xlink"
   xmlns="http://www.w3.org/2000/svg"
   xmlns:svg="http://www.w3.org/2000/svg"><defs
     id="defs4"><radialGradient
       id="aw"
       cx="105.73"
       cy="72.436996"
       r="77.382004"
       gradientTransform="matrix(8.3026,0,0,4.1595,-237.87,17.936)"
       gradientUnits="userSpaceOnUse"><stop
         stop-color="#3574a2"
         offset="0"
         id="stop3"
         style="stop-color:#3574a2;stop-opacity:0.26522326;" /><stop
         stop-color="#3574a2"
         offset="0.69720668"
         id="stop240"
         style="stop-color:#163148;stop-opacity:1;" /><stop
         stop-color="#152e43"
         offset="1"
         id="stop4" /></radialGradient><linearGradient
       xlink:href="#aw"
       id="linearGradient240"
       x1="1201.8431"
       y1="630.70557"
       x2="78.043892"
       y2="7.7734418"
       gradientUnits="userSpaceOnUse"
       gradientTransform="matrix(1,0,0,0.71533819,-0.88864712,218.05964)" /></defs><path
     d="M -3.3953471,216.17771 H 1166.6627 1281.5047 V 676.66948 H -3.3953471 Z"
     fill="url(#aw)"
     stroke-width="20.8584"
     id="path4"
     style="fill:url(#linearGradient240)" /><g
     id="g241"
     transform="matrix(1.3099267,0,0,1.3099267,-396.21168,-138.7299)"><path
       d="m 1281.4547,435.84198 -151.14,69.799 -365.12005,33.225 c 0,0 -2.4265,-0.14867 -6.3924,1.5371 7.8126,12.298 19.53,26.711 20.183,27.037 0.28591,0.15556 0.64567,0.19101 0.79464,0.12209 4.5374,-0.29242 13.647,-0.23925 13.647,-0.23925 l 0.75123,5.7697 147.42,48.549 0.29438,18.042 339.3601,0.1024 z"
       stroke-width="2.0908"
       id="path195" /><g
       transform="matrix(9.0244,0,0,9.0244,-201.16535,-257.51802)"
       id="g197"><path
         d="m 123.1,55.329 c -0.65786,-0.0162 -0.84697,0.0796 -0.7693,0.38927 0.14156,0.56397 2.5962,2.2613 4.6072,3.186 0.33008,0.15175 0.59991,0.29058 0.59991,0.306 0,0.0803 -0.28397,1.3998 -0.30601,1.4219 -0.0139,0.0139 -0.16314,0.0959 -0.33092,0.17933 -0.40808,0.20589 -0.56448,0.51248 -0.53088,1.0376 0.0186,0.29099 0.0764,0.46927 0.21919,0.67535 l 0.19356,0.27968 -0.38927,2.2929 c -0.21445,1.261 -0.38998,2.3124 -0.38998,2.337 -8e-5,7.7e-4 -4.6e-4,0.003 -7e-4,0.004 -0.01,0.0234 -0.0927,0.049 -0.19144,0.062 -0.18796,0.0216 -0.19231,0.0324 -0.21277,0.5437 -0.0172,0.43235 3.9e-4,0.5357 0.10176,0.6113 0.11513,0.0819 0.12064,0.24487 0.10398,1.9549 -0.0172,1.7568 -0.026,1.8704 -0.15373,1.9606 -0.0888,0.0625 -0.13592,0.17754 -0.13592,0.33164 v 0.23554 h -0.44193 c -0.47979,0 -0.70688,0.13606 -0.66253,0.39853 0.0138,0.0775 -0.0993,0.27488 -0.27328,0.47751 -0.39631,0.46134 -0.83022,1.3075 -1.1059,2.1584 -0.17357,0.53566 -0.25671,0.70359 -0.35939,0.71805 -0.0942,0.0146 -0.15426,0.10879 -0.2021,0.31739 -0.0784,0.34124 -0.0547,0.464 0.091,0.464 0.066,0 0.0903,0.0438 0.0654,0.12242 -0.21302,0.67398 -0.30108,2.3689 -0.18503,3.5625 0.0631,0.61734 0.0649,0.88518 0.011,0.95004 -0.0416,0.05 -0.0533,0.14664 -0.027,0.21563 0.0167,0.0439 0.022,0.0715 0.0164,0.0833 v 0.0014 h -7e-4 v 7.1e-4 l -7.2e-4,7.1e-4 -10e-4,0.0014 h -7e-4 l -7.2e-4,7e-4 c -0.01,0.004 -0.028,-0.001 -0.0541,-0.0178 -0.10549,-0.0653 -0.0603,0.12133 0.13372,0.55579 0.21152,0.47358 0.21721,0.52705 0.0804,0.7209 -0.205,0.29044 -0.52294,0.96092 -0.80842,1.7037 -0.20486,0.53282 -0.29594,0.68725 -0.41845,0.71947 -0.11513,0.0289 -0.17355,0.11692 -0.22345,0.33519 -0.0419,0.18153 -0.0437,0.33653 -0.004,0.39781 0.0427,0.0677 -0.004,0.35899 -0.14021,0.8675 l -0.20494,0.76572 c 0,0 0.68266,0.0124 0.73298,-0.0326 0.0346,-0.031 0.0705,-0.35246 0.15657,-0.68033 0.10714,-0.4083 0.19282,-0.60657 0.27256,-0.62695 0.12352,-0.0324 0.23719,-0.41943 0.21064,-0.71521 -0.008,-0.0958 0.12807,-0.56634 0.30317,-1.0461 0.17513,-0.47954 0.33652,-1.0049 0.35938,-1.1671 0.0395,-0.28258 0.16296,-0.35662 0.16296,-0.0996 0,0.23249 0.89708,1.9298 1.2496,2.3641 0.2425,0.29845 0.35441,0.49976 0.35441,0.63692 0,0.26837 0.1569,0.38288 0.58497,0.42557 l 0.35653,0.0341 0.0213,0.29462 c 6.6e-4,0.01 10e-4,0.0183 10e-4,0.027 h 0.58354 c 0.011,-0.0124 0.0298,-0.0273 0.0562,-0.0434 0.0384,-0.024 0.0697,-0.0972 0.0697,-0.16155 -1e-5,-0.0996 0.0596,-0.11361 0.43625,-0.0818 0.38058,0.0304 0.43847,0.0549 0.45758,0.18645 0.007,0.045 0.008,0.0771 -0.01,0.10039 h 1.0063 c -0.004,-0.0124 -0.007,-0.0277 -0.007,-0.0449 0,-0.107 0.049,-0.11416 0.3665,-0.0775 0.20143,0.0245 0.63907,0.0449 0.63907,0.0449 0,0 3.2701,-0.0421 3.692,-0.27754 0,0 0.31439,-0.0949 1.0568,-0.76574 0.1227,-0.11085 0.38285,-0.40064 0.38285,-0.40064 0.1855,-0.20043 0.43853,-0.54124 0.56219,-0.75719 l 0.22488,-0.39284 0.311,0.31099 0.31099,0.311 -0.17933,0.35368 c -0.0986,0.1947 -0.44053,0.94642 -0.51902,0.97149 -0.12767,0.0525 -0.11318,0.0386 -0.1622,0.15757 l -0.0284,0.16438 0.86219,-0.0429 c 0,0 0.025,-0.1617 0.004,-0.22752 -0.0211,-0.0661 0.26447,-0.61119 0.32667,-0.73403 l 0.11457,-0.22274 0.44692,0.44335 c 0,0 0.94395,0.89329 1.4985,1.3391 l 1.3252,0.0437 c 0,0 -0.006,-2.0721 -0.004,-2.3833 l 0.001,-0.43624 0.79775,-0.64617 0.79918,-0.64617 0.24339,0.3608 c 0.18517,0.27172 2.2815,3.4515 2.2815,3.4515 l 0.45617,0.0541 c 0,0 -2.0731,-3.3253 -3.3761,-5.259 -0.90749,-1.3468 -0.99701,-1.6651 -0.99701,-1.898 0,-0.17584 -0.0348,-0.28342 -0.10315,-0.31028 -0.0866,-0.0335 -0.10315,-0.23123 -0.10315,-1.1792 0,-1.0674 0.01,-1.1425 0.13593,-1.182 0.10631,-0.034 0.14211,-0.11802 0.15726,-0.39994 0.014,-0.1965 0.0565,-0.36768 0.0961,-0.38145 0.99127,-0.84292 0.51977,-0.46662 1.9983,-1.7286 l 7.1e-4,-7.2e-4 7.2e-4,-7e-4 c 0.0589,-0.0683 1.2254,0.0636 1.5357,0.0355 l 0.40778,-2.8544 v -0.4462 c 0,-0.31154 0.0289,-0.47393 0.10314,-0.53301 0.15212,-0.12683 0.13427,-0.53748 -0.0278,-0.62341 -0.0722,-0.0387 -0.15036,-0.14517 -0.17364,-0.2384 -0.0558,-0.22224 -0.38359,-0.34876 -1.4574,-0.56362 -1.7422,-0.34838 -4.7118,-0.63829 -5.9259,-0.58142 -0.35761,0.018 -0.6534,0.0146 -0.68034,-0.01 l -7.1e-4,-7e-4 -7e-4,-7.1e-4 v -0.0014 h -7.2e-4 v -7.2e-4 c 0,-0.0256 0.21583,-0.4212 0.47893,-0.87887 0.88727,-1.5436 0.87548,-1.529 1.0917,-1.5649 0.13207,-0.023 0.24672,-0.11265 0.33376,-0.2626 0.12118,-0.20489 0.12449,-0.24425 0.0313,-0.3857 -0.0559,-0.0865 -0.10246,-0.24944 -0.10246,-0.36223 0,-0.23818 -0.15367,-0.3838 -1.0988,-1.0426 -1.2716,-0.88653 -3.2631,-1.969 -4.6122,-2.5064 -0.68504,-0.27289 -1.0048,-0.31441 -1.1422,-0.14873 -0.0478,0.0558 -0.1726,0.10315 -0.27683,0.10315 -0.3475,0 -0.58237,0.44189 -0.39069,0.73442 0.10742,0.16378 0.0864,0.21805 -0.63977,1.6738 -0.58015,1.1632 -0.77617,1.4974 -0.86466,1.4745 -0.15009,-0.0387 -0.21892,0.0158 -0.32594,0.25905 -0.0737,0.16765 -0.071,0.21853 0.0142,0.31383 0.0755,0.0836 0.0836,0.14611 0.0306,0.24196 -0.0574,0.10259 -0.0325,0.17008 0.1267,0.33874 0.35117,0.37208 1.7938,1.2861 2.937,1.861 l 0.43553,0.2199 v 2.4082 l -0.21635,0.0804 c -0.20092,0.0759 -0.21494,0.10205 -0.19001,0.36366 l 0.027,0.28253 h -1.7535 c -0.96436,0 -1.8969,0.019 -2.0723,0.0434 l -0.31881,0.0427 -0.022,-0.26686 c -0.0182,-0.21984 -0.0541,-0.27625 -0.19713,-0.30957 l -0.17435,-0.0391 -0.0185,-1.8972 c -0.0165,-1.6574 -0.006,-1.898 0.0868,-1.898 0.0857,0 0.10604,-0.10549 0.10604,-0.55792 0,-0.51604 -0.011,-0.55794 -0.14304,-0.55794 -0.12243,0 -0.13703,-0.0328 -0.10398,-0.22702 0.26971,-1.5814 0.74372,-4.3045 0.76787,-4.4122 0.0172,-0.0773 0.12945,-0.19767 0.24907,-0.269 0.49994,-0.2953 0.63964,-0.99317 0.31312,-1.5642 l -0.1715,-0.29889 0.14446,-0.71235 c 0.0793,-0.39184 0.15452,-0.72137 0.16582,-0.73514 v -7.1e-4 h 7.1e-4 v -7.1e-4 h 0.001 c 0.0207,-0.007 0.11472,0.0274 0.21705,0.0804 0.90173,0.46237 3.5368,1.2379 4.5346,1.3372 0.63131,0.0618 0.79064,0.0158 0.79064,-0.22985 0,-0.4264 -1.853,-1.9026 -3.697,-2.9441 -0.36443,-0.20612 -0.67513,-0.4047 -0.68959,-0.4405 -0.0146,-0.0364 -0.13193,-0.18303 -0.26046,-0.32523 l -0.23342,-0.25832 0.0946,-0.36436 c 0.0942,-0.36246 0.0936,-0.36477 -0.0833,-0.43198 -0.25551,-0.0971 -0.33733,-0.0399 -0.38715,0.27115 l -0.0441,0.2754 -0.43126,0.0377 c -0.3658,0.0332 -0.50649,0.01 -0.92513,-0.15655 -1.3517,-0.53527 -2.8875,-0.90603 -3.85,-0.93013 z m 9.3859,15.036 h 0.002 c 4.7e-4,2e-5 7.8e-4,3e-5 0.001,0 0.004,-5e-5 0.007,0.001 0.011,0.003 0.0479,0.0191 0.40057,0.16036 0.78423,0.31384 0.38361,0.15349 0.87817,0.31958 1.0988,0.37219 0.39763,0.0925 0.52049,0.22335 0.27042,0.28822 -0.10314,0.0273 -0.14107,0.12821 -0.18004,0.49957 -0.0369,0.33057 -0.0252,0.49454 0.0348,0.56932 0.0683,0.0815 0.0694,0.22977 0.004,0.69598 h 7.2e-4 c -0.0457,0.32585 -0.10535,0.65349 -0.13455,0.73158 -0.0852,0.22947 -0.21144,0.0227 -0.1715,-0.27897 0.052,-0.38958 -0.13069,-0.49175 -0.86822,-0.49175 h -0.57714 v -0.31241 c 0,-0.27683 -0.0208,-0.31878 -0.17435,-0.35582 l -0.17436,-0.0441 v -1.0112 c 0,-0.72013 0.0167,-0.96615 0.0719,-0.97851 z m 2.4879,4.4577 v 7.2e-4 c 0.0643,-0.004 0.29595,0.0218 0.55936,0.0683 l 0.54725,0.0946 0.9721,1.034 c 0.53446,0.56888 1.0128,1.0942 1.0668,1.1706 0.053,0.0748 0.11265,0.31567 0.13303,0.53516 0.0219,0.21969 0.0763,0.43207 0.1238,0.46898 0.0581,0.0472 0.0971,0.43386 0.12449,1.1984 0.0337,0.93054 0.0218,1.1338 -0.0577,1.1664 -0.0638,0.0231 -0.0997,0.13945 -0.0997,0.30316 0,0.14606 -0.0555,0.34253 -0.12174,0.43838 -0.0669,0.0947 -0.12229,0.20947 -0.12311,0.25547 -7.5e-4,0.0459 -0.47208,0.94776 -1.0475,2.004 l 0.003,-7e-4 c -0.57548,1.0562 -1.0633,1.9213 -1.0838,1.9222 h -0.001 c -0.028,-0.007 -0.1753,-0.13957 -0.33376,-0.30104 l -0.29747,-0.30315 0.20922,-0.70524 c 0.11527,-0.38804 0.26468,-0.78889 0.33092,-0.88956 0.0921,-0.1399 0.10274,-0.21286 0.0463,-0.30458 -0.0528,-0.081 -0.0565,-0.22142 -0.0138,-0.42912 0.0994,-0.47129 0.15428,-3.0315 0.0768,-3.6223 -0.0406,-0.32694 -0.0417,-0.55274 -0.001,-0.60562 0.0435,-0.0536 0.007,-0.27329 -0.10604,-0.62766 -0.0952,-0.29994 -0.25662,-0.84391 -0.35867,-1.2084 -0.10232,-0.36445 -0.27743,-0.88039 -0.38857,-1.1465 -0.10851,-0.25778 -0.18398,-0.48335 -0.17505,-0.51025 v -7e-4 l 7.1e-4,-7.2e-4 7e-4,-7.1e-4 c 0.003,-0.001 0.008,-0.003 0.0157,-0.004 z m 2.0659,0.36081 h 0.003 c 0.001,-2.2e-4 0.006,-7e-5 0.008,7.2e-4 0.0767,0.0207 0.40617,0.0894 0.73228,0.15086 0.91442,0.17526 0.86205,0.1132 0.83689,0.69528 -0.0229,0.52747 -0.0227,0.43685 -0.0364,0.84544 -2.3e-4,0.007 -0.53934,-0.58257 -0.9415,-0.98919 -0.35257,-0.35666 -0.60132,-0.64432 -0.6049,-0.69599 v -0.0043 h 7.1e-4 v -0.0014 h 7.1e-4 v -7.1e-4 h 7.1e-4 z m 2.394,0.38286 0.15942,0.005 1.6389,0.0355 c -0.56828,0.38861 -1.6573,1.3884 -1.8716,1.5258 0.0124,-0.29295 0.0394,-1.2153 0.0733,-1.567 z m 0.12876,6.5863 c 0.0675,-0.004 0.18502,0.17198 0.55721,0.73084 l 0.543,0.81555 -0.34088,0.2989 h -7.1e-4 c -0.18755,0.16404 -0.47456,0.39383 -0.63764,0.51309 l -0.29675,0.21492 v -1.1472 c 0,-0.82778 0.0271,-1.1984 0.0953,-1.3293 0.0293,-0.0566 0.0497,-0.0952 0.0804,-0.0968 z m -1.1393,0.12091 h 0.001 c 0.001,-6e-5 0.003,-5e-5 0.004,0 0.0179,5.2e-4 0.0321,0.0229 0.0562,0.047 h -0.003 c 0.0415,0.0431 0.0664,0.49296 0.0526,1.16 l -0.0185,1.0902 -0.46469,-0.41489 -0.46399,-0.4156 0.38927,-0.71449 c 0.32202,-0.59065 0.40004,-0.74328 0.4462,-0.7522 z m -1.1123,1.952 0.25547,0.22844 c 0.14085,0.12559 0.42012,0.37441 0.62056,0.55295 l 0.36507,0.3245 v 0.42771 c 0.0285,0.95185 -0.0185,2.1577 -0.0185,2.1577 0,0 -0.75954,-0.55358 -1.1643,-1.0376 l -7.1e-4,7.1e-4 c -0.0226,0 -0.25425,-0.21516 -0.51452,-0.47751 l -0.47325,-0.47608 0.46471,-0.85043 z"
         stroke-width="0.26364"
         id="path196" /><path
         d="m 151.14,47.712 c -0.31184,0.002 -0.57915,0.0465 -0.72462,0.13714 -0.0932,0.0581 -0.0845,0.11023 0.0504,0.30134 0.49128,0.69567 0.98023,2.0156 1.1582,3.1264 0.0889,0.55505 0.12054,0.62768 0.27319,0.62768 0.27838,0 0.75392,0.3771 0.99559,0.78947 0.577,0.98457 -0.002,2.212 -1.0407,2.2052 -0.68186,-0.004 -1.2257,-0.48858 -1.33,-1.184 -0.0661,-0.4402 0.0619,-0.81652 0.45621,-1.3412 0.2803,-0.37305 0.31071,-0.45746 0.26954,-0.74868 -0.18006,-1.2736 -0.88878,-3.0527 -1.3536,-3.3979 -0.44128,-0.32773 -1.5248,-0.0934 -2.0793,0.44971 -0.11138,0.10909 -0.43247,0.28759 -0.71356,0.39672 -1.4237,0.55273 -2.3563,1.9601 -2.1256,3.2078 0.0945,0.51138 0.24298,0.78627 0.49843,0.92298 0.16107,0.0862 0.16681,0.0768 0.10979,-0.17937 -0.0822,-0.36932 -0.058,-0.81633 0.059,-1.0929 l 0.0975,-0.23031 0.0264,0.24296 c 0.0615,0.56589 0.21948,1.0075 0.5617,1.5712 l 0.36382,0.59934 -0.33298,0.67845 c -0.18317,0.37311 -0.30935,0.71683 -0.28029,0.76385 0.0291,0.047 0.21288,0.15409 0.40842,0.23791 0.32084,0.13753 0.35559,0.17939 0.35559,0.42883 0,0.15203 0.0547,0.32182 0.12152,0.37726 0.0668,0.0555 0.12152,0.16415 0.12152,0.24171 0,0.13986 0.36928,0.56819 0.48989,0.56819 0.0346,0 0.0876,0.14705 0.11798,0.32695 0.0359,0.21237 0.1214,0.37039 0.2436,0.45051 0.17254,0.11304 0.2348,0.10684 0.74156,-0.0755 0.30425,-0.10944 0.74466,-0.28321 0.97883,-0.38596 l 0.42582,-0.18682 0.36872,0.3605 c 0.45832,0.44801 0.71395,0.85052 0.65551,1.032 -0.0246,0.0762 -0.117,0.34634 -0.20563,0.60045 -0.17157,0.49197 -0.37123,1.7689 -0.45289,2.8965 -0.0324,0.44666 -0.0934,0.73401 -0.1751,0.82428 -0.0714,0.079 -0.1043,0.2049 -0.0764,0.2928 0.031,0.0977 -0.009,0.20653 -0.10894,0.29706 -0.15194,0.13751 -0.22203,0.12158 -1.8732,-0.42582 l -1.7153,-0.56867 -0.78031,-0.7637 c -0.62865,-0.61527 -0.87477,-0.79977 -1.2662,-0.94893 -0.49894,-0.19011 -1.2341,-0.25459 -1.5586,-0.13667 -0.15897,0.0578 -0.33644,-0.0857 -1.4173,-1.1454 -1.7983,-1.7631 -5.3546,-4.8732 -5.5723,-4.8732 -0.0453,0 -0.10467,0.0584 -0.13208,0.12987 -0.0357,0.0928 0.20195,0.36304 0.83267,0.94719 1.3326,1.2342 3.4145,3.2938 4.4894,4.4413 0.75451,0.80548 0.94908,1.0595 0.91413,1.1932 -0.0854,0.32622 0.0458,0.55797 0.45952,0.81258 0.31056,0.19109 0.40526,0.29633 0.40526,0.4505 0,0.139 0.071,0.23775 0.22968,0.31984 0.12635,0.0653 0.32909,0.24909 0.4505,0.40827 0.42964,0.56327 1.4688,0.88378 2.1601,0.66626 0.17858,-0.0561 0.35124,0.0315 1.2148,0.61707 1.5293,1.037 2.0052,1.2489 3.9628,1.7636 l 0.36446,0.0957 -0.42203,0.14553 c -0.69617,0.23995 -1.5626,0.339 -2.1962,0.25119 -0.6629,-0.0919 -1.1285,-0.28494 -1.6478,-0.68351 -0.20813,-0.15974 -0.49239,-0.34947 -0.63178,-0.42156 -0.33078,-0.17104 -1.1236,-0.17488 -1.448,-0.007 l -0.24819,0.12829 -1.4814,-1.2384 c -0.81477,-0.68111 -2.096,-1.721 -2.8473,-2.3107 -1.0886,-0.85459 -1.3887,-1.0533 -1.478,-0.97914 -0.0617,0.0512 -0.11211,0.14032 -0.11211,0.19805 0,0.0577 0.81091,0.82541 1.802,1.706 0.9911,0.88058 2.1543,1.9444 2.585,2.364 l 0.78316,0.76291 -0.15518,0.25452 c -0.22413,0.36757 -0.20615,0.68411 0.0423,0.74645 0.10882,0.0273 0.23206,0.0284 0.27396,0.002 0.0419,-0.0259 0.11835,0.0548 0.1699,0.17922 0.0515,0.12445 0.35655,0.42475 0.67764,0.66721 l 0.58386,0.44085 0.69252,-0.007 c 0.47448,-0.004 0.77789,-0.0489 0.96396,-0.14173 0.14934,-0.0745 0.36201,-0.13541 0.47249,-0.13541 0.11052,0 0.95666,0.25602 1.8804,0.56898 1.0771,0.36489 1.8723,0.58698 2.2164,0.61912 0.29519,0.0276 0.53671,0.0821 0.53671,0.12117 0,0.0391 -0.20956,0.27161 -0.46569,0.51662 -0.37962,0.36312 -0.44324,0.45975 -0.3442,0.52326 0.0668,0.0429 0.18526,0.0786 0.26321,0.0793 0.0779,6.2e-4 0.14172,0.0368 0.14172,0.0804 0,0.16653 -0.40708,0.32808 -1.6198,0.64269 -0.69043,0.17912 -2.8346,0.76181 -2.8346,0.76181 0,0 -3.3618,1.1964 -3.7438,1.3081 -0.80966,0.56856 -0.66589,0.34867 -0.95693,2.503 -0.2091,1.838 -0.47357,5.8031 -0.47357,5.8031 l -0.40193,1.4948 c 0,0 0.0766,0.28204 -0.20817,0.30561 -0.24311,0.0201 -0.34712,0.17486 -0.53244,0.79186 -0.12495,0.416 -0.62908,0.92742 -0.91144,1.0067 -1.1715,0.32877 -1.7706,0.4909 -2.0532,0.71782 -0.97906,1.1773 5.3269,0.53152 5.7759,0.53129 0.38806,-0.22764 0.85433,-0.94141 0.94098,-1.4459 0.004,-0.0198 0.004,-0.14833 -0.0373,-0.32948 -0.0499,-0.22211 -0.0434,-0.43217 0.0206,-0.64523 0.0699,-0.23327 0.0711,-0.34464 0.004,-0.4252 -0.0675,-0.0814 -0.0401,-0.40539 0.10845,-1.2781 0.10955,-0.64297 0.22299,-1.4514 0.25215,-1.7966 0.029,-0.34253 0.0744,-0.19 0.10137,-0.19405 h 6.3e-4 c 0.027,3e-4 0.14608,-0.20486 0.26464,0.07319 0.11859,0.27806 0.63472,1.3251 0.99501,2.0955 0.21192,0.45314 0.32955,0.62454 -0.61023,1.483 -0.46719,0.42677 -1.0944,1.1227 -1.2127,1.5074 -0.11074,0.36017 0.44051,0.53675 0.62498,0.46072 l 4.5066,-2.5542 c -0.11721,-1.8704 -0.22816,-0.1906 -0.74466,-2.4059 -0.58331,-2.5019 -1.3468,-2.8266 -2.0027,-3.8656 -0.10589,-0.1678 -0.19251,-0.32405 -0.19251,-0.34721 0,-0.0231 0.63906,-0.0421 1.4202,-0.0421 1.379,0 1.4177,0.004 1.3363,0.1566 -0.11603,0.21677 -0.10308,0.97506 0.0209,1.2202 l 0.10235,0.20246 4.1259,0.081 -0.0959,3.4439 1.5203,-0.43942 0.15465,-3.0449 3.9882,-0.018 c 0,0 0.009,-2.4797 -0.0144,-3.5455 l 0.15232,-0.26321 c 0.26367,-0.45589 0.49882,-1.3701 0.54684,-2.126 0.0254,-0.40089 0.0808,-0.79606 0.12307,-0.87806 0.0489,-0.0948 0.0458,-0.44859 -0.009,-0.97186 -0.0469,-0.45254 -0.12367,-1.4423 -0.17067,-2.1995 -0.12215,-1.9676 -0.42499,-3.4849 -1.1878,-5.9527 -1.1026,-3.5671 -2.2361,-5.3184 -3.9152,-6.0486 -0.9159,-0.39825 -1.0092,-0.4615 -1.1019,-0.74819 -0.1321,-0.40853 0.002,-0.86675 0.40668,-1.3831 1.0004,-1.2785 1.1901,-2.5764 0.58226,-3.9824 -0.15824,-0.366 -0.27958,-0.67362 -0.26953,-0.68366 0.01,-0.01 0.1159,-0.0427 0.23505,-0.0726 0.18642,-0.0468 0.23533,-0.0183 0.35037,0.20421 0.34152,0.66042 0.46629,1.6852 0.28583,2.3477 -0.26754,0.98224 -0.23272,2.1462 0.0838,2.8039 0.30399,0.63161 1.1955,1.3653 1.8931,1.5579 l 0.29722,0.0819 -0.28362,-0.31383 c -0.33627,-0.37221 -0.48512,-0.64443 -0.61343,-1.1213 -0.12775,-0.47486 -0.0434,-0.52327 0.14696,-0.0843 0.34375,0.79264 1.1719,1.2871 2.1558,1.2871 0.28497,0 0.61847,-0.0381 0.74109,-0.0848 l 0.22287,-0.0848 -0.24692,-0.15027 c -0.29476,-0.17926 -0.62823,-0.62104 -0.51947,-0.68825 0.0423,-0.0261 0.0972,-0.0146 0.12213,0.0256 0.0249,0.0402 0.17705,0.0979 0.33819,0.12812 0.22752,0.0427 0.38858,0.008 0.72132,-0.1547 0.23565,-0.11529 0.47784,-0.26899 0.53813,-0.34167 0.10027,-0.12095 0.0876,-0.12092 -0.14965,0.002 -0.49799,0.25744 -1.0319,0.10256 -1.5983,-0.46379 -0.49779,-0.49778 -0.5994,-0.88237 -0.64475,-2.4392 -0.023,-0.78934 -0.0884,-1.4988 -0.16704,-1.8151 -0.37274,-1.4986 -1.3907,-2.6745 -2.488,-2.8738 -0.44296,-0.0804 -0.98193,0.0898 -1.6362,0.51693 l -0.58385,0.38106 -0.38075,-0.34451 c -0.20936,-0.18956 -0.54533,-0.42441 -0.74661,-0.52184 -0.41049,-0.19871 -1.0541,-0.30897 -1.5739,-0.30466 z"
         stroke-width="0.080989"
         id="path197" /></g></g><g
     id="g240"
     transform="matrix(1.3186892,0,0,1.3186892,-26.667771,26.83581)"><g
       transform="matrix(10.865742,0,0,10.865742,-43.518775,21.073398)"
       fill="#ffffff"
       stroke-width="4.7396"
       aria-label="EavesDrum"
       id="g194"><path
         d="m 10.631,30.983 v -8.3265 q 0,-0.69387 -0.20045,-1.1102 -0.18503,-0.43174 -0.87891,-0.43174 H 9.24325 v -0.30839 h 6.5687 q 0.53968,0 0.81723,0.18503 0.27755,0.16961 0.38548,0.46258 0.10794,0.27755 0.10794,0.58594 v 1.1565 h -0.30839 q 0,-0.92516 -0.50884,-1.3415 -0.49342,-0.43174 -1.4186,-0.43174 h -2.868 v 4.009 h 4.1632 v 0.61678 h -4.1632 v 4.3174 h 2.6984 q 1.0485,0 1.6499,-0.38548 0.61678,-0.38548 0.97142,-1.3106 l 0.30839,0.0771 -0.53968,1.4648 q -0.12336,0.35465 -0.41632,0.57052 -0.27755,0.20045 -0.74013,0.20045 z m 10.3,0.15419 q -0.32381,0 -0.70929,-0.10794 -0.37007,-0.09252 -0.72471,-0.33923 -0.35465,-0.24671 -0.58594,-0.66303 -0.21587,-0.41632 -0.21587,-1.0485 0,-0.84807 0.53968,-1.3106 0.5551,-0.46258 1.4494,-0.64762 0.90974,-0.20045 1.9428,-0.20045 h 0.46258 q 0,-1.0794 -0.21587,-1.6345 -0.21587,-0.57052 -0.58594,-0.77097 -0.35465,-0.21587 -0.81723,-0.21587 -0.64761,0 -1.0948,0.27755 -0.43174,0.27755 -0.60136,1.0331 h -0.69387 q 0,-0.4009 0.04626,-0.74013 0.04626,-0.35465 0.33923,-0.64762 0.29297,-0.29297 0.956,-0.41632 0.66303,-0.12335 1.3569,-0.12336 0.52426,0 1.0023,0.12336 0.49342,0.12336 0.86349,0.46258 0.38548,0.32381 0.60136,0.97142 0.23129,0.6322 0.23129,1.6807 v 4.1632 h -0.77097 l -0.53968,-0.69387 h -0.0771 q -0.23129,0.29297 -0.75555,0.57052 -0.52426,0.27755 -1.4032,0.27755 z m 0.69387,-0.69387 q 0.57052,0 0.89433,-0.27755 0.33923,-0.29297 0.57052,-0.64762 v -2.0816 h -0.46258 q -1.1565,0 -1.8195,0.43174 -0.64762,0.41632 -0.64762,1.1102 0,0.75555 0.44716,1.1102 0.44716,0.35465 1.0177,0.35465 z m 7.648,0.69387 -2.39,-5.6281 Q 26.5128,24.6456 26.17358,24.30639 25.83435,23.95174 25.27926,23.92091 v -0.30839 q 0.06168,0 0.23129,-0.01542 0.18503,-0.01542 0.29297,-0.01542 0.478,0 0.94058,0.15419 0.478,0.13878 0.90974,0.5551 0.43174,0.41632 0.77097,1.2181 l 1.3877,3.3152 2.1587,-5.0884 h 0.77097 l -3.161,7.4013 z m 7.5555,0 q -1.0794,0 -1.8041,-0.50884 -0.70929,-0.50884 -1.0794,-1.3723 -0.35465,-0.86349 -0.35465,-1.8966 0,-1.0485 0.37006,-1.8966 0.37007,-0.86349 1.0639,-1.3723 0.69383,-0.50881 1.6499,-0.50884 1.5728,0 2.3283,0.87891 0.75555,0.87891 0.75555,2.5134 l -0.03084,0.61678 h -4.6721 q 0,1.2644 0.53968,2.097 0.5551,0.83265 1.5419,0.83265 0.75555,0 1.249,-0.32381 0.50884,-0.32381 0.90974,-0.90974 l 0.30839,0.23129 q -0.52426,0.87891 -1.2181,1.249 -0.67845,0.37007 -1.5574,0.37007 z m -1.7732,-4.1632 h 3.2381 q 0,-1.3415 -0.4009,-2.0508 -0.4009,-0.72471 -1.2181,-0.72471 -0.46258,0 -0.83265,0.37007 -0.35465,0.35465 -0.57052,0.98684 -0.21587,0.61678 -0.21587,1.4186 z m 8.897,4.1632 q -0.92516,0 -1.5111,-0.15419 -0.58594,-0.16961 -0.8789,-0.46258 -0.29297,-0.29297 -0.33923,-0.66303 -0.04626,-0.37007 -0.04626,-0.956 h 0.30839 q 0.12336,0.75555 0.64761,1.1873 0.52426,0.43174 1.5111,0.43174 0.8789,0 1.2798,-0.30839 0.41632,-0.30839 0.41632,-0.77097 0,-0.46258 -0.35465,-0.77097 -0.33923,-0.32381 -1.0331,-0.61678 l -0.92516,-0.38548 q -0.87891,-0.35465 -1.3723,-0.83265 -0.478,-0.49342 -0.478,-1.249 0,-0.97142 0.72471,-1.4803 0.72471,-0.52426 1.8195,-0.52426 0.8789,0 1.4494,0.16961 0.57052,0.15419 0.86349,0.44716 0.29297,0.29297 0.33923,0.66303 0.04626,0.37007 0.04626,0.956 h -0.30839 q -0.12336,-0.75555 -0.64762,-1.1873 -0.50884,-0.43174 -1.434,-0.43174 -0.75555,0 -1.1565,0.30839 -0.38548,0.30839 -0.38548,0.77097 0,0.4009 0.32381,0.74013 0.32381,0.32381 0.90974,0.57052 l 0.92516,0.38548 q 0.98684,0.4009 1.4957,0.87891 0.50884,0.478 0.50884,1.2798 0,0.97142 -0.77097,1.4957 -0.77097,0.50884 -1.9274,0.50884 z"
         id="path193" /><path
         d="m 59.209,26.465 q 0,0.9863 -0.34633,1.8145 -0.3388,0.82819 -0.94112,1.4305 -0.60232,0.59479 -1.4305,0.9336 -0.82819,0.3388 -1.7994,0.3388 h -5.2854 q -0.21081,0 -0.39151,-0.07529 -0.1807,-0.07529 -0.31622,-0.20328 -0.12799,-0.13552 -0.20328,-0.31622 -0.07529,-0.1807 -0.07529,-0.39151 v -8.824 q 0,-0.20328 0.07529,-0.38398 0.07529,-0.1807 0.20328,-0.31622 0.13552,-0.13552 0.31622,-0.21081 0.1807,-0.07529 0.39151,-0.07529 h 5.2854 q 0.97124,0 1.7994,0.33881 0.82819,0.3388 1.4305,0.94112 0.60232,0.59479 0.94112,1.4305 0.34633,0.82819 0.34633,1.807 z m -1.9575,-1.7618 q 0,-0.5722 -0.18822,-1.0465 -0.1807,-0.47433 -0.5195,-0.8056 -0.3388,-0.3388 -0.81313,-0.5195 -0.4668,-0.18822 -1.039,-0.18822 h -4.3141 v 6.8815 h 4.3141 q 0.5722,0 1.039,-0.1807 0.47433,-0.18822 0.81313,-0.5195 0.3388,-0.33881 0.5195,-0.8056 0.18822,-0.47433 0.18822,-1.0541 z m 10.744,0.09788 H 63.591 q -0.39904,0 -0.60232,0.20328 -0.20328,0.19575 -0.20328,0.57973 v 5.3983 h -1.9575 v -5.3983 q 0,-0.50444 0.12799,-0.90348 0.12799,-0.39904 0.3388,-0.7002 0.21834,-0.30869 0.49691,-0.5195 0.27857,-0.21834 0.57973,-0.35386 0.30869,-0.13552 0.61738,-0.19575 0.31622,-0.06776 0.58726,-0.06776 h 4.4195 z m 10.187,5.195 q 0,0.21081 -0.07529,0.39151 -0.07529,0.1807 -0.21081,0.31622 -0.12799,0.12799 -0.30869,0.20328 -0.17317,0.07529 -0.37645,0.07529 h -4.4271 q -0.36139,0 -0.77549,-0.08282 -0.40657,-0.08282 -0.8056,-0.26352 -0.39904,-0.18822 -0.77549,-0.4668 -0.36892,-0.2861 -0.64749,-0.68514 -0.27857,-0.40657 -0.45174,-0.9336 -0.16564,-0.52703 -0.16564,-1.1896 v -4.5174 h 1.9575 v 4.5174 q 0,0.38398 0.12799,0.69267 0.13552,0.30116 0.36139,0.5195 0.22587,0.21834 0.52703,0.3388 0.30869,0.11294 0.66255,0.11294 h 3.4257 v -6.1813 h 1.9575 z m 9.1026,0.9863 h -1.9575 v -5.3983 q 0,-0.38398 -0.20328,-0.57973 -0.20328,-0.20328 -0.60232,-0.20328 h -2.5448 v 6.1813 h -1.9575 v -7.1676 q 0,-0.20328 0.07529,-0.37645 0.07529,-0.1807 0.21081,-0.30869 0.13552,-0.13552 0.31622,-0.21081 0.1807,-0.07529 0.38398,-0.07529 h 3.5311 q 0.40657,0 0.87336,0.14305 0.46679,0.14305 0.88842,0.45927 v -0.60232 h 2.6502 q 0.27857,0 0.58726,0.06776 0.30869,0.06023 0.60985,0.19575 0.30869,0.13552 0.58726,0.35386 0.27857,0.21081 0.48938,0.5195 0.21081,0.30116 0.3388,0.7002 0.12799,0.39904 0.12799,0.90348 v 5.3983 h -1.9575 v -5.3983 q 0,-0.38398 -0.19575,-0.57973 -0.18822,-0.20328 -0.58726,-0.20328 h -1.7618 q 0.09788,0.36139 0.09788,0.78302 z"
         id="path194" /></g></g><text
     xml:space="preserve"
     style="font-style:normal;font-variant:normal;font-weight:normal;font-stretch:normal;font-size:37.3333px;font-family:Audiowide;-inkscape-font-specification:Audiowide;text-align:center;writing-mode:lr-tb;direction:ltr;text-anchor:middle;fill:#ffffff;stroke-width:17.074;stroke-linecap:square;stroke-linejoin:round;stroke-miterlimit:0;stroke-dasharray:none"
     x="440.90765"
     y="550.74396"
     id="text240"><tspan
       id="tspan240"
       x="440.90765"
       y="550.74396"
       style="font-style:normal;font-variant:normal;font-weight:normal;font-stretch:normal;font-size:37.3333px;font-family:'Noto Sans';-inkscape-font-specification:'Noto Sans'">drumming for e(a)veryone</tspan></text><text
     xml:space="preserve"
     style="font-style:normal;font-variant:normal;font-weight:normal;font-stretch:normal;font-size:74.6667px;font-family:Audiowide;-inkscape-font-specification:Audiowide;text-align:center;writing-mode:lr-tb;direction:ltr;text-anchor:middle;fill:#ffffff;stroke-width:17.074;stroke-linecap:square;stroke-linejoin:round;stroke-miterlimit:0;stroke-dasharray:none"
     x="1204.9869"
     y="571.05084"
     id="text240-1"><tspan
       id="tspan240-8"
       x="1204.9869"
       y="571.05084"
       style="font-style:normal;font-variant:normal;font-weight:normal;font-stretch:normal;font-size:74.6667px;font-family:Audiowide;-inkscape-font-specification:Audiowide">.io</tspan></text></svg>
