<?xml version="1.0" encoding="UTF-8"?>
<!-- Created with Inkscape (http://www.inkscape.org/) -->
<svg width="32" height="32" version="1.1" viewBox="0 0 8.4667 8.4667" xml:space="preserve" xmlns="http://www.w3.org/2000/svg"><g fill="#1a1a1a"><path d="m0.77164 6.2578v-3.3128c0-0.18405-0.026583-0.33128-0.079748-0.4417-0.049072-0.11452-0.16564-0.17178-0.34969-0.17178h-0.1227v-0.1227h2.6134c0.14315 0 0.25153 0.024552 0.32515 0.073615 0.073616 0.044996 0.12474 0.10634 0.15337 0.18405 0.028645 0.073615 0.04293 0.15132 0.04293 0.23312v0.46011h-0.1227c0-0.24539-0.067484-0.4233-0.20245-0.53373-0.13088-0.11452-0.31902-0.17178-0.56441-0.17178h-1.1411v1.5951h1.6564v0.2454h-1.6564v1.7178h1.0736c0.27811 0 0.49692-0.051137 0.65642-0.15337 0.1636-0.10225 0.29243-0.27607 0.38649-0.52146l0.1227 0.030643-0.21472 0.58281c-0.032716 0.09407-0.087932 0.16973-0.16564 0.22699-0.073619 0.053151-0.17178 0.079756-0.29447 0.079756z" stroke-width="1.8857"/><path d="m8.3927 4.5736c0 0.25402-0.044588 0.48767-0.1338 0.70097-0.087262 0.2133-0.20845 0.39751-0.36357 0.55263-0.15513 0.15319-0.33933 0.27341-0.55263 0.36067-0.2133 0.087259-0.44502 0.13089-0.69516 0.13089h-2.0418c-0.05429 0-0.10471-0.00971-0.15125-0.029089-0.046541-0.019348-0.087258-0.045533-0.12216-0.078523-0.032977-0.034881-0.059141-0.075619-0.078532-0.12216-0.019382-0.046539-0.029088-0.096958-0.029088-0.15125v-3.4089c0-0.05234 0.00971-0.1018 0.029088-0.14834 0.019381-0.046543 0.045538-0.087257 0.078532-0.12216 0.034881-0.034879 0.075617-0.062045 0.12216-0.081441 0.046541-0.019351 0.096956-0.029058 0.15125-0.029058h2.0418c0.25014 0 0.48186 0.043638 0.69516 0.13089 0.2133 0.087258 0.39751 0.20845 0.55263 0.36357 0.15512 0.15319 0.27631 0.3374 0.36357 0.55263 0.089196 0.2133 0.1338 0.44599 0.1338 0.69807zm-0.75623-0.68061c0-0.14737-0.024204-0.28213-0.072721-0.4043-0.046537-0.12216-0.11343-0.2259-0.20069-0.31122-0.087255-0.087262-0.19197-0.15416-0.31413-0.2007-0.12022-0.048492-0.25401-0.072717-0.40139-0.072717h-1.6666v2.6585h1.6666c0.14737 0 0.28117-0.02326 0.40139-0.069808 0.12216-0.048494 0.22687-0.11538 0.31413-0.20069 0.087261-0.087258 0.15416-0.191 0.20069-0.31122 0.048495-0.12216 0.072721-0.25789 0.072721-0.4072z" stroke-width="1.831"/></g></svg>
